<svg width="160" height="140" viewBox="0 0 160 140" fill="none" xmlns="http://www.w3.org/2000/svg">
<g clip-path="url(#clip0_733_4271)">
<path d="M152.149 139.814L151.939 139.735C151.892 139.717 147.281 137.951 145.122 133.945C142.962 129.939 144.019 125.117 144.03 125.068L144.08 124.849L144.291 124.928C144.337 124.945 148.948 126.712 151.108 130.717C153.268 134.723 152.21 139.546 152.199 139.594L152.149 139.814ZM145.467 133.759C147.294 137.146 150.937 138.882 151.86 139.278C152.036 138.288 152.586 134.287 150.762 130.904C148.938 127.521 145.292 125.782 144.369 125.385C144.193 126.375 143.643 130.376 145.467 133.759Z" fill="#219653"/>
<path d="M146.772 132.54C150.654 134.875 152.149 139.514 152.149 139.514C152.149 139.514 147.35 140.366 143.469 138.031C139.587 135.696 138.092 131.057 138.092 131.057C138.092 131.057 142.891 130.205 146.772 132.54Z" fill="#27AE60"/>
<path d="M84.2811 75.0303C84.4692 74.7393 84.7167 74.4914 85.0074 74.3027C85.298 74.1141 85.6252 73.989 85.9676 73.9357C86.3099 73.8823 86.6597 73.9019 86.9939 73.9931C87.3282 74.0844 87.6394 74.2452 87.9071 74.4651C87.9916 74.5351 88.0711 74.6109 88.1449 74.692L97.8115 73.2847L98.3495 66.0157C98.3907 65.458 98.6517 64.9395 99.0752 64.5743C99.4986 64.2091 100.05 64.0271 100.607 64.0683C101.165 64.1095 101.684 64.3705 102.049 64.794C102.414 65.2174 102.596 65.7686 102.555 66.3263C102.554 66.3392 102.553 66.3521 102.552 66.3651L101.609 76.5649L101.605 76.5876C101.482 76.9796 101.236 77.3217 100.904 77.5631C100.571 77.8044 100.17 77.9321 99.7593 77.9273L88.3893 77.731C88.3452 77.7984 88.2976 77.8634 88.2467 77.9258C88.0267 78.1936 87.7527 78.4118 87.4425 78.5662C87.1323 78.7207 86.793 78.8079 86.4468 78.822C86.1006 78.8362 85.7553 78.777 85.4336 78.6485C85.1118 78.5199 84.8208 78.3248 84.5797 78.0759C84.5308 78.0258 84.4844 77.974 84.4406 77.9205C84.1129 77.517 83.9211 77.0203 83.8924 76.5012C83.8638 75.9822 83.9998 75.4674 84.2811 75.0303Z" fill="#FFB7B7"/>
<path d="M103.77 137.008L101.013 137.007L99.7012 126.373L103.77 126.373L103.77 137.008Z" fill="#FFB7B7"/>
<path d="M104.473 139.68L95.5835 139.68V139.567C95.5836 138.65 95.9481 137.77 96.597 137.121C97.2459 136.472 98.126 136.107 99.0437 136.107H99.0439L104.474 136.107L104.473 139.68Z" fill="#2F2E41"/>
<path d="M123.035 134.508L120.426 135.398L115.751 125.757L119.602 124.443L123.035 134.508Z" fill="#FFB7B7"/>
<path d="M124.564 136.81L116.15 139.68L116.113 139.574C115.817 138.705 115.878 137.755 116.283 136.931C116.687 136.107 117.403 135.478 118.271 135.182L118.271 135.182L123.41 133.429L124.564 136.81Z" fill="#2F2E41"/>
<path d="M106.806 44.0257C106.806 44.0257 104.062 43.1194 102.298 46.7445C100.534 50.3695 97.7896 54.3571 97.7896 54.3571L99.3576 54.7196C99.3576 54.7196 99.7496 52.182 100.73 51.8195L100.338 55.0821C100.338 55.0821 112.098 58.8884 117.391 54.7196L117.195 53.4508C117.195 53.4508 117.979 53.6321 117.979 54.7196L118.567 54.1758C118.567 54.1758 117.979 53.0883 116.215 51.6383C115.057 50.6866 114.659 48.8759 114.522 47.7438C114.414 46.7854 114.003 45.8865 113.349 45.1774C112.176 43.921 110.04 42.5857 106.806 44.0257Z" fill="#2F2E41"/>
<path d="M107.818 56.691C110.586 56.691 112.83 54.447 112.83 51.679C112.83 48.9109 110.586 46.667 107.818 46.667C105.05 46.667 102.806 48.9109 102.806 51.679C102.806 54.447 105.05 56.691 107.818 56.691Z" fill="#FFB7B7"/>
<path d="M101.135 60.8181L100.223 60.5143C100.223 60.5143 98.4009 61.2737 98.4009 62.6406C98.4009 64.0075 98.0972 69.4752 98.0972 69.4752L102.198 69.9308L101.135 60.8181Z" fill="#CBCBCB"/>
<path d="M117.445 90.6924C117.067 90.2689 116.854 89.7238 116.844 89.1562C116.834 88.5886 117.028 88.0363 117.391 87.5998L114.832 66.1755C114.807 65.6703 114.984 65.1758 115.323 64.8005C115.662 64.4252 116.136 64.1998 116.642 64.1738C117.147 64.1477 117.642 64.3232 118.017 64.6616C118.393 65.0001 118.62 65.4738 118.647 65.979C118.647 65.986 118.647 65.9929 118.648 65.9999L120.936 87.447C121.019 87.5303 121.096 87.6198 121.165 87.7148C121.349 87.9686 121.48 88.2562 121.553 88.5609C121.625 88.8657 121.637 89.1817 121.587 89.491C121.538 89.8003 121.427 90.0968 121.263 90.3635C121.099 90.6303 120.884 90.862 120.63 91.0456C120.604 91.0646 120.577 91.0831 120.55 91.101C120.256 91.2955 119.923 91.4225 119.574 91.473C119.225 91.5234 118.869 91.496 118.532 91.3927C118.112 91.2652 117.735 91.0227 117.445 90.6924Z" fill="#FFB7B7"/>
<path d="M115.102 69.4752L119.203 69.0196C119.203 69.0196 118.899 63.5519 118.899 62.185C118.899 60.8181 117.076 60.0587 117.076 60.0587L116.165 60.3625L115.102 69.4752Z" fill="#CBCBCB"/>
<path d="M101.742 77.0614C101.742 77.0614 98.2491 83.4481 98.2491 91.1939C98.2491 98.9398 97.9453 134.48 97.9453 134.48C97.9453 134.48 102.502 136.606 105.236 134.024L107.666 94.6871L117.234 133.264C117.234 133.264 121.79 134.176 123.917 132.657L119.816 105.774C119.816 105.774 118.145 80.5624 113.589 78.7398C109.033 76.9173 101.742 77.0614 101.742 77.0614Z" fill="#2F2E41"/>
<path d="M102.402 51.7108C104.176 50.4267 105.612 48.9477 106.562 47.1883C106.562 47.1883 109.818 50.8063 111.808 50.9872C113.798 51.1681 111.989 46.6457 111.989 46.6457L108.371 45.7411L104.934 46.1029L102.221 47.9119L102.402 51.7108Z" fill="#2F2E41"/>
<path d="M112.829 59.1474C112.829 59.1474 112.974 59.0698 104.324 59.3848L100.704 60.3818L100.223 60.5143C100.223 60.5143 100.679 69.6271 101.894 71.2977C103.109 72.9684 102.805 73.8797 102.501 74.0316C102.198 74.1835 101.438 73.8797 101.894 74.6391C102.349 75.3985 102.957 74.9429 102.349 75.3985C101.742 75.8541 101.438 77.5248 101.438 77.5248L114.804 79.3474C114.804 79.3474 115.259 73.4241 116.474 70.3865C117.689 67.3489 117.993 66.1339 117.993 66.1339L117.082 60.0587L112.829 59.1474Z" fill="#CBCBCB"/>
<path d="M87.4189 33.241H86.6503V12.1861C86.6503 8.95412 85.3664 5.85455 83.0811 3.56922C80.7958 1.28389 77.6962 5.20976e-06 74.4643 0L29.8565 0C26.6245 -8.85649e-06 23.525 1.28387 21.2396 3.56918C18.9543 5.8545 17.6704 8.95407 17.6704 12.186V127.695C17.6704 130.927 18.9543 134.027 21.2396 136.312C23.5249 138.597 26.6245 139.881 29.8564 139.881H74.4642C76.0645 139.881 77.6492 139.566 79.1276 138.954C80.6061 138.341 81.9495 137.444 83.0811 136.312C84.2127 135.181 85.1103 133.837 85.7227 132.359C86.3351 130.88 86.6503 129.296 86.6503 127.695V48.2283H87.4189V33.241Z" fill="#3F3D56"/>
<path d="M84.0571 12.2717V127.611C84.0582 128.805 83.824 129.988 83.3681 131.091C82.9121 132.195 82.2433 133.198 81.3997 134.043C80.5561 134.888 79.5544 135.559 78.4516 136.016C77.3489 136.474 76.1667 136.711 74.9726 136.712H30.1344C27.7225 136.713 25.4086 135.757 23.7019 134.053C21.9952 132.348 21.0354 130.036 21.0337 127.624V12.2717C21.0329 11.0774 21.2672 9.89462 21.7235 8.79092C22.1798 7.68723 22.8489 6.68421 23.6928 5.83913C24.5367 4.99405 25.5388 4.32346 26.6418 3.86565C27.7449 3.40784 28.9273 3.17177 30.1216 3.17093H35.5717C35.3039 3.82741 35.2017 4.53968 35.2741 5.24496C35.3464 5.95025 35.5912 6.62692 35.9867 7.21534C36.3822 7.80375 36.9164 8.28587 37.5421 8.6192C38.1679 8.95252 38.866 9.12683 39.575 9.12677H65.1308C65.8398 9.12683 66.538 8.95252 67.1637 8.6192C67.7895 8.28587 68.3236 7.80375 68.7191 7.21534C69.1146 6.62692 69.3594 5.95025 69.4317 5.24496C69.5041 4.53968 69.4019 3.82741 69.1341 3.17093H74.9564C77.3679 3.16877 79.6815 4.12466 81.3882 5.82831C83.0949 7.53197 84.055 9.84384 84.0571 12.2553L84.0571 12.2717Z" fill="white"/>
<path d="M84.0571 29.3358V25.4071H78.1111V3.73274C77.1012 3.35977 76.0329 3.16953 74.9563 3.17092H74.1824V25.4071H53.557V9.12678H49.6283V25.4071H32.3423V3.17094H30.1344C29.5569 3.17004 28.9807 3.22464 28.4136 3.33398V25.4071H21.0337V29.3358H28.4136V38.4228L21.0338 42.6834V47.221L28.4136 42.9605V69.9973H21.0337V73.926H28.4136V113.016H21.0337V116.945H28.4136V136.549C28.9807 136.658 29.5569 136.713 30.1344 136.712H32.3423V116.945H49.6283V136.712H53.557V116.945H74.1824V136.712H74.9563C76.0329 136.713 77.1012 136.523 78.1111 136.15V116.945H84.0571V113.016H78.1111V95.9264H84.004V91.9978H78.1111V73.926H84.0571V69.9973H78.1111V46.0325H84.0571V42.1039H78.1111V29.3358L84.0571 29.3358ZM44.1539 29.3358L32.3424 36.156L32.3423 29.3358H44.1539ZM32.3423 40.6916L49.6283 30.7109V69.9973H32.3423V40.6916ZM32.3423 113.016V73.926H49.6283V113.016H32.3423ZM74.1824 113.016H53.557V95.9264H74.1824V113.016ZM74.1824 91.9978H53.557V73.926H74.1824V91.9978ZM74.1824 69.9973H53.557V46.0325H74.1824V69.9973ZM74.1824 42.1039H53.557V29.3358H74.1824V42.1039Z" fill="#E5E5E5"/>
<path d="M87.3435 42.1766C87.3435 54.6525 64.7538 82.4452 64.7538 82.4452C64.7538 82.4452 42.1641 54.6525 42.1641 42.1766C42.1641 36.1854 44.544 30.4396 48.7804 26.2032C53.0168 21.9668 58.7626 19.5868 64.7538 19.5868C70.745 19.5868 76.4908 21.9668 80.7272 26.2032C84.9636 30.4396 87.3435 36.1854 87.3435 42.1766Z" fill="#705AFF"/>
<path d="M78.1113 41.1944C78.1113 43.8362 77.3279 46.4188 75.8602 48.6154C74.3925 50.812 72.3063 52.524 69.8656 53.535C67.4248 54.546 64.7391 54.8105 62.148 54.2951C59.5569 53.7797 57.1769 52.5076 55.3088 50.6395C53.4407 48.7714 52.1685 46.3914 51.6532 43.8003C51.1378 41.2092 51.4023 38.5235 52.4133 36.0827C53.4243 33.642 55.1363 31.5558 57.3329 30.0881C59.5295 28.6204 62.1121 27.837 64.7539 27.837C66.5072 27.8362 68.2435 28.1807 69.8637 28.8509C71.4838 29.5212 72.9561 30.5039 74.1965 31.7431C75.4368 32.9823 76.421 34.4537 77.0927 36.0733C77.7644 37.6928 78.1105 39.4288 78.1113 41.1821V41.1944Z" fill="white"/>
<path d="M64.7073 46.4673C67.4556 46.4673 69.6835 44.2393 69.6835 41.491C69.6835 38.7426 67.4556 36.5147 64.7073 36.5147C61.9589 36.5147 59.731 38.7426 59.731 41.491C59.731 44.2393 61.9589 46.4673 64.7073 46.4673Z" fill="#705AFF"/>
<path d="M71.9295 52.8566C69.7843 54.2207 67.2947 54.945 64.7525 54.9447C62.2104 54.9443 59.721 54.2193 57.5762 52.8546C58.0222 51.2954 58.964 49.9238 60.259 48.9475C61.554 47.9711 63.1318 47.4431 64.7536 47.4433C66.3754 47.4436 67.953 47.972 69.2477 48.9487C70.5424 49.9254 71.4838 51.2972 71.9295 52.8566Z" fill="#705AFF"/>
<path d="M64.7535 98.7491C68.1166 98.7491 70.8429 96.0228 70.8429 92.6597C70.8429 89.2966 68.1166 86.5703 64.7535 86.5703C61.3904 86.5703 58.6641 89.2966 58.6641 92.6597C58.6641 96.0228 61.3904 98.7491 64.7535 98.7491Z" fill="#705AFF"/>
<path d="M158.967 140H1.03481C0.982714 140 0.932751 139.979 0.895913 139.942C0.859074 139.906 0.838379 139.856 0.838379 139.804C0.838379 139.751 0.859074 139.701 0.895913 139.665C0.932751 139.628 0.982714 139.607 1.03481 139.607H158.967C159.019 139.607 159.069 139.628 159.105 139.665C159.142 139.701 159.163 139.751 159.163 139.804C159.163 139.856 159.142 139.906 159.105 139.942C159.069 139.979 159.019 140 158.967 140Z" fill="#CBCBCB"/>
</g>
<defs>
<clipPath id="clip0_733_4271">
<rect width="158.325" height="140" fill="white" transform="translate(0.837891)"/>
</clipPath>
</defs>
</svg>
