<svg width="168" height="140" viewBox="0 0 168 140" fill="none" xmlns="http://www.w3.org/2000/svg">
<g clip-path="url(#clip0_532_646)">
<path d="M7.93904 133.405C10.2653 137.719 15.2025 139.571 15.2025 139.571C15.2025 139.571 16.368 134.429 14.0417 130.115C11.7155 125.8 6.77832 123.948 6.77832 123.948C6.77832 123.948 5.61277 129.091 7.93904 133.405Z" fill="#27AE60"/>
<path d="M9.53817 131.986C13.738 134.513 15.3555 139.532 15.3555 139.532C15.3555 139.532 10.1637 140.454 5.96385 137.927C1.76398 135.4 0.146484 130.381 0.146484 130.381C0.146484 130.381 5.33831 129.459 9.53817 131.986Z" fill="#219653"/>
<path d="M103.7 6.72096H77.4961V7.09531H103.7V6.72096Z" fill="#F2F2F2"/>
<path d="M96.5872 7.00172H96.2129V10.4644H96.5872V7.00172Z" fill="#F2F2F2"/>
<path d="M85.1693 7.00172H84.7949V10.4644H85.1693V7.00172Z" fill="#F2F2F2"/>
<path d="M116.989 24.6896H90.7852V25.0639H116.989V24.6896Z" fill="#F2F2F2"/>
<path d="M98.2708 21.3204H97.8965V24.7831H98.2708V21.3204Z" fill="#F2F2F2"/>
<path d="M109.689 21.3204H109.314V24.7831H109.689V21.3204Z" fill="#F2F2F2"/>
<path d="M151.804 33.1124H125.6V33.4867H151.804V33.1124Z" fill="#F2F2F2"/>
<path d="M133.085 29.7432H132.711V33.2059H133.085V29.7432Z" fill="#F2F2F2"/>
<path d="M144.503 29.7432H144.129V33.2059H144.503V29.7432Z" fill="#F2F2F2"/>
<path d="M149.183 119.961H122.979V120.335H149.183V119.961Z" fill="#F2F2F2"/>
<path d="M130.466 116.591H130.092V120.054H130.466V116.591Z" fill="#F2F2F2"/>
<path d="M141.882 116.591H141.508V120.054H141.882V116.591Z" fill="#F2F2F2"/>
<path d="M104.448 59.8781H78.2441V60.2524H104.448V59.8781Z" fill="#F2F2F2"/>
<path d="M85.7318 56.509H85.3574V59.9717H85.7318V56.509Z" fill="#F2F2F2"/>
<path d="M97.1478 56.509H96.7734V59.9717H97.1478V56.509Z" fill="#F2F2F2"/>
<path d="M112.685 104.987H86.4805V105.361H112.685V104.987Z" fill="#F2F2F2"/>
<path d="M93.9661 101.618H93.5918V105.08H93.9661V101.618Z" fill="#F2F2F2"/>
<path d="M105.384 101.618H105.01V105.08H105.384V101.618Z" fill="#F2F2F2"/>
<path d="M154.61 91.3231H128.406V91.6975H154.61V91.3231Z" fill="#F2F2F2"/>
<path d="M135.894 87.954H135.52V91.4167H135.894V87.954Z" fill="#F2F2F2"/>
<path d="M147.312 87.954H146.938V91.4167H147.312V87.954Z" fill="#F2F2F2"/>
<path d="M67.9137 131.43H23.5938V131.111H67.5947V115.647H27.3196L25.3631 111.571L25.6506 111.433L27.5203 115.328H67.9137V131.43Z" fill="#2F2E41"/>
<path d="M29.4924 139.242C31.3414 139.242 32.8404 137.743 32.8404 135.894C32.8404 134.045 31.3414 132.546 29.4924 132.546C27.6434 132.546 26.1445 134.045 26.1445 135.894C26.1445 137.743 27.6434 139.242 29.4924 139.242Z" fill="#3F3D56"/>
<path d="M62.4944 139.242C64.3434 139.242 65.8423 137.743 65.8423 135.894C65.8423 134.045 64.3434 132.546 62.4944 132.546C60.6454 132.546 59.1465 134.045 59.1465 135.894C59.1465 137.743 60.6454 139.242 62.4944 139.242Z" fill="#3F3D56"/>
<path d="M101.393 66.863C102.537 66.863 103.465 65.9351 103.465 64.7905C103.465 63.6458 102.537 62.7179 101.393 62.7179C100.248 62.7179 99.3203 63.6458 99.3203 64.7905C99.3203 65.9351 100.248 66.863 101.393 66.863Z" fill="#3F3D56"/>
<path d="M72.6553 110.386H22.8395L12.0605 75.1531H83.756L83.6908 75.3604L72.6553 110.386ZM23.0754 110.067H72.4215L83.3213 75.4719H12.4915L23.0754 110.067Z" fill="#2F2E41"/>
<path d="M68.7656 108.552H25.0105L15.543 77.3052H78.5156L78.4583 77.4892L68.7656 108.552Z" fill="#F2F2F2"/>
<path d="M84.6481 72.0054L84.3398 71.9236L86.4439 63.9933H98.6829V64.3122H86.6892L84.6481 72.0054Z" fill="#2F2E41"/>
<path d="M80.1725 85.8345H15.543V86.1533H80.1725V85.8345Z" fill="#2F2E41"/>
<path d="M76.4712 97.5814H19.1367V97.9003H76.4712V97.5814Z" fill="#2F2E41"/>
<path d="M48.0669 75.3125H47.748V110.226H48.0669V75.3125Z" fill="#2F2E41"/>
<path d="M62.3416 75.3025L60.0527 110.216L60.371 110.236L62.6598 75.3233L62.3416 75.3025Z" fill="#2F2E41"/>
<path d="M33.4784 75.3021L33.1602 75.3228L35.4357 110.237L35.7539 110.216L33.4784 75.3021Z" fill="#2F2E41"/>
<path d="M167.853 139.444H0.146484V139.818H167.853V139.444Z" fill="#2F2E41"/>
<path d="M111.592 11.5815C111.592 11.5815 114.328 19.3691 112.644 20.5672C110.96 21.7653 118.327 31.5496 118.327 31.5496L127.167 29.1535L122.326 20.9665C122.326 20.9665 121.695 12.7796 121.695 11.5815C121.695 10.3834 111.592 11.5815 111.592 11.5815Z" fill="#A0616A"/>
<path opacity="0.1" d="M111.592 11.5815C111.592 11.5815 114.328 19.3691 112.644 20.5672C110.96 21.7653 118.327 31.5496 118.327 31.5496L127.167 29.1535L122.326 20.9665C122.326 20.9665 121.695 12.7796 121.695 11.5815C121.695 10.3834 111.592 11.5815 111.592 11.5815Z" fill="black"/>
<path d="M107 67.0929C107 67.0929 106.201 77.0769 107 82.2687C107.798 87.4604 108.996 101.837 108.996 101.837C108.996 101.837 108.996 128.994 113.389 129.393C117.782 129.793 120.977 130.192 121.377 128.595C121.776 126.997 119.38 126.199 120.578 125.4C121.776 124.601 122.175 121.806 120.578 118.611C118.98 115.416 120.578 83.0674 120.578 83.0674L128.166 103.435C128.166 103.435 128.964 120.208 129.763 122.604C130.562 125 128.964 129.393 131.76 129.793C134.556 130.192 137.75 127.796 139.348 126.997C140.945 126.199 136.952 126.199 137.75 125.799C138.549 125.4 140.945 124.202 140.147 123.802C139.348 123.403 138.549 104.234 138.549 104.234C138.549 104.234 136.353 63.2989 133.557 61.7015C130.762 60.1041 128.964 62.8556 128.964 62.8556L107 67.0929Z" fill="#2F2E41"/>
<path d="M114.187 127.796V130.991C114.187 130.991 110.593 139.676 114.187 139.676C117.782 139.676 120.577 140.576 120.577 139.377V128.595L114.187 127.796Z" fill="#2F2E41"/>
<path d="M137.749 127.79V130.985C137.749 130.985 141.343 139.67 137.749 139.67C134.155 139.67 131.359 140.57 131.359 139.372V128.589L137.749 127.79Z" fill="#2F2E41"/>
<path d="M117.183 17.3723C121.153 17.3723 124.371 14.1539 124.371 10.1837C124.371 6.21364 121.153 2.99522 117.183 2.99522C113.213 2.99522 109.994 6.21364 109.994 10.1837C109.994 14.1539 113.213 17.3723 117.183 17.3723Z" fill="#A0616A"/>
<path d="M114.986 23.5624C114.986 23.5624 116.983 29.5528 120.178 28.3547L123.373 27.1566L128.964 65.4954C128.964 65.4954 124.571 71.8852 118.181 67.8916C111.791 63.898 114.986 23.5624 114.986 23.5624Z" fill="#705AFF"/>
<path d="M120.576 22.3643L122.373 18.5704C122.373 18.5704 132.956 23.5624 134.554 25.1598C136.151 26.7573 136.151 29.1535 136.151 29.1535L133.356 39.1375C133.356 39.1375 134.154 61.1025 134.154 61.9012C134.154 62.6999 136.95 67.0929 134.953 65.4954C132.956 63.898 132.557 62.3005 130.96 64.6967C129.362 67.0929 125.768 69.8884 125.768 69.8884L120.576 22.3643Z" fill="#3F3D56"/>
<path d="M134.554 51.1184L133.356 62.3005C133.356 62.3005 126.167 68.6903 127.765 69.0897C129.362 69.4891 130.161 67.8916 130.161 67.8916C130.161 67.8916 132.957 70.6871 134.554 69.0897C136.151 67.4923 140.145 52.3165 140.145 52.3165L134.554 51.1184Z" fill="#A0616A"/>
<path d="M117.336 0.0243083C115.742 -0.0326615 114.037 -0.0608424 112.693 0.797933C112.075 1.22892 111.533 1.75971 111.089 2.3686C109.78 4.02292 108.649 6.10443 109.136 8.15699L109.7 7.9368C109.7 8.48469 109.578 9.02573 109.344 9.52077C109.423 9.2896 109.689 9.66331 109.618 9.89715L108.996 11.9375C110.018 11.5627 111.29 12.3215 111.446 13.3992C111.517 11.0294 111.763 8.31193 113.685 6.92429C114.655 6.22451 115.882 6.01089 117.062 5.82119C118.151 5.64618 119.293 5.4793 120.336 5.83782C121.379 6.19634 122.267 7.26314 122.031 8.3405C122.512 8.17482 123.05 8.51001 123.287 8.95977C123.525 9.40953 123.538 9.94009 123.545 10.4487C124.057 10.8111 124.641 10.0916 124.85 9.49957C125.34 8.10993 125.776 6.63069 125.512 5.18092C125.248 3.73116 124.066 2.34568 122.593 2.34076C122.772 2.14429 122.867 1.88595 122.859 1.62038L121.644 1.51776C121.953 1.47409 122.236 1.32458 122.446 1.09483C121.959 1.63144 118.125 0.0524985 117.336 0.0243083Z" fill="#2F2E41"/>
<path d="M116.982 21.1662C116.982 21.1662 113.731 17.9804 112.561 18.1755C111.391 18.3707 109.793 21.1662 109.793 21.1662C109.793 21.1662 100.208 24.3611 100.608 27.556C101.007 30.7509 105.4 46.326 105.4 46.326C105.4 46.326 108.994 65.0961 105.8 67.0929C102.605 69.0897 120.975 74.2814 121.375 71.8852C121.774 69.4891 122.573 45.5273 121.375 41.9331C120.177 38.3388 116.982 21.1662 116.982 21.1662Z" fill="#3F3D56"/>
<path d="M130.961 27.556H135.899C135.899 27.556 139.348 42.7318 139.747 44.3292C140.146 45.9267 140.945 53.5146 140.546 53.5146C140.146 53.5146 132.159 51.9171 132.159 53.1152L130.961 27.556Z" fill="#3F3D56"/>
<path d="M130.794 65.1362H111.889C110.044 56.6497 109.89 48.4504 111.889 40.6165H130.794C127.743 48.3095 127.552 56.4527 130.794 65.1362Z" fill="#F2F2F2"/>
<path d="M104.203 54.7127L109.794 57.1088C109.794 57.1088 120.577 58.7063 120.577 54.3133C120.577 49.9203 109.794 52.3165 109.794 52.3165L106.2 51.1672L104.203 54.7127Z" fill="#A0616A"/>
<path d="M105.401 25.1598L100.609 26.3579L97.0147 47.5241C97.0147 47.5241 95.8166 53.1152 97.8134 53.5146C99.8102 53.9139 105.401 57.1088 105.401 57.1088C105.401 57.1088 106.2 51.1184 107.797 51.1184L103.804 47.9235L106.2 33.9458L105.401 25.1598Z" fill="#3F3D56"/>
<path d="M37.628 66.0548H11.4238V66.4291H37.628V66.0548Z" fill="#F2F2F2"/>
<path d="M18.9095 62.6857H18.5352V66.1484H18.9095V62.6857Z" fill="#F2F2F2"/>
<path d="M30.3275 62.6857H29.9531V66.1484H30.3275V62.6857Z" fill="#F2F2F2"/>
<path d="M46.7999 10.6516H20.5957V11.0259H46.7999V10.6516Z" fill="#F2F2F2"/>
<path d="M39.6868 10.9324H39.3125V14.3951H39.6868V10.9324Z" fill="#F2F2F2"/>
<path d="M28.2689 10.9324H27.8945V14.3951H28.2689V10.9324Z" fill="#F2F2F2"/>
<path d="M73.1905 47.5247H46.9863V47.899H73.1905V47.5247Z" fill="#F2F2F2"/>
<path d="M66.0775 47.8054H65.7031V51.2681H66.0775V47.8054Z" fill="#F2F2F2"/>
<path d="M54.6595 47.8054H54.2852V51.2681H54.6595V47.8054Z" fill="#F2F2F2"/>
<path d="M28.6437 47.3375H2.43945V47.7118H28.6437V47.3375Z" fill="#F2F2F2"/>
<path d="M21.5306 47.6183H21.1562V51.081H21.5306V47.6183Z" fill="#F2F2F2"/>
<path d="M10.1126 47.6183H9.73828V51.081H10.1126V47.6183Z" fill="#F2F2F2"/>
<path d="M60.089 28.6202H33.8848V28.9945H60.089V28.6202Z" fill="#F2F2F2"/>
<path d="M41.3704 25.2511H40.9961V28.7138H41.3704V25.2511Z" fill="#F2F2F2"/>
<path d="M52.7884 25.2511H52.4141V28.7138H52.7884V25.2511Z" fill="#F2F2F2"/>
</g>
<defs>
<clipPath id="clip0_532_646">
<rect width="167.707" height="140" fill="white" transform="translate(0.146484)"/>
</clipPath>
</defs>
</svg>
