<svg width="155" height="140" viewBox="0 0 155 140" fill="none" xmlns="http://www.w3.org/2000/svg">
<g clip-path="url(#clip0_768_4614)">
<path d="M133.036 12.8731L4.42188 50.346L7.8285 62.0382L136.443 24.5653L133.036 12.8731Z" fill="#3F3D56"/>
<path d="M19.7863 104.053L0.82953 38.9893C0.68899 38.507 0.745835 37.9885 0.98755 37.548C1.22926 37.1076 1.63605 36.7811 2.11843 36.6406L127.615 0.0760927C128.097 -0.0639752 128.616 -0.00693818 129.056 0.23469C129.496 0.476319 129.823 0.882794 129.964 1.36489L146.758 59.0062L146.238 59.1577L129.444 1.51633C129.343 1.17212 129.11 0.881942 128.795 0.709376C128.481 0.536811 128.111 0.495924 127.766 0.595679L2.26983 37.1602C1.92528 37.2606 1.63472 37.4938 1.46206 37.8084C1.28941 38.123 1.24881 38.4933 1.34919 38.8379L20.3059 103.901L19.7863 104.053Z" fill="#3F3D56"/>
<path d="M118.982 59.2741C118.601 59.2737 118.231 59.15 117.926 58.9216C117.622 58.6931 117.399 58.3721 117.292 58.0067L114.113 47.094C113.983 46.6461 114.036 46.1649 114.26 45.7561C114.485 45.3472 114.862 45.0441 115.309 44.9131L126.222 41.7336C126.67 41.6036 127.151 41.6567 127.56 41.8811C127.969 42.1055 128.272 42.4829 128.403 42.9305L131.583 53.8432C131.713 54.2911 131.66 54.7723 131.435 55.1812C131.211 55.59 130.834 55.8932 130.386 56.0242L119.473 59.2037C119.314 59.2503 119.148 59.274 118.982 59.2741Z" fill="#705AFF"/>
<path d="M19.4935 39.1906C19.4608 39.0784 19.422 38.9682 19.3771 38.8604C19.072 38.1198 18.5039 37.5182 17.7821 37.171C17.0603 36.8238 16.2357 36.7556 15.4667 36.9795C14.6976 37.2034 14.0385 37.7036 13.6159 38.384C13.1932 39.0643 13.0369 39.8769 13.177 40.6655C13.1967 40.7806 13.2229 40.8944 13.2555 41.0065C13.4531 41.6811 13.864 42.2735 14.4265 42.695C14.989 43.1165 15.6729 43.3445 16.3758 43.3448C16.6827 43.3454 16.9881 43.3017 17.2825 43.2149C18.1087 42.9734 18.8054 42.4142 19.2199 41.6598C19.6344 40.9054 19.7328 40.0174 19.4935 39.1906ZM17.1309 42.6952C16.4419 42.8952 15.7017 42.8138 15.0726 42.4688C14.4435 42.1238 13.9769 41.5435 13.7751 40.855C13.7434 40.7428 13.7181 40.629 13.6993 40.514C13.5977 39.8642 13.7364 39.1997 14.0892 38.6448C14.4421 38.0898 14.985 37.6824 15.6164 37.4986C16.2479 37.3149 16.9246 37.3675 17.5201 37.6465C18.1156 37.9255 18.5891 38.4119 18.8521 39.0147C18.9011 39.1205 18.9418 39.23 18.9739 39.3421C19.1736 40.0312 19.0917 40.7713 18.7461 41.4C18.4006 42.0287 17.8197 42.4945 17.1309 42.6952Z" fill="#705AFF"/>
<path d="M11.5279 41.5099C11.3547 40.9151 11.3713 40.2811 11.5754 39.6962C11.7796 39.1113 12.1611 38.6047 12.6668 38.2469C12.193 38.2238 11.7206 38.3142 11.2888 38.5107C10.8571 38.7072 10.4786 39.0039 10.1848 39.3763C9.89096 39.7487 9.69038 40.1859 9.59976 40.6515C9.50913 41.1171 9.53108 41.5976 9.66377 42.053C9.79645 42.5084 10.036 42.9255 10.3626 43.2696C10.6891 43.6136 11.0931 43.8747 11.5409 44.031C11.9888 44.1873 12.4675 44.2343 12.9372 44.1681C13.4069 44.1019 13.8539 43.9245 14.2412 43.6505C13.6224 43.6203 13.0285 43.3979 12.5422 43.0142C12.0558 42.6305 11.7012 42.1046 11.5279 41.5099Z" fill="#705AFF"/>
<path d="M95.6586 54.9224C95.601 54.7153 95.5031 54.5215 95.3706 54.3523C95.238 54.1831 95.0734 54.0416 94.8862 53.936C94.6989 53.8305 94.4927 53.7628 94.2793 53.737C94.0659 53.7113 93.8495 53.7278 93.6424 53.7857L75.6752 58.8113L73.7402 59.3526H85.8915L87.8265 58.8113L94.5246 56.9386C94.9422 56.8213 95.2961 56.5431 95.5087 56.165C95.7213 55.787 95.7752 55.3401 95.6586 54.9224Z" fill="#CCCCCC"/>
<path d="M82.9465 51.1687C82.8294 50.751 82.5512 50.3969 82.1731 50.1843C81.795 49.9716 81.3479 49.9179 80.9302 50.0348L53.9701 57.5746C53.5933 57.6813 53.2671 57.9191 53.0503 58.2451C52.8334 58.5711 52.7402 58.9639 52.7874 59.3526H59.7669L61.7046 58.8113L81.8125 53.1876C82.2304 53.0699 82.5845 52.7912 82.7971 52.4127C83.0097 52.0342 83.0634 51.5868 82.9465 51.1687Z" fill="#CCCCCC"/>
<path d="M152.353 58.8107H21.6386C21.1363 58.8113 20.6548 59.011 20.2996 59.3662C19.9445 59.7213 19.7447 60.2029 19.7441 60.7051V138.106C19.7447 138.608 19.9444 139.089 20.2996 139.445C20.6548 139.8 21.1363 139.999 21.6386 140H152.353C152.856 139.999 153.337 139.8 153.692 139.445C154.048 139.089 154.247 138.608 154.248 138.106V60.7051C154.247 60.2029 154.047 59.7214 153.692 59.3662C153.337 59.0111 152.856 58.8113 152.353 58.8107ZM153.707 138.106C153.706 138.464 153.564 138.809 153.31 139.062C153.056 139.316 152.712 139.459 152.353 139.459H21.6386C21.2797 139.459 20.9356 139.316 20.6819 139.062C20.4281 138.809 20.2855 138.464 20.2854 138.106V60.7051C20.2856 60.3463 20.4282 60.0022 20.6819 59.7485C20.9356 59.4947 21.2797 59.3521 21.6386 59.352H152.353C152.712 59.3521 153.056 59.4947 153.31 59.7485C153.564 60.0022 153.706 60.3463 153.707 60.7051V138.106Z" fill="#3F3D56"/>
<path d="M34.3569 69.3659C33.7146 69.3659 33.0868 69.1755 32.5527 68.8186C32.0186 68.4618 31.6024 67.9546 31.3566 67.3612C31.1108 66.7677 31.0465 66.1148 31.1718 65.4848C31.2971 64.8548 31.6064 64.2762 32.0606 63.822C32.5148 63.3678 33.0934 63.0585 33.7234 62.9332C34.3533 62.8079 35.0063 62.8722 35.5997 63.118C36.1932 63.3638 36.7004 63.78 37.0572 64.3141C37.4141 64.8482 37.6045 65.476 37.6045 66.1184C37.6035 66.9794 37.2611 67.8048 36.6522 68.4136C36.0434 69.0225 35.218 69.3649 34.3569 69.3659ZM34.3569 63.412C33.8217 63.412 33.2985 63.5708 32.8534 63.8681C32.4084 64.1655 32.0615 64.5882 31.8566 65.0827C31.6518 65.5772 31.5982 66.1214 31.7026 66.6463C31.8071 67.1713 32.0648 67.6535 32.4433 68.032C32.8218 68.4105 33.304 68.6682 33.829 68.7727C34.3539 68.8771 34.8981 68.8235 35.3926 68.6187C35.8871 68.4138 36.3098 68.067 36.6072 67.6219C36.9045 67.1769 37.0633 66.6536 37.0633 66.1184C37.0624 65.4008 36.7771 64.713 36.2697 64.2056C35.7623 63.6983 35.0745 63.4129 34.3569 63.412Z" fill="#705AFF"/>
<path d="M29.3088 66.1184C29.3089 65.4989 29.5022 64.8948 29.8618 64.3904C30.2214 63.886 30.7294 63.5063 31.315 63.3042C30.8666 63.1495 30.3877 63.1042 29.9183 63.172C29.4488 63.2399 29.0024 63.4189 28.6161 63.6943C28.2299 63.9696 27.915 64.3332 27.6978 64.7549C27.4805 65.1766 27.3672 65.644 27.3672 66.1184C27.3672 66.5927 27.4805 67.0602 27.6978 67.4818C27.915 67.9035 28.2299 68.2671 28.6161 68.5424C29.0024 68.8178 29.4488 68.9968 29.9183 69.0647C30.3877 69.1325 30.8666 69.0872 31.315 68.9325C30.7294 68.7304 30.2214 68.3507 29.8618 67.8463C29.5022 67.3419 29.3089 66.7378 29.3088 66.1184Z" fill="#705AFF"/>
<path d="M47.5216 104.488C46.8759 104.487 46.2568 104.23 45.8001 103.774C45.3435 103.317 45.0867 102.698 45.0859 102.052V94.7452C45.0859 94.0992 45.3425 93.4797 45.7993 93.0229C46.2561 92.5661 46.8756 92.3095 47.5216 92.3095C48.1676 92.3095 48.7871 92.5661 49.2439 93.0229C49.7007 93.4797 49.9573 94.0992 49.9573 94.7452V102.052C49.9566 102.698 49.6997 103.317 49.2431 103.774C48.7865 104.23 48.1674 104.487 47.5216 104.488Z" fill="#705AFF"/>
<path d="M54.0177 104.488C53.3719 104.487 52.7529 104.23 52.2962 103.774C51.8396 103.317 51.5828 102.698 51.582 102.052V94.7452C51.582 94.0992 51.8386 93.4797 52.2954 93.0229C52.7522 92.5661 53.3717 92.3095 54.0177 92.3095C54.6637 92.3095 55.2832 92.5661 55.74 93.0229C56.1968 93.4797 56.4534 94.0992 56.4534 94.7452V102.052C56.4526 102.698 56.1958 103.317 55.7392 103.774C55.2826 104.23 54.6635 104.487 54.0177 104.488Z" fill="#705AFF"/>
<path d="M60.5119 104.488C59.8661 104.487 59.247 104.23 58.7904 103.774C58.3338 103.317 58.0769 102.698 58.0762 102.052V94.7452C58.0762 94.0992 58.3328 93.4797 58.7896 93.0229C59.2463 92.5661 59.8659 92.3095 60.5119 92.3095C61.1578 92.3095 61.7774 92.5661 62.2341 93.0229C62.6909 93.4797 62.9475 94.0992 62.9475 94.7452V102.052C62.9468 102.698 62.6899 103.317 62.2333 103.774C61.7767 104.23 61.1576 104.487 60.5119 104.488Z" fill="#705AFF"/>
<path d="M70.5255 104.488C69.8798 104.487 69.2607 104.23 68.8041 103.774C68.3474 103.317 68.0906 102.698 68.0898 102.052V94.7452C68.0898 94.0992 68.3465 93.4797 68.8032 93.0229C69.26 92.5661 69.8795 92.3095 70.5255 92.3095C71.1715 92.3095 71.791 92.5661 72.2478 93.0229C72.7046 93.4797 72.9612 94.0992 72.9612 94.7452V102.052C72.9605 102.698 72.7036 103.317 72.247 103.774C71.7904 104.23 71.1713 104.487 70.5255 104.488Z" fill="#705AFF"/>
<path d="M77.0197 104.488C76.3739 104.487 75.7548 104.23 75.2982 103.774C74.8416 103.317 74.5847 102.698 74.584 102.052V94.7452C74.584 94.0992 74.8406 93.4797 75.2974 93.0229C75.7542 92.5661 76.3737 92.3095 77.0197 92.3095C77.6656 92.3095 78.2852 92.5661 78.7419 93.0229C79.1987 93.4797 79.4553 94.0992 79.4553 94.7452V102.052C79.4546 102.698 79.1978 103.317 78.7411 103.774C78.2845 104.23 77.6654 104.487 77.0197 104.488Z" fill="#705AFF"/>
<path d="M83.5158 104.488C82.87 104.487 82.2509 104.23 81.7943 103.774C81.3377 103.317 81.0808 102.698 81.0801 102.052V94.7452C81.0801 94.0992 81.3367 93.4797 81.7935 93.0229C82.2503 92.5661 82.8698 92.3095 83.5158 92.3095C84.1617 92.3095 84.7813 92.5661 85.238 93.0229C85.6948 93.4797 85.9514 94.0992 85.9514 94.7452V102.052C85.9507 102.698 85.6938 103.317 85.2372 103.774C84.7806 104.23 84.1615 104.487 83.5158 104.488Z" fill="#705AFF"/>
<path d="M93.5294 104.488C92.8837 104.487 92.2646 104.23 91.808 103.774C91.3514 103.317 91.0945 102.698 91.0938 102.052V94.7452C91.0938 94.0992 91.3504 93.4797 91.8071 93.0229C92.2639 92.5661 92.8834 92.3095 93.5294 92.3095C94.1754 92.3095 94.7949 92.5661 95.2517 93.0229C95.7085 93.4797 95.9651 94.0992 95.9651 94.7452V102.052C95.9644 102.698 95.7075 103.317 95.2509 103.774C94.7943 104.23 94.1752 104.487 93.5294 104.488Z" fill="#705AFF"/>
<path d="M100.024 104.488C99.3778 104.487 98.7587 104.23 98.3021 103.774C97.8455 103.317 97.5886 102.698 97.5879 102.052V94.7452C97.5879 94.0992 97.8445 93.4797 98.3013 93.0229C98.7581 92.5661 99.3776 92.3095 100.024 92.3095C100.67 92.3095 101.289 92.5661 101.746 93.0229C102.203 93.4797 102.459 94.0992 102.459 94.7452V102.052C102.459 102.698 102.202 103.317 101.745 103.774C101.288 104.23 100.669 104.487 100.024 104.488Z" fill="#705AFF"/>
<path d="M106.52 104.488C105.874 104.487 105.255 104.23 104.798 103.774C104.342 103.317 104.085 102.698 104.084 102.052V94.7452C104.084 94.0992 104.341 93.4797 104.797 93.0229C105.254 92.5661 105.874 92.3095 106.52 92.3095C107.166 92.3095 107.785 92.5661 108.242 93.0229C108.699 93.4797 108.955 94.0992 108.955 94.7452V102.052C108.955 102.698 108.698 103.317 108.241 103.774C107.785 104.23 107.165 104.487 106.52 104.488Z" fill="#705AFF"/>
<path d="M116.533 104.488C115.888 104.487 115.268 104.23 114.812 103.774C114.355 103.317 114.098 102.698 114.098 102.052V94.7452C114.098 94.0992 114.354 93.4797 114.811 93.0229C115.268 92.5661 115.887 92.3095 116.533 92.3095C117.179 92.3095 117.799 92.5661 118.256 93.0229C118.712 93.4797 118.969 94.0992 118.969 94.7452V102.052C118.968 102.698 118.711 103.317 118.255 103.774C117.798 104.23 117.179 104.487 116.533 104.488Z" fill="#705AFF"/>
<path d="M123.027 104.488C122.382 104.487 121.763 104.23 121.306 103.774C120.849 103.317 120.593 102.698 120.592 102.052V94.7452C120.592 94.0992 120.848 93.4797 121.305 93.0229C121.762 92.5661 122.381 92.3095 123.027 92.3095C123.673 92.3095 124.293 92.5661 124.75 93.0229C125.207 93.4797 125.463 94.0992 125.463 94.7452V102.052C125.462 102.698 125.206 103.317 124.749 103.774C124.292 104.23 123.673 104.487 123.027 104.488Z" fill="#705AFF"/>
<path d="M129.524 104.488C128.878 104.487 128.259 104.23 127.802 103.774C127.345 103.317 127.089 102.698 127.088 102.052V94.7452C127.088 94.0992 127.345 93.4797 127.801 93.0229C128.258 92.5661 128.878 92.3095 129.524 92.3095C130.17 92.3095 130.789 92.5661 131.246 93.0229C131.703 93.4797 131.959 94.0992 131.959 94.7452V102.052C131.959 102.698 131.702 103.317 131.245 103.774C130.788 104.23 130.169 104.487 129.524 104.488Z" fill="#705AFF"/>
<path d="M64.0344 131.596H29.0038C28.5697 131.596 28.1535 131.424 27.8465 131.117C27.5396 130.81 27.3672 130.394 27.3672 129.96C27.3672 129.525 27.5396 129.109 27.8465 128.802C28.1535 128.495 28.5697 128.323 29.0038 128.323H64.0344C64.4684 128.323 64.8847 128.495 65.1916 128.802C65.4985 129.109 65.6709 129.525 65.6709 129.96C65.6709 130.394 65.4985 130.81 65.1916 131.117C64.8847 131.424 64.4684 131.596 64.0344 131.596Z" fill="#E6E6E6"/>
<path d="M52.8044 124.56H40.2362C39.8022 124.56 39.3859 124.387 39.079 124.08C38.772 123.773 38.5996 123.357 38.5996 122.923C38.5996 122.489 38.772 122.073 39.079 121.766C39.3859 121.459 39.8022 121.287 40.2362 121.287H52.8044C53.2385 121.287 53.6547 121.459 53.9617 121.766C54.2686 122.073 54.441 122.489 54.441 122.923C54.441 123.357 54.2686 123.773 53.9617 124.08C53.6547 124.387 53.2385 124.56 52.8044 124.56Z" fill="#E6E6E6"/>
<path d="M153.609 74.9891H20.1875V75.5304H153.609V74.9891Z" fill="#3F3D56"/>
</g>
<defs>
<clipPath id="clip0_768_4614">
<rect width="153.494" height="140" fill="white" transform="translate(0.753906)"/>
</clipPath>
</defs>
</svg>
