<svg width="204" height="140" viewBox="0 0 204 140" fill="none" xmlns="http://www.w3.org/2000/svg">
<g clip-path="url(#clip0_747_7143)">
<path d="M182.52 0.0759735H79.5756C79.0236 0.0759735 78.5762 0.523446 78.5762 1.07543V139.001C78.5762 139.553 79.0236 140 79.5756 140H182.52C183.072 140 183.519 139.553 183.519 139.001V1.07543C183.519 0.523446 183.072 0.0759735 182.52 0.0759735Z" fill="white"/>
<path d="M182.52 140H79.5756C79.3106 140 79.0566 139.894 78.8692 139.707C78.6819 139.52 78.5765 139.265 78.5762 139.001V1.07539C78.5765 0.810405 78.6819 0.556366 78.8692 0.368997C79.0566 0.181628 79.3106 0.0762306 79.5756 0.0759277H182.52C182.785 0.0762306 183.039 0.181628 183.226 0.368997C183.413 0.556366 183.519 0.810405 183.519 1.07539V139.001C183.519 139.265 183.413 139.52 183.226 139.707C183.039 139.894 182.785 140 182.52 140ZM79.5756 0.575656C79.4431 0.575798 79.3161 0.628493 79.2224 0.722179C79.1287 0.815866 79.076 0.942892 79.0759 1.07539V139.001C79.076 139.133 79.1287 139.26 79.2224 139.354C79.3161 139.447 79.4431 139.5 79.5756 139.5H182.52C182.652 139.5 182.779 139.447 182.873 139.354C182.967 139.26 183.019 139.133 183.019 139.001V1.07539C183.019 0.942892 182.967 0.815866 182.873 0.722179C182.779 0.628493 182.652 0.575798 182.52 0.575656H79.5756Z" fill="#CACACA"/>
<path d="M167.775 31.402H94.3154C93.8184 31.402 93.3417 31.2045 92.9903 30.8531C92.6388 30.5016 92.4414 30.025 92.4414 29.528C92.4414 29.031 92.6388 28.5543 92.9903 28.2029C93.3417 27.8514 93.8184 27.654 94.3154 27.654H167.775C168.273 27.654 168.749 27.8514 169.101 28.2029C169.452 28.5543 169.649 29.031 169.649 29.528C169.649 30.025 169.452 30.5016 169.101 30.8531C168.749 31.2045 168.273 31.402 167.775 31.402Z" fill="#E6E6E6"/>
<path d="M167.775 43.5204H94.3154C93.8184 43.5204 93.3417 43.3229 92.9903 42.9715C92.6388 42.6201 92.4414 42.1434 92.4414 41.6464C92.4414 41.1494 92.6388 40.6727 92.9903 40.3213C93.3417 39.9698 93.8184 39.7724 94.3154 39.7724H167.775C168.273 39.7724 168.749 39.9698 169.101 40.3213C169.452 40.6727 169.649 41.1494 169.649 41.6464C169.649 42.1434 169.452 42.6201 169.101 42.9715C168.749 43.3229 168.273 43.5204 167.775 43.5204Z" fill="#E6E6E6"/>
<path d="M167.775 55.6388H94.3154C93.8184 55.6388 93.3417 55.4414 92.9903 55.0899C92.6388 54.7385 92.4414 54.2618 92.4414 53.7648C92.4414 53.2678 92.6388 52.7912 92.9903 52.4397C93.3417 52.0883 93.8184 51.8908 94.3154 51.8908H167.775C168.273 51.8908 168.749 52.0883 169.101 52.4397C169.452 52.7912 169.649 53.2678 169.649 53.7648C169.649 54.2618 169.452 54.7385 169.101 55.0899C168.749 55.4414 168.273 55.6388 167.775 55.6388Z" fill="#E6E6E6"/>
<path d="M167.775 67.7572H94.3154C93.8184 67.7572 93.3417 67.5598 92.9903 67.2083C92.6388 66.8569 92.4414 66.3802 92.4414 65.8832C92.4414 65.3862 92.6388 64.9096 92.9903 64.5581C93.3417 64.2067 93.8184 64.0093 94.3154 64.0093H167.775C168.273 64.0093 168.749 64.2067 169.101 64.5581C169.452 64.9096 169.649 65.3862 169.649 65.8832C169.649 66.3802 169.452 66.8569 169.101 67.2083C168.749 67.5598 168.273 67.7572 167.775 67.7572Z" fill="#E6E6E6"/>
<path d="M167.775 79.8756H94.3154C93.8184 79.8756 93.3417 79.6782 92.9903 79.3268C92.6388 78.9753 92.4414 78.4987 92.4414 78.0017C92.4414 77.5046 92.6388 77.028 92.9903 76.6766C93.3417 76.3251 93.8184 76.1277 94.3154 76.1277H167.775C168.273 76.1277 168.749 76.3251 169.101 76.6766C169.452 77.028 169.649 77.5046 169.649 78.0017C169.649 78.4987 169.452 78.9753 169.101 79.3268C168.749 79.6782 168.273 79.8756 167.775 79.8756Z" fill="#E6E6E6"/>
<path d="M94.2158 54.7579C94.1709 54.9144 94.1384 55.0741 94.1186 55.2356L81.098 61.8077L78.1307 59.8713L74.623 63.9676L79.543 67.9061C79.9405 68.2243 80.4305 68.4049 80.9393 68.4209C81.4482 68.4369 81.9486 68.2875 82.3653 67.9949L95.9458 58.4603C96.5207 58.7104 97.158 58.7796 97.7732 58.6586C98.3883 58.5376 98.952 58.2322 99.3893 57.783C99.8266 57.3338 100.117 56.7621 100.221 56.144C100.326 55.5259 100.24 54.8906 99.9742 54.3226C99.7088 53.7546 99.2768 53.2809 98.7356 52.9645C98.1944 52.648 97.5697 52.5039 96.9446 52.5511C96.3195 52.5984 95.7236 52.8348 95.2361 53.229C94.7486 53.6232 94.3928 54.1565 94.2158 54.7579Z" fill="#FFB6B6"/>
<path d="M80.6718 62.0559L76.3555 67.1594C76.2327 67.3047 76.08 67.4217 75.9079 67.5026C75.7358 67.5835 75.5482 67.6263 75.3581 67.6282C75.1679 67.6301 74.9795 67.5909 74.8059 67.5134C74.6322 67.436 74.4772 67.322 74.3516 67.1792L69.9491 62.1768C69.2093 61.5443 68.7507 60.6443 68.6736 59.6741C68.5966 58.7039 68.9075 57.7428 69.5382 57.0015C70.1688 56.2603 71.0678 55.7994 72.0377 55.72C73.0077 55.6406 73.9696 55.9492 74.7124 56.5781L80.3587 60.0765C80.5203 60.1767 80.6585 60.3106 80.7637 60.469C80.8689 60.6274 80.9388 60.8067 80.9685 60.9945C80.9982 61.1824 80.9871 61.3744 80.9359 61.5576C80.8847 61.7407 80.7946 61.9107 80.6718 62.0559Z" fill="#705AFF"/>
<path d="M64.4185 136.867H67.4818L68.939 125.051H64.418L64.4185 136.867Z" fill="#FFB6B6"/>
<path d="M63.6367 135.867L69.6695 135.866C70.6891 135.866 71.6671 136.271 72.3881 136.992C73.1091 137.713 73.5142 138.691 73.5142 139.711V139.836L63.6369 139.836L63.6367 135.867Z" fill="#2F2E41"/>
<path d="M63.7285 103.963L64.5995 106.9L76.3419 104.938L75.0561 100.603L63.7285 103.963Z" fill="#FFB6B6"/>
<path d="M64.4638 102.929L66.1793 108.713C66.4692 109.691 66.3589 110.744 65.8727 111.64C65.3865 112.536 64.5642 113.202 63.5867 113.492L63.4669 113.528L60.6582 104.058L64.4638 102.929Z" fill="#2F2E41"/>
<path d="M168.407 107.125H119.671C118.984 107.125 118.428 106.286 118.428 105.251C118.428 104.216 118.984 103.377 119.671 103.377H168.407C169.093 103.377 169.65 104.216 169.65 105.251C169.65 106.286 169.093 107.125 168.407 107.125Z" fill="#E6E6E6"/>
<path d="M168.407 117.869H119.671C118.984 117.869 118.428 117.03 118.428 115.995C118.428 114.96 118.984 114.121 119.671 114.121H168.407C169.093 114.121 169.65 114.96 169.65 115.995C169.65 117.03 169.093 117.869 168.407 117.869Z" fill="#E6E6E6"/>
<path d="M95.3753 97.9206C94.9332 98.6575 94.3091 99.2683 93.5629 99.6946C92.8167 100.121 91.9734 100.348 91.1141 100.355L72.7031 106.249L71.8613 101.366L83.0095 95.317L72.2086 87.538L80.1218 78.278L94.4945 91.674C95.3344 92.4569 95.8801 93.5044 96.0405 94.6414C96.2008 95.7784 95.966 96.9359 95.3753 97.9206Z" fill="#2F2E41"/>
<path d="M68.6735 131.312H64.1277C60.0462 103.335 55.8917 75.2801 68.1685 64.8083L82.6479 67.1655L80.7959 79.4561L72.7146 88.7161L68.6735 131.312Z" fill="#2F2E41"/>
<path d="M81.7627 72.2345C75.6345 76.4105 67.7183 75.4286 64.4141 69.2062C69.1615 61.2106 70.1609 55.4637 66.3393 52.8401C65.7269 50.6563 65.9554 48.3224 66.9798 46.2989C68.0042 44.2755 69.75 42.7096 71.8726 41.9105L79.1121 44.9411C85.2588 49.9519 86.4694 55.3794 84.1631 61.1041L81.7627 72.2345Z" fill="#705AFF"/>
<path d="M203.068 139.5H0.927734V140H203.068V139.5Z" fill="#CACACA"/>
<path d="M39.2417 128.106C40.1713 128.433 41.1694 128.515 42.1399 128.344C43.1103 128.173 44.0204 127.755 44.7824 127.13C46.7231 125.501 47.331 122.818 47.8265 120.334L49.2907 112.984L46.2254 115.094C44.0208 116.612 41.7663 118.179 40.2399 120.378C38.7134 122.577 38.0471 125.578 39.2736 127.958" fill="#E6E6E6"/>
<path d="M39.7164 137.515C39.3296 134.704 38.9335 131.857 39.2046 129.015C39.445 126.492 40.2149 124.027 41.7823 122.006C42.6142 120.936 43.6265 120.018 44.7736 119.295C45.0735 119.107 45.3483 119.581 45.0502 119.769C43.0653 121.023 41.5301 122.876 40.6659 125.059C39.7114 127.487 39.558 130.133 39.7226 132.713C39.8226 134.272 40.033 135.822 40.2453 137.369C40.2621 137.439 40.2517 137.513 40.2161 137.576C40.1806 137.638 40.1226 137.685 40.0539 137.706C39.9839 137.726 39.9091 137.716 39.8459 137.68C39.7828 137.644 39.7364 137.585 39.7169 137.515H39.7164Z" fill="#F2F2F2"/>
<path d="M15.125 133.316C15.5985 133.875 16.208 134.303 16.8949 134.558C17.5817 134.814 18.3228 134.888 19.0466 134.774C20.9041 134.459 22.3039 132.966 23.5559 131.558L27.2602 127.394L24.4994 127.595C22.5142 127.74 20.4786 127.897 18.6723 128.734C16.8661 129.57 15.3097 131.245 15.2017 133.233" fill="#E6E6E6"/>
<path d="M11.9487 139.123C12.5996 137.556 13.256 135.967 14.2547 134.584C15.1114 133.33 16.3074 132.347 17.7028 131.748C18.4556 131.448 19.2551 131.281 20.0653 131.255C20.2767 131.248 20.2754 131.576 20.0653 131.583C18.6621 131.629 17.3101 132.121 16.2041 132.985C14.9775 133.949 14.0983 135.268 13.4031 136.648C12.9829 137.482 12.6231 138.345 12.2648 139.207C12.2522 139.248 12.2247 139.283 12.1876 139.305C12.1505 139.326 12.1067 139.333 12.0649 139.323C12.023 139.312 11.9873 139.284 11.9656 139.247C11.9438 139.209 11.9377 139.165 11.9487 139.123Z" fill="#F2F2F2"/>
<path d="M42.4941 133.005C42.8928 133.611 43.4409 134.104 44.0855 134.436C44.7301 134.769 45.4495 134.93 46.1744 134.904C48.0374 134.815 49.5905 133.515 50.9885 132.28L55.1238 128.629L52.387 128.498C50.4188 128.404 48.3999 128.316 46.5252 128.923C44.6505 129.53 42.9217 130.99 42.5788 132.931" fill="#E6E6E6"/>
<path d="M38.6259 139.131C40.4834 135.844 42.6382 132.191 46.4881 131.024C47.5586 130.7 48.6811 130.584 49.7951 130.682C50.1461 130.712 50.0584 131.253 49.7081 131.223C47.8408 131.068 45.9771 131.561 44.4307 132.62C42.9428 133.632 41.7842 135.04 40.8035 136.534C40.2038 137.449 39.6648 138.402 39.1266 139.354C38.9547 139.659 38.452 139.439 38.6259 139.131Z" fill="#F2F2F2"/>
<path d="M198.227 134.008C197.51 134.261 196.74 134.324 195.991 134.192C195.242 134.06 194.54 133.738 193.952 133.255C192.454 131.998 191.984 129.927 191.603 128.01L190.473 122.338L192.839 123.967C194.54 125.139 196.28 126.348 197.458 128.044C198.635 129.741 199.15 132.058 198.203 133.894" fill="#E6E6E6"/>
<path d="M197.573 139.392C197.781 137.876 197.995 136.341 197.849 134.809C197.754 133.443 197.272 132.132 196.459 131.029C196.01 130.452 195.464 129.957 194.846 129.568C194.684 129.466 194.536 129.722 194.696 129.823C195.766 130.499 196.594 131.498 197.06 132.675C197.575 133.985 197.657 135.412 197.569 136.802C197.515 137.644 197.401 138.479 197.287 139.313C197.278 139.351 197.283 139.391 197.303 139.425C197.322 139.458 197.353 139.483 197.39 139.495C197.428 139.505 197.468 139.5 197.502 139.48C197.536 139.461 197.561 139.429 197.572 139.392L197.573 139.392Z" fill="#F2F2F2"/>
<path d="M59.1407 77.1686C59.523 77.0798 59.8811 76.9083 60.1899 76.6661C60.4987 76.424 60.7506 76.1171 60.928 75.767C61.1053 75.417 61.2037 75.0323 61.2163 74.6401C61.2289 74.2479 61.1554 73.8577 61.0008 73.497L70.8961 51.1411L65.2355 49.7153L57.2888 72.1388C56.7 72.4385 56.2416 72.9438 56.0006 73.5589C55.7595 74.1741 55.7524 74.8562 55.9807 75.4762C56.2089 76.0962 56.6567 76.6109 57.2391 76.9228C57.8215 77.2347 58.4981 77.3222 59.1407 77.1686Z" fill="#FFB6B6"/>
<path d="M69.5541 55.1393L64.0488 52.5623C63.8921 52.4889 63.7531 52.3827 63.6412 52.2508C63.5294 52.119 63.4472 51.9645 63.4004 51.798C63.3536 51.6315 63.3432 51.4569 63.37 51.286C63.3967 51.1151 63.46 50.952 63.5555 50.8078L66.9013 45.7549C67.2813 44.9561 67.9624 44.3406 68.7955 44.0431C69.6285 43.7457 70.5455 43.7905 71.3455 44.1678C72.1455 44.5452 72.7633 45.2243 73.0636 46.0563C73.3639 46.8883 73.3221 47.8054 72.9475 48.6067L71.2174 54.3943C71.1678 54.56 71.0831 54.713 70.969 54.843C70.8549 54.973 70.7142 55.0769 70.5563 55.1476C70.3985 55.2183 70.2273 55.2542 70.0543 55.2527C69.8814 55.2513 69.7108 55.2126 69.5541 55.1393Z" fill="#705AFF"/>
<path d="M81.7669 40.2645H67.2748C66.9767 40.2641 66.6909 40.1456 66.4801 39.9348C66.2693 39.724 66.1507 39.4382 66.1504 39.1401V32.8935C66.1504 30.6735 67.0323 28.5444 68.602 26.9747C70.1718 25.4049 72.3009 24.523 74.5208 24.523C76.7408 24.523 78.8699 25.4049 80.4396 26.9747C82.0094 28.5444 82.8913 30.6735 82.8913 32.8935V39.1401C82.891 39.4382 82.7724 39.724 82.5616 39.9348C82.3508 40.1456 82.065 40.2641 81.7669 40.2645Z" fill="#2F2E41"/>
<path d="M76.5881 40.1695C79.9774 40.1695 82.725 37.4219 82.725 34.0326C82.725 30.6433 79.9774 27.8957 76.5881 27.8957C73.1988 27.8957 70.4512 30.6433 70.4512 34.0326C70.4512 37.4219 73.1988 40.1695 76.5881 40.1695Z" fill="#FFB6B6"/>
<path d="M84.871 33.5181H76.0095L75.9186 32.2459L75.4642 33.5181H74.0997L73.9196 30.9965L73.0191 33.5181H70.3789V33.3932C70.3809 31.6377 71.0791 29.9547 72.3204 28.7133C73.5617 27.472 75.2448 26.7738 77.0002 26.7718H78.2496C80.0051 26.7738 81.6882 27.472 82.9295 28.7133C84.1708 29.9547 84.8691 31.6377 84.871 33.3932V33.5181Z" fill="#2F2E41"/>
</g>
<defs>
<clipPath id="clip0_747_7143">
<rect width="202.835" height="140" fill="white" transform="translate(0.582031)"/>
</clipPath>
</defs>
</svg>
