<svg width="188" height="140" viewBox="0 0 188 140" fill="none" xmlns="http://www.w3.org/2000/svg">
<g clip-path="url(#clip0_800_5506)">
<path d="M137.119 133.021H133.392L131.618 118.646H137.119V133.021Z" fill="#9E616A"/>
<path d="M139.087 139.479H136.414L135.937 136.956L134.715 139.479H127.626C127.286 139.479 126.955 139.37 126.681 139.169C126.408 138.968 126.206 138.684 126.104 138.36C126.003 138.035 126.009 137.687 126.119 137.366C126.23 137.045 126.441 136.767 126.72 136.574L132.381 132.664V130.113L138.336 130.469L139.087 139.479Z" fill="#2F2E41"/>
<path d="M159.262 128.317L156.271 130.541L146.27 120.064L150.684 116.781L159.262 128.317Z" fill="#9E616A"/>
<path d="M164.693 132.325L162.549 133.92L160.66 132.18L161.185 134.934L155.497 139.164C155.224 139.367 154.894 139.477 154.554 139.479C154.214 139.481 153.883 139.374 153.608 139.174C153.333 138.974 153.13 138.691 153.027 138.367C152.924 138.043 152.927 137.695 153.037 137.373L155.246 130.858L153.724 128.811L158.714 125.543L164.693 132.325Z" fill="#2F2E41"/>
<path d="M141.458 58.8496C141.458 58.8496 148.53 64.9591 145.267 82.3757L141.284 99.4411L154.274 120.992L150.132 126.031L133.244 102.705L127.124 88.3495L125.407 62.8004L141.458 58.8496Z" fill="#2F2E41"/>
<path d="M130.498 92.4404L130.072 99.0276L131.374 127.098L137.499 126.031L138.669 106.046L130.498 92.4404Z" fill="#2F2E41"/>
<path d="M51.8969 136.401L55.23 136.401L56.8155 123.545L51.8965 123.545L51.8969 136.401Z" fill="#FFB6B6"/>
<path d="M51.0469 135.313L51.985 135.313L55.6477 133.823L57.6108 135.313H57.611C58.7204 135.313 59.7843 135.753 60.5688 136.538C61.3533 137.322 61.794 138.386 61.7941 139.496V139.631L51.0471 139.632L51.0469 135.313Z" fill="#2F2E41"/>
<path d="M64.8135 134.301L68.0645 135.035L72.4431 122.844L67.6448 121.761L64.8135 134.301Z" fill="#FFB6B6"/>
<path d="M64.2237 133.052L65.1388 133.258L69.0396 132.612L70.6264 134.497L70.6267 134.498C71.7088 134.742 72.6495 135.406 73.2419 136.344C73.8343 137.282 74.0298 138.417 73.7855 139.499L73.7556 139.632L63.2725 137.265L64.2237 133.052Z" fill="#2F2E41"/>
<path d="M47.6758 57.8066C46.1131 62.5197 46.2783 67.6355 48.0514 73.1262L48.8094 104.04C48.8094 104.04 47.6801 124.313 51.3241 131.447H56.609L59.2256 102.189L59.5542 82.5507L70.8843 99.1187L63.6678 130.969L70.1722 131.55L81.8827 96.9855L67.4343 63.4519L47.6758 57.8066Z" fill="#2F2E41"/>
<path d="M108.622 44.3824C112.665 40.7397 118.677 38.9082 123.721 40.9507C118.547 43.823 114.556 48.4327 112.454 53.9641C111.651 56.1003 110.981 58.5599 109.006 59.7035C107.777 60.4152 106.248 60.4499 104.871 60.1064C103.493 59.7628 102.23 59.0742 100.984 58.3924L100.63 58.3844C102.221 53.1807 104.58 48.025 108.622 44.3824Z" fill="#E6E6E6"/>
<path d="M123.692 41.0613C119.226 41.6386 115.054 43.6086 111.771 46.6915C111.052 47.3427 110.441 48.103 109.959 48.9446C109.516 49.7795 109.305 50.7178 109.347 51.662C109.369 52.5432 109.493 53.442 109.3 54.3132C109.195 54.7576 108.997 55.1748 108.719 55.5373C108.442 55.8999 108.09 56.1996 107.688 56.4168C106.701 56.9842 105.569 57.163 104.456 57.2995C103.22 57.4509 101.934 57.5887 100.864 58.2819C100.735 58.3659 100.612 58.1599 100.742 58.076C102.603 56.8699 104.958 57.3088 106.959 56.5039C107.893 56.1283 108.72 55.469 109.012 54.4722C109.268 53.6005 109.14 52.6735 109.111 51.7815C109.056 50.861 109.227 49.9411 109.61 49.1021C110.047 48.2387 110.628 47.4561 111.328 46.7877C112.881 45.2578 114.663 43.9815 116.612 43.0054C118.83 41.8791 121.223 41.1405 123.69 40.8215C123.843 40.8018 123.844 41.0418 123.692 41.0613Z" fill="white"/>
<path d="M112.769 45.6363C112.327 45.0152 112.12 44.2571 112.185 43.4972C112.249 42.7374 112.582 42.0254 113.124 41.4884C113.234 41.3801 113.407 41.5458 113.297 41.6543C112.792 42.1534 112.482 42.8167 112.423 43.5244C112.364 44.232 112.56 44.9375 112.975 45.5134C113.065 45.6387 112.859 45.7609 112.769 45.6363Z" fill="white"/>
<path d="M109.277 51.2167C110.812 51.4887 112.393 51.1721 113.705 50.3301C113.835 50.2466 113.958 50.4526 113.828 50.536C112.461 51.4097 110.815 51.7358 109.219 51.4493C109.066 51.4218 109.126 51.1895 109.277 51.2167Z" fill="white"/>
<path d="M118.849 42.1969C118.971 42.4729 119.158 42.7145 119.396 42.9C119.633 43.0854 119.913 43.209 120.21 43.2596C120.363 43.2851 120.303 43.5174 120.152 43.4921C119.824 43.4347 119.515 43.2979 119.252 43.0935C118.989 42.8892 118.78 42.6235 118.643 42.3198C118.628 42.2923 118.624 42.26 118.632 42.2294C118.639 42.1989 118.658 42.1724 118.685 42.1554C118.712 42.1393 118.745 42.1346 118.776 42.1423C118.806 42.1501 118.833 42.1697 118.849 42.1969Z" fill="white"/>
<path d="M129.274 58.5168C129.179 58.5036 129.083 58.4904 128.986 58.4787C127.699 58.3079 126.401 58.2419 125.103 58.2814C125.003 58.2829 124.901 58.2859 124.801 58.2902C121.676 58.4187 118.602 59.1262 115.736 60.3768C114.596 60.8755 113.495 61.4602 112.444 62.1259C110.992 63.0453 109.49 64.1577 107.867 64.5327C107.698 64.5737 107.527 64.6042 107.354 64.624L100.648 58.8169C100.639 58.796 100.629 58.7767 100.62 58.7557L100.342 58.5361C100.394 58.498 100.448 58.4596 100.5 58.4215C100.53 58.3992 100.561 58.3783 100.591 58.3561C100.612 58.3416 100.632 58.3273 100.65 58.3131C100.657 58.3083 100.664 58.3035 100.669 58.3002C100.687 58.286 100.705 58.2747 100.721 58.2621C101.026 58.0465 101.332 57.8326 101.641 57.6206C101.642 57.619 101.642 57.619 101.645 57.6188C103.981 55.9803 106.502 54.6247 109.158 53.5804C109.237 53.5503 109.318 53.5186 109.401 53.4912C110.597 53.0466 111.827 52.7004 113.079 52.4562C113.765 52.3247 114.457 52.228 115.153 52.1665C116.951 52.011 118.763 52.1394 120.521 52.5468C124.026 53.3596 127.232 55.2843 129.131 58.286C129.18 58.3628 129.227 58.4384 129.274 58.5168Z" fill="#E6E6E6"/>
<path d="M129.185 58.589C125.271 56.3606 120.755 55.4221 116.277 55.9068C115.311 55.994 114.365 56.233 113.474 56.6148C112.617 57.0148 111.884 57.6368 111.349 58.4162C110.836 59.1329 110.394 59.9255 109.716 60.505C109.364 60.7965 108.955 61.0103 108.515 61.1325C108.075 61.2547 107.614 61.2825 107.162 61.2141C106.032 61.0728 105.021 60.5341 104.05 59.9728C102.972 59.3497 101.862 58.6854 100.591 58.5948C100.437 58.5838 100.463 58.3454 100.616 58.3563C102.829 58.514 104.445 60.2824 106.528 60.8447C107.499 61.107 108.556 61.0782 109.39 60.4584C110.119 59.9164 110.575 59.0995 111.088 58.3693C111.599 57.6013 112.29 56.97 113.1 56.5305C113.969 56.1045 114.905 55.8295 115.866 55.7174C118.026 55.4302 120.218 55.4846 122.362 55.8784C124.81 56.3142 127.166 57.1658 129.328 58.3962C129.462 58.4724 129.318 58.6647 129.185 58.589Z" fill="white"/>
<path d="M117.71 55.6662C117.731 54.9038 118.022 54.1737 118.531 53.6061C119.04 53.0385 119.735 52.6705 120.49 52.5676C120.643 52.5474 120.682 52.7841 120.529 52.8044C119.825 52.8989 119.178 53.2418 118.705 53.7713C118.232 54.3008 117.963 54.982 117.948 55.692C117.945 55.8462 117.707 55.8196 117.71 55.6662Z" fill="white"/>
<path d="M111.562 58.0186C112.623 59.1599 114.076 59.8591 115.631 59.9767C115.785 59.9882 115.759 60.2266 115.605 60.2151C113.988 60.0897 112.477 59.3591 111.375 58.169C111.27 58.0554 111.457 57.9057 111.562 58.0186Z" fill="white"/>
<path d="M124.635 56.5797C124.565 56.873 124.57 57.179 124.648 57.4701C124.726 57.7612 124.875 58.0284 125.082 58.2477C125.188 58.3598 125.001 58.5095 124.895 58.3981C124.668 58.1547 124.503 57.8594 124.416 57.538C124.329 57.2165 124.323 56.8787 124.396 56.5539C124.401 56.5227 124.417 56.4944 124.441 56.4746C124.466 56.4549 124.497 56.4452 124.529 56.4476C124.56 56.4512 124.589 56.4671 124.609 56.4918C124.629 56.5166 124.638 56.5482 124.635 56.5797Z" fill="white"/>
<path d="M11.4746 136.168C11.1597 137.349 10.3325 138.332 9.33369 139.049C9.17085 139.166 9.00366 139.275 8.83431 139.377C8.7822 139.407 8.73008 139.44 8.6758 139.468C8.61718 139.503 8.55855 139.535 8.49993 139.566H3.80349C3.71881 139.394 3.6363 139.22 3.55379 139.049C1.54103 134.819 0.12754 130.255 0.36855 125.606C0.464168 123.803 0.842983 122.027 1.49109 120.341C2.78082 116.982 5.13447 114.075 8.37183 112.611C8.45216 112.575 8.53684 112.538 8.61935 112.503C8.5933 112.596 8.56724 112.687 8.54118 112.781C8.19387 114.032 7.94844 115.309 7.8073 116.6C7.79427 116.7 7.78341 116.8 7.77473 116.902C7.46627 120.015 7.74017 123.158 8.58244 126.171C8.58461 126.178 8.58677 126.186 8.58895 126.193C8.77352 126.859 8.98775 127.516 9.23164 128.162C9.42272 128.672 9.62899 129.176 9.8548 129.671C10.7971 131.749 12.0608 133.964 11.4746 136.168Z" fill="#E6E6E6"/>
<path d="M8.67802 112.601C8.63242 112.662 8.58681 112.72 8.54122 112.781C7.58757 114.045 6.77775 115.411 6.12678 116.854C6.09204 116.926 6.05947 116.998 6.03124 117.071C5.13928 119.087 4.56645 121.229 4.33332 123.42C4.33079 123.435 4.32934 123.451 4.32898 123.466C4.27469 123.978 4.24212 124.495 4.2291 125.012C4.18081 125.98 4.2856 126.951 4.53958 127.886C4.77117 128.651 5.17699 129.351 5.7251 129.932C5.77938 129.99 5.83366 130.049 5.89228 130.106C5.93571 130.151 5.98347 130.197 6.02907 130.24C6.46767 130.659 6.94752 131.048 7.36006 131.497C7.54914 131.699 7.7199 131.917 7.8703 132.149C8.11034 132.537 8.2654 132.972 8.32527 133.425C8.38515 133.878 8.34849 134.338 8.21771 134.776C7.92241 135.875 7.24715 136.802 6.55669 137.685C6.21146 138.128 5.85537 138.576 5.54705 139.049C5.43416 139.218 5.32993 139.39 5.2344 139.566H4.96082C5.05202 139.39 5.1519 139.218 5.26046 139.049C6.05297 137.8 7.17986 136.728 7.76393 135.353C8.15909 134.426 8.27852 133.375 7.77913 132.466C7.63276 132.201 7.45566 131.955 7.25151 131.732C6.85417 131.282 6.37866 130.898 5.94658 130.492C5.83802 130.39 5.73162 130.286 5.62957 130.177C5.08854 129.627 4.67104 128.969 4.40498 128.245C4.10367 127.325 3.96122 126.361 3.98375 125.394C3.98375 124.777 4.01633 124.156 4.07712 123.54C4.08363 123.461 4.09232 123.381 4.10101 123.301C4.54504 119.42 6.0197 115.73 8.37188 112.612C8.4153 112.551 8.4609 112.492 8.5065 112.434C8.59985 112.312 8.77138 112.481 8.67802 112.601Z" fill="white"/>
<path d="M4.18831 123.56C3.43625 123.434 2.75358 123.044 2.26221 122.461C1.77084 121.878 1.50278 121.139 1.50589 120.376C1.5063 120.345 1.51877 120.315 1.54067 120.293C1.56256 120.271 1.59218 120.259 1.62327 120.258C1.65436 120.257 1.6845 120.269 1.70734 120.29C1.73018 120.311 1.74394 120.34 1.74571 120.371C1.74151 121.081 1.99128 121.769 2.44995 122.311C2.90862 122.854 3.54597 123.214 4.24698 123.327C4.39928 123.352 4.33975 123.585 4.18831 123.56Z" fill="white"/>
<path d="M5.66447 129.976C6.94217 129.083 7.83632 127.741 8.16862 126.218C8.20142 126.067 8.43391 126.126 8.40116 126.277C8.05241 127.861 7.11907 129.255 5.78742 130.182C5.66043 130.27 5.53817 130.064 5.66447 129.976Z" fill="white"/>
<path d="M6.05471 116.829C6.33552 116.938 6.63912 116.976 6.93827 116.94C7.23741 116.903 7.52273 116.792 7.76859 116.618C7.89439 116.528 8.01652 116.735 7.89153 116.824C7.619 117.015 7.30375 117.137 6.97333 117.178C6.64291 117.22 6.30738 117.18 5.99604 117.061C5.96576 117.053 5.93992 117.033 5.92377 117.006C5.90763 116.979 5.90238 116.947 5.90911 116.916C5.91703 116.885 5.93677 116.859 5.96404 116.842C5.9913 116.826 6.02389 116.821 6.05471 116.829Z" fill="white"/>
<path d="M24.9672 120.997C24.8912 121.056 24.8131 121.115 24.7371 121.176C23.7062 121.964 22.7412 122.836 21.8515 123.781C21.782 123.853 21.7125 123.927 21.6452 124L21.643 124.003C19.5334 126.293 17.8654 128.953 16.7229 131.849L16.7164 131.869C16.7143 131.876 16.7121 131.88 16.7099 131.886C16.2571 133.046 15.892 134.238 15.6178 135.452C15.3529 136.637 15.1357 137.907 14.721 139.049C14.6581 139.225 14.5886 139.399 14.5148 139.566H4.86133C4.8939 139.395 4.92864 139.221 4.96338 139.049C5.45444 136.533 6.22193 134.08 7.25189 131.732C7.28663 131.654 7.32137 131.576 7.36045 131.498C7.89215 130.338 8.51737 129.223 9.22991 128.165L9.23006 128.164L9.23053 128.163L9.23124 128.163L9.23208 128.163C9.62334 127.585 10.0437 127.028 10.4914 126.493C11.6526 125.111 13.0243 123.921 14.556 122.967C14.5647 122.96 14.5756 122.956 14.5842 122.949C17.6327 121.058 21.2457 120.157 24.7002 120.937H24.7023C24.7914 120.956 24.8782 120.976 24.9672 120.997Z" fill="#E6E6E6"/>
<path d="M24.9562 121.112C24.8824 121.132 24.8086 121.154 24.7369 121.175C23.2152 121.61 21.7464 122.212 20.3575 122.971C20.288 123.008 20.2185 123.047 20.149 123.086C18.2295 124.157 16.4872 125.519 14.9836 127.122C14.9824 127.124 14.9816 127.125 14.9814 127.127C14.964 127.144 14.9445 127.164 14.9293 127.181C14.5819 127.554 14.2475 127.943 13.9305 128.343C13.3104 129.088 12.8108 129.925 12.4497 130.824C12.1738 131.574 12.0764 132.378 12.1653 133.172C12.1718 133.252 12.1827 133.33 12.1935 133.41C12.2022 133.473 12.2109 133.536 12.2217 133.601C12.365 134.472 12.6126 135.345 12.5431 136.233C12.5008 136.688 12.3627 137.129 12.1378 137.527C11.9129 137.925 11.6063 138.27 11.2382 138.541C10.9879 138.735 10.7205 138.905 10.4391 139.049C10.0369 139.257 9.61778 139.429 9.18632 139.566H8.33301C8.44808 139.533 8.56099 139.501 8.67607 139.468C9.08443 139.353 9.4854 139.213 9.87678 139.049C10.1004 138.956 10.3179 138.848 10.5282 138.728C11.401 138.226 12.1284 137.458 12.2804 136.431C12.4128 135.532 12.1566 134.633 12.0046 133.753C11.9786 133.601 11.9547 133.452 11.9416 133.302C11.838 132.54 11.9009 131.765 12.1262 131.031C12.4386 130.114 12.9057 129.258 13.5071 128.499C13.8792 128.005 14.2763 127.53 14.697 127.077C14.7491 127.018 14.8034 126.96 14.8598 126.901C16.395 125.286 18.1676 123.915 20.1165 122.834H20.1186C21.5677 122.027 23.105 121.391 24.7 120.936H24.7022C24.7738 120.915 24.8476 120.893 24.9193 120.873C25.0691 120.834 25.1038 121.071 24.9562 121.112Z" fill="white"/>
<path d="M14.7735 127.159C14.249 126.606 13.9385 125.884 13.8973 125.122C13.8561 124.361 14.0869 123.609 14.5485 123.002C14.6423 122.88 14.8371 123.02 14.7431 123.143C14.3122 123.707 14.0973 124.407 14.1371 125.116C14.177 125.825 14.4689 126.496 14.9603 127.009C15.067 127.121 14.8795 127.27 14.7735 127.159Z" fill="white"/>
<path d="M12.0902 133.17C13.6481 133.226 15.1699 132.693 16.3523 131.677C16.4693 131.577 16.6195 131.764 16.5026 131.864C15.2703 132.919 13.6855 133.471 12.0644 133.409C11.9099 133.403 11.9366 133.164 12.0902 133.17Z" fill="white"/>
<path d="M20.3163 122.908C20.4746 123.164 20.6941 123.377 20.9551 123.528C21.2161 123.679 21.5105 123.762 21.8117 123.771C21.9662 123.775 21.9394 124.014 21.7859 124.01C21.4531 123.998 21.1281 123.906 20.8394 123.74C20.5506 123.574 20.3069 123.34 20.1294 123.058C20.1105 123.033 20.1018 123.002 20.1052 122.97C20.1086 122.939 20.1238 122.91 20.1477 122.89C20.1725 122.87 20.2042 122.861 20.2357 122.864C20.2673 122.867 20.2963 122.883 20.3163 122.908Z" fill="white"/>
<path d="M99.4342 37.5914C99.2114 37.8845 98.927 38.1252 98.6011 38.2965C98.2752 38.4678 97.9157 38.5656 97.5479 38.5829C97.1801 38.6003 96.813 38.5367 96.4724 38.3969C96.1318 38.257 95.826 38.0441 95.5766 37.7732L87.3691 41.3428L88.1686 36.7611L95.84 34.0738C96.3227 33.685 96.9314 33.4867 97.5506 33.5166C98.1698 33.5465 98.7565 33.8026 99.1995 34.2361C99.6425 34.6697 99.9111 35.2508 99.9544 35.8692C99.9977 36.4876 99.8126 37.1003 99.4342 37.5914Z" fill="#FFB8B8"/>
<path d="M93.9571 39.0217L74.894 47.5131L74.8531 47.4985L53.1259 39.756C51.5075 38.9102 50.2737 37.4777 49.677 35.7519C49.0803 34.026 49.166 32.1374 49.9164 30.4726C50.3323 29.5528 50.9384 28.7315 51.6946 28.0628C52.4509 27.3942 53.3402 26.8932 54.3039 26.593C55.2677 26.2928 56.2842 26.2001 57.2864 26.321C58.2886 26.4419 59.2538 26.7738 60.1186 27.2946L76.2876 37.0347L91.9666 35.0027L93.9571 39.0217Z" fill="#E6E6E6"/>
<path d="M187.657 139.742C187.657 139.776 187.65 139.809 187.638 139.841C187.625 139.872 187.606 139.901 187.582 139.925C187.558 139.949 187.529 139.968 187.498 139.981C187.466 139.994 187.433 140 187.399 140H0.60701C0.538484 140 0.472766 139.973 0.42431 139.924C0.375855 139.876 0.348633 139.81 0.348633 139.742C0.348633 139.673 0.375855 139.608 0.42431 139.559C0.472766 139.511 0.538484 139.483 0.60701 139.483H187.399C187.433 139.483 187.466 139.49 187.498 139.503C187.529 139.516 187.558 139.535 187.582 139.559C187.606 139.583 187.625 139.611 187.638 139.643C187.65 139.674 187.657 139.708 187.657 139.742Z" fill="#CCCCCC"/>
<path d="M68.3765 64.4425L49.1595 61.3687C48.6555 61.2073 48.1924 60.9387 47.802 60.5814C47.4116 60.2241 47.1031 59.7866 46.8978 59.2988C46.6924 58.8111 46.595 58.2846 46.6123 57.7557C46.6296 57.2268 46.7611 56.7078 46.9979 56.2345L47.8694 54.4914L47.5309 36.1775C47.4901 33.7953 48.0773 31.4443 49.2336 29.3612C50.3899 27.278 52.0744 25.5361 54.1177 24.3107L55.9917 23.1902L56.9387 20.7852L65.6716 20.9982L65.6971 24.1524L68.8245 29.1394L68.8244 29.1601L68.6282 56.3039L67.7662 59.1051L69.0695 62.3633L68.3765 64.4425Z" fill="#E6E6E6"/>
<path d="M62.1056 17.7942C66.4878 17.7942 70.0403 14.2417 70.0403 9.8595C70.0403 5.47729 66.4878 1.9248 62.1056 1.9248C57.7234 1.9248 54.1709 5.47729 54.1709 9.8595C54.1709 14.2417 57.7234 17.7942 62.1056 17.7942Z" fill="#FFB8B8"/>
<path d="M53.8433 11.5898C53.6066 10.5927 53.7153 9.18975 53.849 8.18586C54.1997 5.55401 55.6613 3.05197 57.8818 1.56992C58.3028 1.25013 58.8032 1.05131 59.3289 0.994873C59.8542 0.972943 60.4236 1.25416 60.5849 1.7546C60.7172 1.42431 60.9158 1.12464 61.1685 0.874101C61.4211 0.623559 61.7224 0.427455 62.0538 0.297896C62.7195 0.0428496 63.4355 -0.0536027 64.1449 0.0161841C65.52 0.129533 66.8388 0.613056 67.9613 1.41544C69.0838 2.21782 69.9681 3.30913 70.5204 4.57355C70.7323 5.07702 71.3243 3.21733 71.5928 3.69304C71.8396 4.18752 72.2701 4.56577 72.7922 4.74685C73.3184 4.89367 73.5321 7.06149 73.7391 6.55599C73.8998 6.92957 73.9633 7.33772 73.9237 7.74245C73.8842 8.14718 73.7428 8.53531 73.5129 8.8707C73.2829 9.20609 72.9718 9.47783 72.6086 9.66062C72.2453 9.8434 71.8417 9.93128 71.4353 9.91608C70.8998 9.89604 70.3877 9.69906 69.8585 9.61427C67.9663 9.31107 65.959 10.6832 65.5544 12.5565C65.4096 12.0147 65.1782 11.5 64.8693 11.032C64.7124 10.7993 64.5023 10.6073 64.2563 10.4722C64.0103 10.337 63.7356 10.2626 63.4551 10.255C62.9167 10.2751 62.4434 10.6271 62.0941 11.0373C61.7448 11.4475 61.4825 11.926 61.1306 12.3339C60.098 13.531 58.7015 16.3225 57.23 16.1189C56.0687 15.9582 54.1664 12.951 53.8433 11.5898Z" fill="#2F2E41"/>
<path d="M110.069 46.5827C110.125 46.2209 110.051 45.8512 109.859 45.539C109.668 45.2269 109.373 44.9925 109.026 44.8774L87.6575 37.7606C87.4527 37.6921 87.2357 37.6672 87.0207 37.6875L81.6648 38.194L78.5917 38.4855L72.9206 39.0214C72.5782 39.0542 72.2564 39.1997 72.0055 39.435C71.7547 39.6704 71.5891 39.9823 71.5346 40.322L68.6552 58.3082C68.6007 58.659 68.6675 59.0179 68.8445 59.3257C69.0215 59.6334 69.2982 59.8716 69.6289 60.0009L91.22 68.3352C91.3213 68.3745 91.4266 68.4028 91.534 68.4195C91.6904 68.4448 91.8497 68.446 92.0065 68.4231L105.958 66.3553C106.287 66.3076 106.592 66.1552 106.828 65.9205C107.063 65.6859 107.217 65.3816 107.266 65.0527L110.069 46.5827Z" fill="white"/>
<path d="M70.1191 58.7332L91.7101 67.0671C91.7416 67.0795 91.7758 67.0835 91.8094 67.0787L105.759 65.0112C105.8 65.0055 105.839 64.9865 105.868 64.9571C105.898 64.9276 105.917 64.8893 105.923 64.848L108.728 46.3777C108.735 46.3326 108.725 46.2867 108.701 46.2478C108.678 46.209 108.641 46.1796 108.598 46.1646L108.454 46.116L87.2286 39.0494C87.219 39.046 87.209 39.0436 87.1988 39.0422C87.1823 39.0392 87.1656 39.0383 87.1489 39.0397L74.0856 40.2758L73.049 40.3731C73.0065 40.3776 72.9666 40.3959 72.9354 40.4252C72.9043 40.4545 72.8836 40.4932 72.8764 40.5354L69.9976 58.521C69.9905 58.5649 69.9988 58.6099 70.0209 58.6485C70.043 58.6872 70.0776 58.717 70.1191 58.7332Z" fill="#705AFF"/>
<path d="M74.085 40.2758L87.1482 39.0397C87.1649 39.0383 87.1817 39.0392 87.1981 39.0422C87.2083 39.0436 87.2183 39.046 87.228 39.0494L108.454 46.116L102.855 46.7087L100.759 46.9294L94.797 47.5594C94.7796 47.5602 94.7621 47.56 94.7447 47.5587C94.7341 47.5555 94.7235 47.5524 94.7108 47.5489L74.085 40.2758Z" fill="#2F2E41"/>
<path d="M69.6287 60.0021L91.2198 68.336C91.3213 68.3751 91.427 68.4027 91.5347 68.4184C91.6911 68.4442 91.8505 68.4462 92.0075 68.4243L105.957 66.3568C106.286 66.3088 106.591 66.1562 106.827 65.9214C107.063 65.6866 107.217 65.3822 107.266 65.0532L110.069 46.5827C110.111 46.3104 110.079 46.032 109.978 45.7757C109.964 45.7417 109.95 45.7076 109.933 45.6755C109.822 45.4415 109.653 45.2399 109.442 45.0898C109.315 44.9985 109.174 44.927 109.026 44.8777L109.001 44.8688L87.6589 37.7606C87.5717 37.7328 87.4826 37.7111 87.3924 37.6959C87.269 37.6784 87.144 37.676 87.0201 37.6886L81.6651 38.1934L78.5922 38.4865L72.9202 39.0221C72.6882 39.0437 72.4641 39.1178 72.2648 39.2386C72.2494 39.2461 72.2347 39.2549 72.2209 39.2649C72.211 39.2714 72.2015 39.2785 72.1926 39.2863C72.0186 39.405 71.8706 39.558 71.7576 39.7358C71.6446 39.9136 71.569 40.1126 71.5354 40.3206L68.6542 58.3081C68.5997 58.6592 68.6666 59.0184 68.8438 59.3263C69.021 59.6343 69.2978 59.8727 69.6287 60.0021ZM71.9177 40.3833C71.9527 40.1677 72.0483 39.9665 72.1934 39.8033C72.2373 39.7507 72.2865 39.7028 72.3401 39.6602C72.4866 39.5418 72.6598 39.461 72.8447 39.4249C72.8811 39.4174 72.9181 39.4121 72.9552 39.4093L82.5054 38.5071L87.0574 38.0739C87.0883 38.0703 87.1166 38.0708 87.1451 38.0692C87.214 38.0678 87.2829 38.0729 87.3509 38.0845C87.4134 38.0926 87.4748 38.1072 87.5343 38.1282L108.901 45.2453C108.918 45.2513 108.933 45.2571 108.95 45.2631C109.144 45.3353 109.315 45.4595 109.443 45.6221C109.545 45.7466 109.619 45.8911 109.661 46.0462C109.703 46.2013 109.712 46.3635 109.687 46.5222L106.881 64.9946C106.844 65.2409 106.729 65.4689 106.553 65.6449C106.377 65.8209 106.149 65.9356 105.902 65.972L91.9504 68.0393C91.7509 68.0679 91.5473 68.0447 91.3592 67.9719L69.768 59.6403C69.5205 59.5428 69.3135 59.364 69.181 59.1334C69.0485 58.9027 68.9982 58.6339 69.0386 58.371L71.9177 40.3833Z" fill="#3F3D56"/>
<path d="M72.1462 39.3842C72.1576 39.3515 72.1777 39.3225 72.2043 39.3004C72.2132 39.2933 72.2225 39.2869 72.2323 39.2812C72.2414 39.2777 72.2507 39.2721 72.2597 39.2686C72.3031 39.2512 72.3513 39.2503 72.3952 39.2663L72.8446 39.4248L94.7995 47.1696L99.9378 46.6267L102.813 46.3234L108.899 45.6791L109.443 45.622L109.549 45.6103C109.595 45.6062 109.64 45.6181 109.678 45.644C109.716 45.6699 109.743 45.7082 109.756 45.7522C109.759 45.7624 109.761 45.7728 109.762 45.7833C109.766 45.8251 109.757 45.8672 109.735 45.9033C109.714 45.9394 109.681 45.9676 109.642 45.9835C109.625 45.9906 109.607 45.9955 109.588 45.998L108.848 46.0756L102.855 46.7091L100.76 46.9298L94.7971 47.5598C94.7797 47.5606 94.7622 47.5604 94.7448 47.5591C94.7342 47.5559 94.7236 47.5527 94.7109 47.5493L72.3401 39.6601L72.2641 39.6333C72.2467 39.6275 72.2306 39.6186 72.2165 39.6069C72.1826 39.5821 72.1576 39.5471 72.1449 39.5071C72.1323 39.467 72.1327 39.424 72.1462 39.3842Z" fill="#3F3D56"/>
<path d="M91.5941 68.4742C91.5435 68.4661 91.4983 68.4384 91.4681 68.3971C91.4379 68.3558 91.4252 68.3043 91.4328 68.2537L94.5848 47.337C94.5925 47.2861 94.6201 47.2404 94.6615 47.2098C94.7029 47.1792 94.7548 47.1664 94.8056 47.174L94.8074 47.1743C94.8579 47.1824 94.9032 47.2101 94.9334 47.2514C94.9636 47.2927 94.9762 47.3443 94.9686 47.3949L91.8166 68.3115C91.8089 68.3624 91.7813 68.4082 91.7399 68.4387C91.6985 68.4693 91.6467 68.4822 91.5958 68.4745L91.5941 68.4742Z" fill="#3F3D56"/>
<path d="M99.5836 67.148L97.4873 67.3692L99.9394 46.6261C99.9394 46.6261 102.739 46.1192 102.814 46.3225C102.86 46.4439 99.6036 67.015 99.5836 67.148Z" fill="#3F3D56"/>
<path d="M72.2645 39.6328L72.208 49.0924L88.9541 55.4733L94.9678 47.3953L72.2645 39.6328Z" fill="#3F3D56"/>
<path d="M109.444 45.6216C109.304 45.4457 109.115 45.3146 108.902 45.2446L87.5351 38.1277C87.4751 38.1075 87.4135 38.0925 87.3509 38.0828C87.2828 38.0711 87.2137 38.066 87.1445 38.0674L87.1792 37.8508L87.3931 37.696L92.4669 34.0225L109.412 39.2155L109.441 45.0891L109.444 45.6216Z" fill="#3F3D56"/>
<path d="M73.1181 54.8188C73.1422 54.8212 73.1659 54.8261 73.1889 54.8337L79.7447 56.9869C79.8268 57.0138 79.8948 57.0723 79.9338 57.1494C79.9728 57.2264 79.9796 57.3159 79.9527 57.3979C79.9257 57.48 79.8673 57.548 79.7902 57.587C79.7131 57.626 79.6237 57.6328 79.5416 57.6059L72.9858 55.4526C72.9097 55.4276 72.8455 55.3755 72.8054 55.3061C72.7653 55.2367 72.7522 55.155 72.7686 55.0766C72.785 54.9981 72.8297 54.9285 72.8941 54.881C72.9586 54.8334 73.0384 54.8113 73.1181 54.8188Z" fill="white"/>
<path d="M99.5694 94.5011C101.008 94.5011 102.175 93.3345 102.175 91.8956C102.175 90.4566 101.008 89.29 99.5694 89.29C98.1304 89.29 96.9639 90.4566 96.9639 91.8956C96.9639 93.3345 98.1304 94.5011 99.5694 94.5011Z" fill="#F2F2F2"/>
<path d="M33.129 104.055C34.5679 104.055 35.7345 102.888 35.7345 101.449C35.7345 100.01 34.5679 98.8438 33.129 98.8438C31.69 98.8438 30.5234 100.01 30.5234 101.449C30.5234 102.888 31.69 104.055 33.129 104.055Z" fill="#F2F2F2"/>
<path d="M87.4102 17.8556C88.8492 17.8556 90.0157 16.689 90.0157 15.25C90.0157 13.8111 88.8492 12.6445 87.4102 12.6445C85.9712 12.6445 84.8047 13.8111 84.8047 15.25C84.8047 16.689 85.9712 17.8556 87.4102 17.8556Z" fill="#F2F2F2"/>
<path d="M91.6848 58.65C91.3471 58.7967 90.9814 58.8676 90.6133 58.8577C90.2452 58.8477 89.8838 58.7572 89.5545 58.5925C89.2252 58.4278 88.9361 58.1929 88.7074 57.9043C88.4787 57.6157 88.3161 57.2805 88.2309 56.9223L79.3262 56.0227L82.2639 52.417L90.2697 53.8241C90.8809 53.721 91.5088 53.8457 92.0343 54.1746C92.5597 54.5034 92.9463 55.0136 93.1207 55.6085C93.2952 56.2033 93.2454 56.8415 92.9807 57.4021C92.7161 57.9627 92.255 58.4067 91.6848 58.65Z" fill="#FFB8B8"/>
<path d="M86.2078 57.2199L65.4269 55.3052L65.3984 55.2724L50.232 37.8944C49.2339 36.3652 48.8581 34.5123 49.1815 32.7151C49.505 30.9179 50.5032 29.3124 51.9719 28.2272C52.7845 27.6282 53.7147 27.2082 54.7014 26.9947C55.688 26.7812 56.7087 26.7791 57.6962 26.9885C58.6837 27.1979 59.6157 27.6141 60.4307 28.2096C61.2458 28.8052 61.9255 29.5666 62.4251 30.4438L71.7664 46.8465L86.4367 52.7408L86.2078 57.2199Z" fill="#E6E6E6"/>
<path d="M138.367 23.8004C137.851 20.0151 137.203 15.9509 134.534 13.2184C133.687 12.3513 132.673 11.6648 131.553 11.2002C130.433 10.7356 129.231 10.5026 128.019 10.5151C126.807 10.5277 125.61 10.7856 124.5 11.2732C123.39 11.7609 122.391 12.4682 121.562 13.3526C119.618 15.4259 118.76 18.3371 118.681 21.1778C118.603 24.0185 119.236 26.8276 119.937 29.5814C123.652 29.6555 127.338 28.9299 130.747 27.4537C131.6 27.0837 132.438 26.6654 133.339 26.4361C134.24 26.2069 134.882 26.7837 135.719 27.1859L136.179 26.3054C136.556 27.006 137.721 26.7983 138.144 26.1247C138.567 25.4511 138.474 24.5884 138.367 23.8004Z" fill="#2F2E41"/>
<path d="M123.644 44.929L108.472 45.2535C108.239 44.8507 107.894 44.5243 107.479 44.3141C107.064 44.1038 106.597 44.0188 106.134 44.0692C105.672 44.1197 105.234 44.3035 104.874 44.5983C104.514 44.893 104.247 45.2861 104.106 45.7296C103.966 46.1731 103.957 46.648 104.081 47.0963C104.206 47.5447 104.458 47.9473 104.806 48.2552C105.155 48.563 105.586 48.7628 106.047 48.8302C106.507 48.8976 106.977 48.8298 107.399 48.6349C109.412 48.7493 125.154 50.9837 126.094 49.5437C127.047 48.0822 132.135 42.9244 132.135 42.9244L128.224 37.3564L123.644 44.929Z" fill="#9E616A"/>
<path d="M127.341 27.5456C131.278 27.5456 134.469 24.3542 134.469 20.4173C134.469 16.4805 131.278 13.2891 127.341 13.2891C123.404 13.2891 120.213 16.4805 120.213 20.4173C120.213 24.3542 123.404 27.5456 127.341 27.5456Z" fill="#9E616A"/>
<path d="M138.759 34.1333C137.919 32.4615 137.51 30.3961 135.72 29.8541C134.51 29.4881 129.619 30.0366 128.517 30.6544C126.684 31.6821 128.345 33.6079 127.263 35.41C126.088 37.369 122.892 41.3005 121.716 43.2596C120.908 44.6064 123.631 48.5595 123.194 50.0682C122.757 51.5769 122.736 53.2703 123.48 54.6533C124.147 55.8913 123.182 56.9864 123.853 58.2223C124.549 59.5076 125.405 64.3132 124.756 65.6236L124.322 66.9264C128.631 67.1796 132.254 62.0314 136.537 61.4891C137.601 61.3544 138.705 61.1785 139.582 60.5611C140.873 59.6516 141.383 58.0013 141.702 56.4546C143.237 48.8941 142.201 41.0374 138.759 34.1333Z" fill="#3F3D56"/>
<path d="M145.219 51.7861C144.619 50.1478 143.532 42.9846 143.532 42.9846L136.731 42.7852L140.056 50.9865L130.983 63.689C130.983 63.689 130.999 63.7169 131.03 63.7666C130.553 63.6901 130.064 63.7593 129.627 63.9653C129.19 64.1713 128.825 64.5044 128.58 64.9211C128.336 65.3378 128.223 65.8186 128.256 66.3006C128.289 66.7826 128.467 67.2434 128.766 67.6227C129.065 68.002 129.472 68.282 129.933 68.4263C130.394 68.5705 130.888 68.5722 131.351 68.4311C131.813 68.2899 132.221 68.0126 132.523 67.6354C132.825 67.2581 133.006 66.7985 133.043 66.3168C133.076 66.3359 133.115 66.3428 133.153 66.3363C133.191 66.3298 133.225 66.3102 133.251 66.281C134.26 65.014 145.82 53.4245 145.219 51.7861Z" fill="#9E616A"/>
<path d="M145.911 47.2617C145.287 44.6269 144.658 41.9778 143.605 39.483C142.553 36.9882 141.046 34.6318 138.927 32.9463C138.249 32.4074 137.492 31.9318 136.643 31.7643C135.793 31.5967 134.836 31.7842 134.24 32.4116C133.285 33.4155 133.572 35.0269 133.922 36.3672C134.955 40.319 135.987 44.2708 137.019 48.2225C140 47.9066 142.981 47.5906 145.962 47.2746L145.911 47.2617Z" fill="#3F3D56"/>
<path d="M136.076 21.4061C135.813 19.6817 135.539 17.9429 134.922 16.3192C134.306 14.6955 133.312 13.1746 131.886 12.2548C129.628 10.7985 126.704 11.0794 124.173 11.9171C122.215 12.5649 120.304 13.5496 118.924 15.1326C117.543 16.7156 116.768 18.9744 117.281 21.0442C119.982 20.4062 122.682 19.7683 125.382 19.1303L125.087 19.3392C125.973 19.7813 126.747 20.4195 127.351 21.2056C127.954 21.9916 128.37 22.9047 128.567 23.8755C128.76 24.8582 128.733 25.8714 128.486 26.842C128.24 27.8127 127.78 28.7163 127.142 29.4877C128.983 28.8344 130.825 28.1812 132.666 27.5279C133.803 27.1247 135.02 26.66 135.694 25.6258C136.475 24.4266 136.294 22.8372 136.076 21.4061Z" fill="#2F2E41"/>
</g>
<defs>
<clipPath id="clip0_800_5506">
<rect width="187.316" height="140" fill="white" transform="translate(0.341797)"/>
</clipPath>
</defs>
</svg>
