<svg width="211" height="140" viewBox="0 0 211 140" fill="none" xmlns="http://www.w3.org/2000/svg">
<g clip-path="url(#clip0_771_3078)">
<path d="M75.5648 80.5714C82.7842 67.8716 96.5554 58.1203 111.133 59.0597C100.38 70.7532 94.1099 85.8735 93.4317 101.745C93.1923 107.867 93.5635 114.701 89.4987 119.285C86.9695 122.138 83.1036 123.519 79.3026 123.809C75.5014 124.099 71.701 123.412 67.9506 122.728L67.0408 123.007C66.6945 108.403 68.3453 93.2712 75.5648 80.5714Z" fill="#F0F0F0"/>
<path d="M111.155 59.3655C100.375 64.5551 91.1828 73.2223 85.54 83.7927C84.32 86.078 83.2814 88.5024 82.8283 91.0658C82.375 93.6303 82.6916 96.0715 83.5676 98.5072C84.3683 100.734 85.4453 102.919 85.6909 105.302C85.9497 107.813 85.0256 110.161 83.3623 112.025C81.3271 114.305 78.594 115.718 75.8732 117.007C72.8522 118.438 69.6918 119.877 67.5521 122.548C67.2928 122.872 66.8058 122.45 67.0647 122.127C70.7874 117.48 77.1596 116.607 81.5785 112.863C83.6404 111.117 85.1884 108.738 85.0907 105.951C85.0052 103.513 83.8966 101.259 83.0663 99.0116C82.1945 96.6515 81.7597 94.2785 82.0723 91.7624C82.3922 89.1884 83.3382 86.7183 84.4944 84.4118C87.1019 79.2102 90.6703 74.4348 94.7581 70.3067C99.4561 65.5616 104.931 61.6551 110.947 58.7562C111.319 58.577 111.525 59.1874 111.155 59.3655Z" fill="white"/>
<path d="M87.1929 80.26C85.5403 79.0516 84.371 77.2951 83.8939 75.3041C83.4168 73.3132 83.6629 71.2175 84.5883 69.3912C84.7768 69.0224 85.3589 69.298 85.1701 69.6673C84.3052 71.3663 84.0762 73.3185 84.5242 75.1716C84.9723 77.0246 86.068 78.6565 87.6136 79.7726C87.9492 80.0155 87.5266 80.5015 87.1929 80.26Z" fill="white"/>
<path d="M83.0128 97.4319C87.154 96.8268 90.9149 94.6831 93.5457 91.4282C93.8061 91.1055 94.2932 91.5266 94.0331 91.8489C91.2891 95.2309 87.3708 97.4538 83.06 98.074C82.6491 98.1329 82.6042 97.4904 83.0128 97.4319Z" fill="white"/>
<path d="M99.7742 66.3539C100.316 66.9547 100.999 67.4115 101.761 67.6833C102.523 67.955 103.341 68.0331 104.141 67.9107C104.551 67.8467 104.595 68.4893 104.188 68.5529C103.304 68.684 102.401 68.5966 101.558 68.2982C100.715 67.9998 99.9583 67.4997 99.3535 66.8413C99.2913 66.784 99.2532 66.7052 99.247 66.6209C99.2408 66.5366 99.2669 66.453 99.3201 66.3873C99.3761 66.323 99.4553 66.2835 99.5403 66.2772C99.6253 66.271 99.7094 66.2986 99.7742 66.3539Z" fill="white"/>
<path d="M140.139 99.1231C139.884 99.1704 139.63 99.2176 139.372 99.2698C135.949 99.9228 132.585 100.853 129.312 102.051C129.058 102.139 128.801 102.233 128.55 102.329C120.697 105.298 113.463 109.701 107.217 115.311C104.733 117.546 102.423 119.966 100.307 122.552C97.3847 126.122 94.5001 130.226 90.6812 132.554C90.2855 132.802 89.8749 133.024 89.4517 133.221L67.4521 124.096C67.4125 124.05 67.3706 124.009 67.3308 123.963L66.4358 123.639C66.5356 123.498 66.6422 123.354 66.742 123.213C66.7996 123.131 66.862 123.051 66.9196 122.969C66.9595 122.915 66.9997 122.861 67.0327 122.81C67.0459 122.792 67.0594 122.774 67.0705 122.761C67.1035 122.71 67.1395 122.666 67.1704 122.62C67.7638 121.813 68.364 121.009 68.9709 120.208C68.973 120.203 68.973 120.203 68.98 120.2C73.6198 114.106 78.809 108.346 84.7076 103.557C84.8851 103.413 85.0644 103.263 85.252 103.124C87.9228 100.98 90.7643 99.0574 93.7482 97.3763C95.3851 96.4611 97.0672 95.6293 98.7882 94.8841C103.239 92.9673 107.963 91.7624 112.788 91.3137C122.406 90.4205 132.203 92.6135 139.58 98.6559C139.769 98.8107 139.953 98.9634 140.139 99.1231Z" fill="#F0F0F0"/>
<path d="M139.974 99.3814C128.242 97.0346 115.684 98.4206 104.815 103.463C102.465 104.553 100.176 105.864 98.2708 107.638C96.3649 109.412 95.1479 111.552 94.3808 114.024C93.6795 116.284 93.2239 118.677 91.9854 120.728C90.68 122.889 88.5284 124.207 86.0782 124.694C83.0804 125.289 80.0474 124.772 77.099 124.163C73.8253 123.487 70.4357 122.733 67.1192 123.577C66.7173 123.679 66.5821 123.05 66.9833 122.948C72.7535 121.479 78.3673 124.618 84.1493 124.289C86.8473 124.136 89.5154 123.169 91.1155 120.884C92.5147 118.887 92.9866 116.42 93.6769 114.125C94.4017 111.716 95.4833 109.559 97.2478 107.739C99.0529 105.876 101.295 104.473 103.607 103.328C108.821 100.745 114.545 99.0801 120.294 98.2452C126.902 97.285 133.626 97.4623 140.174 98.7694C140.58 98.8505 140.377 99.4619 139.974 99.3814Z" fill="white"/>
<path d="M108.261 101.638C107.669 99.6778 107.793 97.5714 108.611 95.6945C109.429 93.8176 110.887 92.2924 112.726 91.3915C113.098 91.2105 113.397 91.781 113.024 91.9622C111.31 92.7981 109.952 94.2188 109.194 95.9682C108.436 97.7175 108.329 99.6801 108.891 101.502C109.012 101.898 108.382 102.031 108.261 101.638Z" fill="white"/>
<path d="M94.5855 112.832C98.2562 114.842 102.55 115.394 106.61 114.379C107.012 114.279 107.148 114.908 106.746 115.009C102.519 116.057 98.0518 115.473 94.2365 113.373C93.873 113.172 94.2239 112.632 94.5855 112.832Z" fill="white"/>
<path d="M126.679 98.1092C126.751 98.9152 127.021 99.691 127.466 100.367C127.911 101.043 128.516 101.597 129.229 101.981C129.595 102.177 129.243 102.717 128.88 102.522C128.095 102.095 127.426 101.481 126.933 100.736C126.44 99.9899 126.137 99.1348 126.05 98.245C126.035 98.1618 126.052 98.076 126.098 98.0049C126.144 97.9338 126.215 97.8829 126.297 97.8624C126.38 97.8448 126.467 97.8609 126.539 97.9071C126.611 97.9533 126.661 98.0259 126.679 98.1092Z" fill="white"/>
<path d="M98.2316 114.178C95.1506 99.2806 91.2994 94.3139 91.2994 94.3139L89.8281 93.1729L88.0588 91.7986L88.0673 91.6219L87.6477 91.4792L87.5491 91.4027L87.3876 91.2786L87.3616 91.3065L87.3067 91.3633L79.3003 88.6419L69.1429 85.1916L64.4394 79.078C63.6733 78.0823 62.6871 77.2775 61.558 76.7268C60.4289 76.176 59.1876 75.8942 57.9313 75.9035L42.9098 76.0147C40.8787 76.0297 38.9267 76.804 37.4375 78.1853L27.564 87.3437L12.1793 94.6913L12.1533 94.6654L11.9918 94.7808L9.6147 95.9174L9.71279 96.428L8.24152 97.4896C8.24152 97.4896 4.3903 102.111 1.30931 115.973C0.525536 119.5 0.139736 127.066 0.000482883 136.389C-0.00651179 136.86 0.0803238 137.329 0.255938 137.767C0.431553 138.204 0.692444 138.603 1.02344 138.939C1.35444 139.275 1.74894 139.542 2.18401 139.724C2.61907 139.906 3.08602 140 3.5577 140H85.7306L95.9869 140C96.4582 140 96.9248 139.906 97.3596 139.724C97.7944 139.542 98.1887 139.276 98.5197 138.94C98.8506 138.604 99.1116 138.206 99.2874 137.769C99.4633 137.332 99.5506 136.864 99.5441 136.393C99.4081 126.247 99.0225 118.003 98.2316 114.178Z" fill="#3F3D56"/>
<path d="M108.775 12.9912C105.578 12.9912 102.512 14.2612 100.251 16.5218C97.9904 18.7825 96.7204 21.8485 96.7204 25.0456C96.7204 28.2426 97.9904 31.3086 100.251 33.5693C102.512 35.8299 105.578 37.0999 108.775 37.0999H198.608C201.805 37.0999 204.871 35.8299 207.132 33.5693C209.393 31.3086 210.663 28.2426 210.663 25.0456C210.663 21.8485 209.393 18.7825 207.132 16.5218C204.871 14.2612 201.805 12.9912 198.608 12.9912H108.775Z" fill="#E5E5E5"/>
<path d="M108.775 15.4307C106.225 15.4307 103.779 16.4436 101.976 18.2468C100.173 20.0499 99.1599 22.4954 99.1599 25.0454C99.1599 27.5954 100.173 30.041 101.976 31.8441C103.779 33.6472 106.225 34.6602 108.775 34.6602H198.608C201.158 34.6602 203.604 33.6472 205.407 31.8441C207.21 30.041 208.223 27.5954 208.223 25.0454C208.223 22.4954 207.21 20.0499 205.407 18.2468C203.604 16.4436 201.158 15.4307 198.608 15.4307H108.775Z" fill="white"/>
<path d="M52.7795 70.2599C63.6483 70.2599 72.4592 61.449 72.4592 50.5801C72.4592 39.7113 63.6483 30.9004 52.7795 30.9004C41.9107 30.9004 33.0998 39.7113 33.0998 50.5801C33.0998 61.449 41.9107 70.2599 52.7795 70.2599Z" fill="#9E616A"/>
<path d="M47.7451 69.2965C47.661 69.1114 47.5771 68.9256 47.4935 68.7393C47.5258 68.7403 47.5577 68.7449 47.5899 68.7458L47.7451 69.2965Z" fill="#2F2E41"/>
<path d="M32.5525 31.7953C33.5478 31.0013 34.7112 30.2708 35.9838 30.3118C37.2563 30.3528 38.5468 31.5022 38.2832 32.7479C40.6206 28.6092 44.3412 25.426 48.7917 23.7572C53.2423 22.0884 58.1384 22.0405 62.6208 23.6219C65.7837 24.7378 68.8853 26.9702 69.6119 30.2445C69.7984 31.085 69.8385 32.0067 70.3633 32.6892C71.025 33.5498 72.291 33.7444 73.3335 33.4417C73.3439 33.4387 73.3543 33.4356 73.3647 33.4325C73.5408 33.3724 73.7309 33.3664 73.9104 33.4155C74.0899 33.4646 74.2506 33.5664 74.3716 33.7078C74.4926 33.8492 74.5684 34.0236 74.5892 34.2085C74.61 34.3935 74.5748 34.5804 74.4882 34.7451L73.5933 36.4141C74.7214 36.6656 75.8936 36.6407 77.01 36.3415C77.1955 36.2928 77.3914 36.3028 77.571 36.3699C77.7506 36.437 77.905 36.5581 78.0131 36.7165C78.1212 36.8748 78.1776 37.0628 78.1746 37.2545C78.1717 37.4462 78.1095 37.6323 77.9966 37.7872C75.0456 41.8387 70.1156 44.4549 65.0846 44.4242C61.5089 44.4024 57.8964 43.17 54.4164 43.9923C53.0701 44.3104 51.8121 44.9259 50.7348 45.7936C49.6574 46.6613 48.7879 47.7592 48.1902 49.0067C47.5925 50.2542 47.2816 51.6198 47.2805 53.0031C47.2794 54.3864 47.5879 55.7525 48.1836 57.001C47.1145 55.8317 45.0479 56.1085 43.9543 57.255C42.8608 58.4015 42.5777 60.1128 42.6879 61.6933C42.8564 64.1108 43.8035 66.3886 44.802 68.6057C36.4305 68.3421 28.5124 62.4696 25.8472 54.5269C23.1707 46.5509 25.9757 37.0419 32.5525 31.7953Z" fill="#2F2E41"/>
<path opacity="0.2" d="M19.37 109.68L24.8897 139.712L28.2017 140L19.37 109.68Z" fill="black"/>
<path opacity="0.2" d="M80.1708 107.415L74.6511 139.69L71.3392 140L80.1708 107.415Z" fill="black"/>
<path d="M37.2604 21.6883C36.202 22.1302 35.0977 21.6459 34.6346 20.5367C34.1644 19.4107 34.6036 18.2675 35.6788 17.8185C36.7542 17.3695 37.8389 17.855 38.3167 18.9992C38.7873 20.1263 38.3529 21.232 37.2604 21.6883ZM35.2331 15.602L34.3916 15.9534C34.1814 16.0401 33.9462 16.0448 33.7327 15.9665C33.5192 15.8882 33.3429 15.7326 33.2386 15.5305L33.197 15.4491C32.2916 13.8162 32.1879 11.8316 32.8905 9.55359C33.5414 7.51009 33.8117 6.07291 33.268 4.7709C32.6395 3.26553 31.2972 2.79397 29.5855 3.47708C28.9216 3.75429 28.7104 3.74987 28.1879 4.26814C28.0743 4.38224 27.9388 4.4723 27.7896 4.53292C27.6404 4.59355 27.4805 4.62351 27.3195 4.62102C27.1639 4.61919 27.0102 4.58603 26.8676 4.52352C26.725 4.461 26.5965 4.37042 26.4897 4.25716C26.2839 4.0389 26.1686 3.75069 26.1671 3.45073C26.1656 3.15076 26.278 2.8614 26.4815 2.64108C27.3597 1.72184 28.4188 0.994609 29.5921 0.50527C33.2698 -1.03041 35.1212 1.2368 35.9684 3.26575C36.7971 5.25029 36.3309 7.09161 35.582 9.4763C34.9543 11.4578 34.9909 12.9261 35.7038 14.3861C35.7553 14.4964 35.784 14.6161 35.788 14.7378C35.7921 14.8595 35.7716 14.9808 35.7276 15.0944C35.6836 15.2079 35.6171 15.3114 35.5322 15.3987C35.4472 15.4859 35.3454 15.5551 35.2331 15.602Z" fill="#EB5757"/>
<path d="M128.618 30.7946H110.744C110.687 30.795 110.631 30.7842 110.579 30.7627C110.526 30.7412 110.478 30.7096 110.438 30.6696C110.398 30.6296 110.366 30.582 110.344 30.5295C110.322 30.4771 110.311 30.4209 110.311 30.3641C110.311 30.3073 110.322 30.2511 110.344 30.1987C110.366 30.1463 110.398 30.0987 110.438 30.0587C110.478 30.0186 110.526 29.987 110.579 29.9655C110.631 29.9441 110.687 29.9332 110.744 29.9336H128.618C128.731 29.9344 128.84 29.9801 128.92 30.0607C129 30.1414 129.045 30.2504 129.045 30.3641C129.045 30.4778 129 30.5868 128.92 30.6675C128.84 30.7482 128.731 30.7939 128.618 30.7946Z" fill="#705AFF"/>
<path d="M151.291 30.9382H133.418C133.361 30.9386 133.305 30.9277 133.252 30.9063C133.2 30.8848 133.152 30.8531 133.112 30.8131C133.071 30.7731 133.039 30.7255 133.018 30.6731C132.996 30.6207 132.984 30.5645 132.984 30.5077C132.984 30.4509 132.996 30.3947 133.018 30.3422C133.039 30.2898 133.071 30.2422 133.112 30.2022C133.152 30.1622 133.2 30.1305 133.252 30.1091C133.305 30.0876 133.361 30.0768 133.418 30.0772H151.291C151.348 30.0768 151.405 30.0876 151.457 30.1091C151.51 30.1305 151.557 30.1622 151.598 30.2022C151.638 30.2422 151.67 30.2898 151.692 30.3422C151.714 30.3947 151.725 30.4509 151.725 30.5077C151.725 30.5645 151.714 30.6207 151.692 30.6731C151.67 30.7255 151.638 30.7731 151.598 30.8131C151.557 30.8531 151.51 30.8848 151.457 30.9063C151.405 30.9277 151.348 30.9386 151.291 30.9382Z" fill="#705AFF"/>
<path d="M173.965 31.0817H156.092C155.978 31.081 155.869 31.0353 155.789 30.9546C155.709 30.874 155.664 30.7649 155.664 30.6512C155.664 30.5375 155.709 30.4285 155.789 30.3478C155.869 30.2672 155.978 30.2215 156.092 30.2207H173.965C174.022 30.2203 174.078 30.2312 174.131 30.2526C174.183 30.2741 174.231 30.3058 174.271 30.3458C174.312 30.3858 174.344 30.4334 174.365 30.4858C174.387 30.5382 174.399 30.5944 174.399 30.6512C174.399 30.708 174.387 30.7642 174.365 30.8167C174.344 30.8691 174.312 30.9167 174.271 30.9567C174.231 30.9967 174.183 31.0283 174.131 31.0498C174.078 31.0713 174.022 31.0821 173.965 31.0817Z" fill="#705AFF"/>
<path d="M196.639 31.2253H178.765C178.652 31.2245 178.543 31.1788 178.463 31.0982C178.383 31.0175 178.338 30.9084 178.338 30.7948C178.338 30.6811 178.383 30.572 178.463 30.4914C178.543 30.4107 178.652 30.365 178.765 30.3643H196.639C196.752 30.365 196.861 30.4107 196.941 30.4914C197.021 30.572 197.066 30.6811 197.066 30.7948C197.066 30.9084 197.021 31.0175 196.941 31.0982C196.861 31.1788 196.752 31.2245 196.639 31.2253Z" fill="#705AFF"/>
<path d="M119.642 26.8333C121.476 26.8333 122.964 25.346 122.964 23.5114C122.964 21.6767 121.476 20.1895 119.642 20.1895C117.807 20.1895 116.32 21.6767 116.32 23.5114C116.32 25.346 117.807 26.8333 119.642 26.8333Z" fill="#705AFF"/>
<path d="M142.452 26.8333C144.287 26.8333 145.774 25.346 145.774 23.5114C145.774 21.6767 144.287 20.1895 142.452 20.1895C140.618 20.1895 139.13 21.6767 139.13 23.5114C139.13 25.346 140.618 26.8333 142.452 26.8333Z" fill="#705AFF"/>
<path d="M165.263 26.8333C167.097 26.8333 168.585 25.346 168.585 23.5114C168.585 21.6767 167.097 20.1895 165.263 20.1895C163.428 20.1895 161.941 21.6767 161.941 23.5114C161.941 25.346 163.428 26.8333 165.263 26.8333Z" fill="#705AFF"/>
<path d="M188.073 26.8333C189.908 26.8333 191.395 25.346 191.395 23.5114C191.395 21.6767 189.908 20.1895 188.073 20.1895C186.239 20.1895 184.751 21.6767 184.751 23.5114C184.751 25.346 186.239 26.8333 188.073 26.8333Z" fill="#705AFF"/>
</g>
<defs>
<clipPath id="clip0_771_3078">
<rect width="210.663" height="140" fill="white"/>
</clipPath>
</defs>
</svg>
