<svg width="240" height="250" viewBox="0 0 240 250" fill="none" xmlns="http://www.w3.org/2000/svg">
<g clip-path="url(#clip0_194_273)">
<path d="M96.7208 201.524C96.2741 200.771 94.3412 201.577 93.9859 200.894C93.6318 200.212 95.4276 199.174 96.4536 196.803C96.6387 196.376 97.8046 193.681 96.9415 192.849C95.3054 191.273 87.8186 197.777 85.1986 195.649C84.6236 195.182 84.2219 194.249 82.4816 192.735C81.7893 192.133 81.3707 191.861 80.9655 191.962C80.3906 192.106 80.3451 192.875 79.7286 194.388C78.8042 196.657 78.2574 196.52 77.7187 198.33C77.3189 199.674 77.4102 200.455 76.9397 200.607C76.2739 200.822 75.661 199.397 74.8172 199.525C73.9561 199.655 73.4355 201.315 73.2711 202.557C72.9625 204.889 73.8187 206.427 74.2933 208.045C74.8091 209.803 75.1152 212.477 73.9241 216.262L62.1355 249.476C64.7381 242.661 72.2737 223.978 75.4402 217.035C76.3543 215.031 77.3636 212.998 79.436 212.195C81.4313 211.423 84.1715 211.884 87.6649 211.043C88.0729 210.944 89.2051 210.656 89.3476 209.99C89.4655 209.44 88.7995 209.132 88.9018 208.617C89.0391 207.925 90.3487 207.917 91.958 207.119C93.0928 206.556 93.7998 205.887 94.4078 205.311C94.591 205.138 97.3156 202.527 96.7208 201.524Z" fill="#F2F2F2"/>
<path d="M50.3408 219.01C49.8422 219.012 49.6804 220.193 49.2423 220.17C48.8058 220.147 48.8145 218.966 47.9467 217.779C47.7902 217.565 46.804 216.215 46.1469 216.398C44.9013 216.747 45.9334 222.298 44.1327 222.97C43.7376 223.117 43.164 223.045 41.9188 223.463C41.4234 223.629 41.1692 223.756 41.1019 223.984C41.0065 224.307 41.371 224.552 41.9356 225.291C42.7824 226.399 42.5574 226.628 43.2904 227.414C43.8345 227.998 44.2443 228.179 44.1832 228.454C44.0968 228.843 43.2205 228.732 43.0396 229.183C42.8551 229.644 43.5194 230.378 44.0818 230.817C45.1371 231.641 46.1393 231.665 47.0702 231.899C48.0819 232.153 49.4825 232.774 50.9966 234.451L63.8971 249.82C61.3029 246.576 54.3074 237.487 51.8135 233.93C51.0935 232.903 50.387 231.821 50.5911 230.572C50.7877 229.37 51.8047 228.158 52.3996 226.201C52.4691 225.972 52.6544 225.333 52.3687 225.071C52.1324 224.855 51.7895 225.093 51.5659 224.894C51.2661 224.627 51.6397 223.982 51.7124 222.962C51.7637 222.242 51.6392 221.702 51.5322 221.238C51.5 221.098 51.0046 219.007 50.3408 219.01Z" fill="#F2F2F2"/>
<path d="M60.2892 221.243L59.9888 218.561L60.126 218.358C60.7612 217.417 61.085 216.499 61.0889 215.628C61.0895 215.489 61.083 215.351 61.0766 215.209C61.0507 214.65 61.0183 213.955 61.3809 213.144C61.5842 212.692 62.1553 211.646 63.0139 211.775C63.2451 211.807 63.4199 211.914 63.5526 212.038C63.5721 212.007 63.5921 211.976 63.6135 211.942C63.8809 211.534 64.0927 211.359 64.2966 211.191C64.4533 211.061 64.6152 210.928 64.869 210.612C64.9804 210.474 65.0672 210.352 65.1403 210.25C65.3624 209.94 65.6525 209.571 66.164 209.577C66.7105 209.603 66.9967 210.055 67.1864 210.354C67.5251 210.888 67.6785 211.273 67.7802 211.528C67.8171 211.621 67.8592 211.726 67.8806 211.758C68.0567 212.017 69.4884 211.775 70.0277 211.687C71.2392 211.485 72.2875 211.31 72.7194 212.074C73.0289 212.621 72.799 213.343 72.0155 214.28C71.7714 214.571 71.5118 214.792 71.2813 214.966C71.4723 215.08 71.6432 215.255 71.7125 215.529C71.8757 216.179 71.3169 216.831 70.0523 217.468C69.7383 217.627 69.3155 217.84 68.723 217.942C68.4439 217.99 68.1927 218.001 67.9777 218.008C67.9732 218.132 67.944 218.267 67.8683 218.406C67.6462 218.813 67.1839 219.008 66.4872 218.961C65.7205 218.921 65.0892 218.775 64.5323 218.646C64.0461 218.535 63.6271 218.44 63.2982 218.462C62.6882 218.512 62.2181 219 61.6665 219.633L60.2892 221.243Z" fill="#F2F2F2"/>
<path d="M61.6829 205.274L59.1649 206.245L58.9334 206.164C57.8628 205.788 56.8926 205.708 56.0486 205.925C55.9144 205.96 55.782 206.001 55.6471 206.043C55.1125 206.21 54.448 206.418 53.5719 206.273C53.0831 206.191 51.9261 205.904 51.8336 205.04C51.8063 204.808 51.8647 204.612 51.9513 204.453C51.9163 204.442 51.8811 204.43 51.8431 204.418C51.3807 204.263 51.1579 204.102 50.9433 203.948C50.7783 203.829 50.6082 203.706 50.2382 203.541C50.0759 203.468 49.9361 203.415 49.8186 203.37C49.4629 203.234 49.0323 203.047 48.9088 202.551C48.7953 202.015 49.1598 201.624 49.4011 201.365C49.8313 200.902 50.1644 200.656 50.3854 200.493C50.4662 200.433 50.557 200.366 50.5829 200.337C50.7888 200.101 50.1914 198.778 49.9694 198.278C49.4667 197.158 49.0317 196.188 49.6612 195.576C50.1113 195.138 50.8686 195.177 51.973 195.698C52.3168 195.86 52.5968 196.055 52.8232 196.234C52.885 196.02 53.0107 195.811 53.2587 195.674C53.8462 195.351 54.618 195.726 55.5551 196.788C55.7888 197.051 56.1015 197.407 56.3507 197.954C56.4679 198.211 56.5429 198.452 56.6037 198.658C56.7251 198.631 56.8627 198.625 57.016 198.663C57.4669 198.774 57.7721 199.172 57.9037 199.858C58.0593 200.61 58.0779 201.257 58.0951 201.829C58.1108 202.327 58.1256 202.756 58.2303 203.069C58.4326 203.647 59.0241 203.977 59.7766 204.35L61.6829 205.274Z" fill="#F2F2F2"/>
<path d="M60.2892 197.373L59.9888 194.691L60.126 194.488C60.7612 193.548 61.085 192.63 61.0889 191.758C61.0895 191.619 61.083 191.481 61.0766 191.34C61.0507 190.78 61.0183 190.085 61.3809 189.274C61.5842 188.822 62.1553 187.776 63.0139 187.905C63.2451 187.938 63.4199 188.044 63.5526 188.168C63.5721 188.137 63.5921 188.106 63.6135 188.072C63.8809 187.664 64.0927 187.49 64.2966 187.321C64.4533 187.192 64.6152 187.058 64.869 186.742C64.9804 186.604 65.0672 186.482 65.1403 186.38C65.3624 186.07 65.6525 185.701 66.164 185.708C66.7105 185.734 66.9967 186.186 67.1864 186.485C67.5251 187.018 67.6785 187.403 67.7802 187.658C67.8171 187.751 67.8592 187.856 67.8806 187.889C68.0567 188.148 69.4884 187.905 70.0277 187.817C71.2392 187.615 72.2875 187.44 72.7194 188.205C73.0289 188.751 72.799 189.474 72.0155 190.41C71.7714 190.701 71.5118 190.923 71.2813 191.096C71.4723 191.21 71.6432 191.385 71.7125 191.66C71.8757 192.31 71.3169 192.961 70.0523 193.598C69.7383 193.758 69.3155 193.97 68.723 194.072C68.4439 194.12 68.1927 194.132 67.9777 194.138C67.9732 194.263 67.944 194.397 67.8683 194.536C67.6462 194.944 67.1839 195.138 66.4872 195.091C65.7205 195.051 65.0892 194.905 64.5323 194.777C64.0461 194.665 63.6271 194.571 63.2982 194.593C62.6882 194.642 62.2181 195.13 61.6665 195.764L60.2892 197.373Z" fill="#F2F2F2"/>
<path d="M63.0334 249.433L62.4713 249.08L61.816 249.156C61.8057 249.095 61.7701 248.955 61.7163 248.736C61.423 247.537 60.5288 243.887 59.7829 238.14C59.2623 234.128 58.9677 230.004 58.9068 225.879C58.8459 221.748 59.0415 218.62 59.1982 216.107C59.3167 214.211 59.4604 212.406 59.6016 210.647C59.9771 205.949 60.3313 201.511 60.0678 196.597C60.0095 195.501 59.8871 193.217 58.5533 190.788C57.7795 189.379 56.7137 188.128 55.385 187.071L56.2112 186.033C57.6778 187.201 58.8569 188.587 59.7162 190.151C61.1951 192.845 61.3285 195.332 61.3926 196.528C61.6606 201.528 61.3026 206.008 60.9231 210.752C60.7833 212.504 60.6395 214.302 60.5217 216.19C60.3663 218.68 60.1727 221.78 60.2329 225.858C60.2925 229.934 60.5838 234.008 61.0973 237.969C61.8342 243.644 62.7154 247.239 63.0049 248.42C63.159 249.051 63.1914 249.183 63.0334 249.433Z" fill="#F2F2F2"/>
<path d="M52.9529 189.178C52.8986 189.178 52.8435 189.177 52.7878 189.173C51.6586 189.112 50.6129 188.436 49.6792 187.165C49.2415 186.566 49.0174 185.884 48.5706 184.523C48.5014 184.313 48.1646 183.249 47.96 181.784C47.826 180.827 47.8428 180.427 48.0326 180.073C48.243 179.679 48.5836 179.405 48.9669 179.22C48.9501 179.093 48.9637 178.962 49.0187 178.829C49.2447 178.276 49.8456 178.348 50.1706 178.383C50.3351 178.404 50.5403 178.431 50.7618 178.419C51.1102 178.403 51.2973 178.299 51.5809 178.144C51.8522 177.995 52.1895 177.809 52.6901 177.707C53.6769 177.501 54.5037 177.781 54.7763 177.873C56.2106 178.351 56.9176 179.466 57.7361 180.757C57.8992 181.016 58.4593 181.959 58.8291 183.251C59.0958 184.183 59.0583 184.598 58.978 184.906C58.8148 185.539 58.4296 185.902 57.4512 186.702C56.4294 187.54 55.9166 187.96 55.4763 188.215C54.4513 188.807 53.8076 189.178 52.9529 189.178Z" fill="#F2F2F2"/>
<path d="M115.071 247.163L118.543 247.163L120.195 233.768L115.07 233.768L115.071 247.163Z" fill="#FFB6B6"/>
<path d="M126.969 247.084C127.077 247.266 127.134 247.854 127.134 248.066C127.134 248.717 126.606 249.245 125.955 249.245H115.201C114.757 249.245 114.397 248.885 114.397 248.44V247.993C114.397 247.993 113.865 246.647 114.96 244.988C114.96 244.988 116.321 246.287 118.355 244.253L118.955 243.166L123.298 246.342L125.704 246.638C126.231 246.703 126.698 246.628 126.969 247.084Z" fill="#2F2E41"/>
<path d="M104.487 247.163L107.96 247.163L109.612 233.768L104.486 233.768L104.487 247.163Z" fill="#FFB6B6"/>
<path d="M116.385 247.084C116.493 247.266 116.55 247.854 116.55 248.066C116.55 248.717 116.023 249.245 115.372 249.245H104.617C104.173 249.245 103.813 248.885 103.813 248.44V247.993C103.813 247.993 103.281 246.647 104.376 244.988C104.376 244.988 105.738 246.287 107.772 244.253L108.372 243.166L112.714 246.342L115.121 246.638C115.647 246.703 116.114 246.628 116.385 247.084Z" fill="#2F2E41"/>
<path d="M119.082 189.317L122.787 203.661L120.935 240.497L112.203 241.082L111.674 219.877L110.616 241.705L101.62 239.834L101.09 191.811L119.082 189.317Z" fill="#2F2E41"/>
<path d="M83.2232 141.02C82.028 138.923 79.977 137.839 78.6424 138.6C77.3078 139.361 77.195 141.678 78.3909 143.776C78.8571 144.62 79.5188 145.341 80.3207 145.877L85.4969 154.7L89.5853 152.182L84.0484 143.752C83.9955 142.789 83.7125 141.852 83.2232 141.02Z" fill="#FFB6B6"/>
<path d="M106.747 172.165C106.747 172.165 101.842 178.927 98.841 176.511C95.8404 174.095 79.2625 146.933 79.2625 146.933L85.8416 143.407L106.747 172.165Z" fill="#705AFF"/>
<path d="M102.149 163.916L108.499 154.391L114.849 157.037L113.262 165.504L102.149 163.916Z" fill="#FFB6B6"/>
<path d="M102.678 161.799L113.791 161.27L121.199 163.387L122.787 202.546L100.561 200.429V179.779L97.3861 169.208L102.678 161.799Z" fill="#705AFF"/>
<path d="M121.018 188.214C120.628 187.075 120.472 185.873 120.573 184.673C120.857 181.287 120.911 174.653 117.459 171.656L115.51 169.545C115.47 169.501 115.424 169.463 115.383 169.42L118.608 161.839L116.66 161.011L113.666 168.047C112.339 167.239 110.807 166.792 109.223 166.792C107.393 166.792 105.645 167.389 104.2 168.439L102.374 161.75L100.332 162.308L102.614 169.936C102.531 170.037 102.441 170.13 102.362 170.236L101.247 171.732C100.975 172.097 100.676 172.435 100.351 172.753C99.6663 173.424 98.3308 175.051 98.3178 177.558C98.3134 178.415 98.1373 179.262 97.8761 180.079L96.5505 184.221C96.426 184.61 96.3284 185.006 96.262 185.409C95.6776 188.956 93.6546 205.667 107.481 205.333C120.37 205.021 121.219 197.173 121.144 194.566C121.127 194.001 121.178 193.439 121.284 192.883C121.477 191.864 121.651 190.06 121.018 188.214Z" fill="#3F3D56"/>
<path d="M179.246 19.0592L180.451 37.6687L165.295 41.1464L166.35 26.0998L179.246 19.0592Z" fill="#FFB6B6"/>
<path d="M180.399 245.226L173.568 245.225L170.318 218.874L180.401 218.875L180.399 245.226Z" fill="#FFB6B6"/>
<path d="M156.993 245.071C156.78 245.429 156.668 246.586 156.668 247.002C156.668 248.283 157.706 249.321 158.987 249.321H180.144C181.017 249.321 181.726 248.613 181.726 247.739V246.858C181.726 246.858 182.772 244.211 180.617 240.948C180.617 240.948 177.939 243.503 173.938 239.501L172.757 237.363L164.215 243.611L159.48 244.193C158.444 244.321 157.526 244.174 156.993 245.071Z" fill="#2F2E41"/>
<path d="M198.921 245.226L192.089 245.225L188.839 218.874L198.922 218.875L198.921 245.226Z" fill="#FFB6B6"/>
<path d="M175.514 245.071C175.302 245.429 175.189 246.586 175.189 247.002C175.189 248.283 176.228 249.321 177.508 249.321H198.665C199.539 249.321 200.247 248.613 200.247 247.739V246.858C200.247 246.858 201.293 244.211 199.139 240.948C199.139 240.948 196.461 243.503 192.459 239.501L191.279 237.363L182.736 243.611L178.002 244.193C176.966 244.321 176.047 244.174 175.514 245.071Z" fill="#2F2E41"/>
<path d="M203.222 119.994C203.222 119.994 209.043 127.403 207.985 131.636C206.926 135.87 199.518 233.239 199.518 233.239L188.934 232.709L182.584 145.395L180.951 233.239L170.942 232.709L158.242 123.698L203.222 119.994Z" fill="#2F2E41"/>
<path d="M142.035 143.616C141.034 147.452 138.244 150.044 135.803 149.407C133.362 148.77 132.195 145.144 133.197 141.308C133.576 139.769 134.318 138.344 135.36 137.152L139.806 120.954L147.362 123.202L142.178 138.932C142.505 140.482 142.456 142.088 142.035 143.616Z" fill="#FFB6B6"/>
<path d="M166.934 34.5023C175.285 34.5023 182.055 27.7325 182.055 19.3815C182.055 11.0305 175.285 4.26073 166.934 4.26073C158.583 4.26073 151.813 11.0305 151.813 19.3815C151.813 27.7325 158.583 34.5023 166.934 34.5023Z" fill="#FFB6B6"/>
<path d="M165.121 38.5005L180.997 35.3254L198.459 44.3214L202.164 102.002L206.926 123.698L157.713 124.228L159.829 95.1227L156.654 49.0841L165.121 38.5005Z" fill="#E6E6E6"/>
<path d="M161.417 50.6716C161.417 50.6716 152.95 48.0257 149.775 52.7883C146.6 57.5509 140.779 100.415 140.779 100.415L134.958 132.694L145.541 134.282L163.004 77.6598L161.417 50.6716Z" fill="#E6E6E6"/>
<path d="M238.43 125.064C240.155 128.633 239.712 132.416 237.441 133.513C235.169 134.611 231.93 132.607 230.205 129.037C229.496 127.62 229.137 126.055 229.158 124.471L222.039 109.257L229.25 106.069L235.502 121.405C236.756 122.373 237.76 123.628 238.43 125.064Z" fill="#FFB6B6"/>
<path d="M191.832 44.87C191.832 44.87 199.436 40.3014 203.645 44.1806C207.854 48.0599 223.622 88.3406 223.622 88.3406L236.893 118.336L226.983 122.376L196.656 71.471L191.832 44.87Z" fill="#E6E6E6"/>
<path d="M228.431 249.37C228.431 249.72 228.151 250 227.801 250H0.629724C0.280481 250 0 249.72 0 249.37C0 249.201 0.0635333 249.053 0.169343 248.942H47.6474C48.6581 248.942 49.6477 248.873 50.6214 248.741H227.801C228.151 248.741 228.431 249.021 228.431 249.37Z" fill="#3F3D56"/>
<path d="M135.418 145.284C136.363 143.062 138.275 141.748 139.688 142.35C141.102 142.951 141.482 145.239 140.537 147.461C140.172 148.354 139.598 149.147 138.864 149.772L134.743 159.135L130.391 157.107L134.915 148.093C134.856 147.13 135.029 146.166 135.418 145.284Z" fill="#FFB6B6"/>
<path d="M107.899 161.424C113.275 161.424 117.632 157.066 117.632 151.691C117.632 146.315 113.275 141.957 107.899 141.957C102.524 141.957 98.1661 146.315 98.1661 151.691C98.1661 157.066 102.524 161.424 107.899 161.424Z" fill="#FFB6B6"/>
<path d="M120.141 163.387L129.666 159.683L132.841 148.57L139.72 151.216L134.429 167.091L120.141 172.55V163.387Z" fill="#705AFF"/>
<path d="M106.619 162.513L112.424 157.789C112.424 157.789 111.875 150.711 113.962 150.074C116.048 149.438 118.225 146.895 118.225 146.895C118.225 146.895 114.771 139.093 108.691 140.277C102.611 141.461 103.999 139.66 100.252 141.644C96.5053 143.628 95.6267 146.275 96.0825 149.088C96.5382 151.901 95.1817 158.89 99.7196 159.25C104.258 159.61 106.619 162.513 106.619 162.513Z" fill="#2F2E41"/>
<path d="M157.776 22.7668C156.672 20.7546 157.245 19.794 156.25 19.0073C156.25 19.0073 155.849 18.6908 152.833 18.2876C152.545 13.3527 151.746 12.6932 151.746 12.6931C150.825 11.933 149.359 12.039 148.425 12.3843C146.449 13.1145 146.518 15.0382 145.206 15.3005C143.394 15.6628 148.334 12.5647 148.277 9.28749C148.23 6.61422 150.144 4.17446 150.811 4.3649C151.473 4.55373 153.246 2.62806 154.112 2.72915C154.704 2.79819 157.212 1.93818 157.858 2.07266C158.563 2.21954 160.813 3.63259 160.933 3.36042C161.769 1.46919 161.612 0.913408 162.233 0.402919C163.335 -0.501661 164.952 0.318769 167.547 0.89712C172.885 2.08708 173.969 0.382233 176.64 1.80985C177.989 2.53102 179.027 4.26822 181.048 7.71317C183.875 12.5309 185.288 14.9398 185.086 17.6015C184.879 20.316 183.579 20.0387 182.681 24.01C181.681 28.4306 182.883 30.5845 181.275 31.9182C180.033 32.949 169.731 33.0284 168.579 31.9445C166.606 30.0889 169.689 26.238 167.595 23.0771C166.309 21.1369 163.495 20.0944 162.104 20.8916C160.531 21.793 161.113 24.854 160.042 25.0543C159.124 25.2258 157.968 23.1175 157.776 22.7668Z" fill="#2F2E41"/>
<path d="M84.489 145.779C86.5953 144 86.036 139.874 83.2398 136.564C82.0158 135.115 80.566 134.063 79.146 133.487L77.5139 131.604L56.4385 105.197C56.4385 105.197 44.7672 78.9272 41.3219 76.0892C37.8766 73.2512 33.8231 74.7288 33.8231 74.7288L30.6604 78.6417L50.3688 115.32L70.5391 135.619L73.262 138.458C73.5928 139.954 74.388 141.559 75.6122 143.008C78.4084 146.318 82.3826 147.559 84.489 145.779Z" fill="#FFB6B6"/>
<path d="M44.706 80.9736L49.9875 88.7194L57.5697 99.941L43.9459 104.654L31.9171 84.0136L44.706 80.9736Z" fill="#E6E6E6"/>
<path d="M50.0683 54.612L46.2432 69.1954L31.6597 66.3265C31.6597 66.3265 37.3975 55.8073 35.963 51.0259L50.0683 54.612Z" fill="#FFB6B6"/>
<path d="M34.6736 244.443L43.4557 244.442L47.6333 210.568L34.6719 210.569L34.6736 244.443Z" fill="#FFB6B6"/>
<path d="M64.762 244.244C65.0354 244.704 65.1797 246.191 65.1797 246.726C65.1797 248.372 63.8452 249.707 62.199 249.707H35.0021C33.8791 249.707 32.9687 248.797 32.9687 247.674V246.541C32.9687 246.541 31.6233 243.138 34.3932 238.944C34.3932 238.944 37.8359 242.228 42.9802 237.084L44.4972 234.336L55.4781 242.366L61.5647 243.116C62.8963 243.28 64.077 243.09 64.762 244.244Z" fill="#2F2E41"/>
<path d="M59.0583 146.411L46.957 228.759H31.7743L33.7931 181.753L34.8557 157.037L31.7743 145.272C31.7743 145.272 30.3694 142.657 29.1858 139.487C27.8517 135.91 26.798 131.621 28.3623 129.587C28.9379 128.838 30.4343 128.283 32.4679 127.87C33.7105 127.616 35.1568 127.418 36.7181 127.265C45.6967 126.376 58.468 126.931 58.468 126.931L58.7926 137.645L58.9727 143.628L59.0583 146.411Z" fill="#2F2E41"/>
<path d="M19.2038 240.416L27.8925 241.692L36.953 208.786L24.1292 206.902L19.2038 240.416Z" fill="#FFB6B6"/>
<path d="M49.0011 244.595C49.2046 245.091 49.1312 246.582 49.0533 247.112C48.8139 248.741 47.2995 249.867 45.6708 249.627L18.7631 245.671C17.6521 245.508 16.8837 244.475 17.0471 243.364L17.2118 242.244C17.2118 242.244 16.3757 238.681 19.7263 234.934C19.7263 234.934 22.6547 238.684 28.4925 234.343L30.3931 231.845L40.0891 241.387L46.0019 243.014C47.2955 243.37 48.4912 243.354 49.0011 244.595Z" fill="#2F2E41"/>
<path d="M59.2487 132.678L57.5889 146.972L48.5372 177.094L33.6365 226.685L18.6169 224.478L32.0968 153.967L30.7621 141.876C30.7621 141.876 30.3274 140.674 29.8292 138.915C28.8402 135.434 27.5997 129.765 28.9644 126.874C29.1487 126.481 29.38 126.14 29.6662 125.864C30.2029 125.343 31.2939 125.027 32.7555 124.859C38.8646 124.169 51.4461 126.144 57.0446 127.113L59.2487 132.678Z" fill="#2F2E41"/>
<path d="M47.6776 64.8921L64.1736 85.6914L61.2125 107.376L58.675 129.442L28.7909 124.899C28.7909 124.899 35.2458 109.36 35.9631 108.642C36.6803 107.925 38.4818 109.697 37.2224 107.376C35.9631 105.056 34.5286 105.056 35.724 103.861C36.9193 102.666 26.4001 87.1258 26.4001 78.7583C26.4001 70.3907 31.4207 63.6967 31.4207 63.6967L47.6776 64.8921Z" fill="#E6E6E6"/>
<path d="M43.8288 57.366C49.9661 57.366 54.9414 52.3908 54.9414 46.2535C54.9414 40.1162 49.9661 35.1409 43.8288 35.1409C37.6916 35.1409 32.7163 40.1162 32.7163 46.2535C32.7163 52.3908 37.6916 57.366 43.8288 57.366Z" fill="#FFB6B6"/>
<path d="M43.3095 67.5003C43.3095 67.5003 44.9723 54.3429 45.2667 50.5167C45.561 46.6904 50.962 40.7165 50.962 40.7165L54.7882 43.807C54.7882 43.807 58.0258 43.807 55.8184 39.0977C53.6109 34.3885 49.4903 33.6527 49.4903 33.6527C49.4903 33.6527 49.0489 27.4718 41.3963 28.2076C33.7438 28.9435 30.3591 35.1243 30.3591 35.1243C30.3591 35.1243 29.9176 27.3247 25.0612 33.064C20.2048 38.8034 17.4087 41.158 22.5594 43.0712C27.7101 44.9843 31.5364 43.5126 31.5364 43.5126C31.5364 43.5126 26.5328 44.5428 27.4158 48.0747C28.2988 51.6066 15.7899 67.6475 21.5293 69.4134C27.2686 71.1794 40.0719 75.4471 41.5435 72.651C43.0151 69.8549 43.3095 67.5003 43.3095 67.5003Z" fill="#2F2E41"/>
<path d="M89.1177 146.881C91.2389 145.12 90.7143 140.99 87.9458 137.656C86.734 136.197 85.2931 135.133 83.878 134.545L82.2617 132.648L61.4084 106.065C61.4084 106.065 49.9577 79.6987 46.5363 76.8319C43.1149 73.9651 39.0492 75.4087 39.0492 75.4087L35.8538 79.295L55.2541 116.137L75.2535 136.605L77.9525 139.466C78.2708 140.965 79.0525 142.577 80.2645 144.036C83.0328 147.369 86.9966 148.643 89.1177 146.881Z" fill="#FFB6B6"/>
<path d="M34.6431 73.3651C34.6431 73.3651 39.7481 99.8567 45.5572 103.762L57.1331 94.7357C57.1331 94.7357 58.1461 94.6921 56.2607 92.5625C54.3754 90.4328 54.8581 85.8595 54.8581 85.8595C54.8581 85.8595 55.7064 86.9572 53.8604 85.4334C52.0144 83.9097 53.7329 73.4304 53.7329 73.4304L34.6431 73.3651Z" fill="#E6E6E6"/>
<path d="M118.956 182.663C118.712 182.663 118.492 182.493 118.439 182.245L117.857 179.542C117.002 175.567 113.567 172.664 109.505 172.482C105.741 172.314 102.253 174.543 100.824 178.027L99.3641 181.586C99.2536 181.857 98.945 181.985 98.6737 181.875C98.4035 181.764 98.2743 181.455 98.3854 181.184L99.8453 177.626C101.444 173.729 105.34 171.241 109.552 171.425C114.095 171.628 117.935 174.874 118.892 179.319L119.473 182.022C119.535 182.308 119.353 182.589 119.068 182.651C119.03 182.659 118.992 182.663 118.956 182.663Z" fill="#FFB6B6"/>
<path d="M119.58 191.269C119.565 191.269 119.549 191.268 119.533 191.267L99.9507 189.521C99.6598 189.495 99.4448 189.238 99.4706 188.947C99.497 188.656 99.7512 188.442 100.045 188.467L119.627 190.213C119.918 190.239 120.133 190.496 120.107 190.787C120.082 191.062 119.852 191.269 119.58 191.269Z" fill="#FFB6B6"/>
</g>
<defs>
<clipPath id="clip0_194_273">
<rect width="239.482" height="250" fill="white"/>
</clipPath>
</defs>
</svg>
