<svg width="322" height="250" viewBox="0 0 322 250" fill="none" xmlns="http://www.w3.org/2000/svg">
<g clip-path="url(#clip0_194_336)">
<path d="M231.963 46.286H208.412V8.7054L231.963 16.2215V46.286Z" fill="#2F2E41"/>
<path d="M236.144 237.094L231.284 237.209L228.575 215.375L235.747 215.205L236.144 237.094Z" fill="#A0616A"/>
<path d="M219.47 247.234C219.47 248.055 220.052 248.72 220.771 248.72H230.418C230.418 248.72 231.367 244.904 235.238 243.262L235.505 248.72H240.481L239.878 239.944C239.878 239.944 241.21 235.248 238.445 232.848C235.68 230.448 237.919 230.782 237.919 230.782L236.832 225.35L229.312 226.234L229.257 234.761L225.607 243.225L220.254 245.869C219.778 246.105 219.47 246.641 219.47 247.234Z" fill="#2F2E41"/>
<path d="M211.236 237.094L206.376 237.209L203.667 215.375L210.839 215.205L211.236 237.094Z" fill="#A0616A"/>
<path d="M194.562 247.234C194.562 248.055 195.144 248.72 195.863 248.72H205.51C205.51 248.72 206.459 244.904 210.33 243.262L210.597 248.72H215.573L214.97 239.944C214.97 239.944 216.301 235.248 213.537 232.848C210.772 230.448 213.011 230.782 213.011 230.782L211.924 225.35L204.404 226.234L204.349 234.761L200.699 243.225L195.346 245.869C194.87 246.105 194.562 246.641 194.562 247.234Z" fill="#2F2E41"/>
<path d="M233.466 87.3742L202.4 105.914L195.385 134.475L198.892 222.665H214.275L217.682 137.732L224.502 222.665H240.126L244.078 127.289C245.166 120.358 244.307 113.26 241.597 106.789L233.466 87.3742Z" fill="#2F2E41"/>
<path d="M226.451 30.7527L213.423 29.7505L209.916 36.7656L199.894 39.271L197.389 70.3377C202.345 83.2145 205.456 95.5198 202.4 105.914L240.481 103.91L234.123 86.7173C234.123 86.7173 233.967 80.3592 237.475 71.8409C240.982 63.3226 235.471 41.2753 235.471 41.2753L227.453 39.271L226.451 30.7527Z" fill="#705AFF"/>
<path d="M138.73 42.8376C139.999 42.8769 141.171 42.6265 142.093 42.1778L154.154 43.3155L154.528 37.5606L142.253 37.026C141.36 36.5211 140.206 36.1985 138.937 36.1592C136.039 36.0694 133.644 37.4916 133.587 39.3358C133.529 41.18 135.832 42.7478 138.73 42.8376Z" fill="#A0616A"/>
<path d="M210.076 60.4063C210.076 60.4063 209.651 42.0728 205.629 39.321C203.971 38.1861 178.473 37.9283 177.544 37.8321C171.815 37.2384 167.739 34.964 162.915 34.7147C151.161 34.1072 145.218 36.9597 145.218 36.9597L145.011 42.8458L210.076 60.4063Z" fill="#705AFF"/>
<path d="M218.827 29.2756C224.573 29.2756 229.23 24.6181 229.23 18.8729C229.23 13.1276 224.573 8.47017 218.827 8.47017C213.082 8.47017 208.425 13.1276 208.425 18.8729C208.425 24.6181 213.082 29.2756 218.827 29.2756Z" fill="#A0616A"/>
<path d="M215.672 3.38262C213.435 4.79309 211.796 3.78327 210.198 4.49462C207.075 5.88447 201.803 15.6462 202.279 19.7331C202.952 25.5212 205.079 25.7595 205.016 29.9122C204.914 36.5804 204.384 36.5528 205.75 38.8811C207.269 41.4708 215.872 40.7676 217.469 37.2559C217.784 36.563 214.284 36.8355 210.417 27.7462C208.476 23.1852 209.75 19.0291 210.417 17.2237C210.573 16.801 210.644 13.8001 210.977 14.1331C213.897 17.0533 215.534 14.9187 217.298 14.6737C220.916 14.171 223.641 17.0904 224.739 16.0423C225.556 15.2624 224.514 13.2002 224.91 13.0485C225.333 12.8867 226.732 15.1489 227.648 17.582C228.238 19.1511 228.534 19.9356 228.503 20.8325C228.409 23.6022 227.703 31.455 226.451 33.7592C223.749 38.735 227.152 40.6124 229.273 40.2497C230.987 39.9567 238.563 41.1105 238.978 40.2731C239.347 39.5272 238.504 31.8539 237.617 24.7203C236.551 16.1461 232.28 8.2669 225.582 2.80871C225.189 2.48862 224.896 2.26901 224.739 2.1851C224.368 1.98634 220.543 0.000247419 217.725 1.58633C216.688 2.17023 216.857 2.63605 215.672 3.38262Z" fill="#2F2E41"/>
<path d="M85.7251 245.215L79.9533 245.215L77.2076 222.952L85.7263 222.953L85.7251 245.215Z" fill="#FFB6B6"/>
<path d="M65.9502 245.084C65.7705 245.387 65.6757 246.364 65.6757 246.716C65.6757 247.798 66.5527 248.675 67.6346 248.675H85.5092C86.2472 248.675 86.8456 248.077 86.8456 247.339V246.594C86.8456 246.594 87.7298 244.358 85.9093 241.601C85.9093 241.601 83.6467 243.76 80.2658 240.379L79.2688 238.572L72.0518 243.851L68.0515 244.343C67.1764 244.451 66.4004 244.326 65.9502 245.084Z" fill="#2F2E41"/>
<path d="M110.06 245.215L104.288 245.215L101.542 222.952L110.061 222.953L110.06 245.215Z" fill="#FFB6B6"/>
<path d="M90.285 245.084C90.1053 245.387 90.0105 246.364 90.0105 246.716C90.0105 247.798 90.8875 248.675 91.9695 248.675H109.844C110.582 248.675 111.18 248.077 111.18 247.339V246.594C111.18 246.594 112.065 244.358 110.244 241.601C110.244 241.601 107.982 243.76 104.601 240.379L103.604 238.572L96.3866 243.851L92.3864 244.343C91.5112 244.451 90.7352 244.326 90.285 245.084Z" fill="#2F2E41"/>
<path d="M111.204 104.659L68.862 104.172L64.4817 131.913L75.189 227.793H89.2265L92.4667 138.484L98.3071 229.496H112.68L119.235 125.83L111.204 104.659Z" fill="#2F2E41"/>
<path d="M290.714 241.392C291.719 241.455 292.275 240.205 291.514 239.477L291.438 239.176C291.448 239.152 291.458 239.128 291.468 239.104C292.485 236.68 295.931 236.696 296.94 239.125C297.834 241.28 298.974 243.439 299.254 245.717C299.38 246.723 299.323 247.748 299.1 248.735C301.197 244.155 302.3 239.154 302.3 234.124C302.3 232.86 302.231 231.597 302.09 230.336C301.973 229.305 301.813 228.28 301.606 227.265C300.483 221.776 298.053 216.549 294.548 212.182C292.864 211.261 291.458 209.822 290.61 208.096C290.305 207.473 290.066 206.804 289.953 206.122C290.144 206.147 290.676 203.227 290.531 203.047C290.798 202.642 291.277 202.44 291.568 202.045C293.02 200.077 295.02 200.42 296.064 203.095C298.294 204.22 298.315 206.087 296.947 207.882C296.076 209.024 295.957 210.57 295.193 211.793C295.271 211.893 295.353 211.991 295.432 212.091C296.873 213.94 298.119 215.926 299.17 218.014C298.873 215.694 299.312 212.899 300.059 211.098C300.91 209.045 302.505 207.317 303.909 205.542C305.596 203.411 309.055 204.341 309.352 207.043C309.355 207.069 309.358 207.095 309.361 207.121C309.152 207.239 308.948 207.364 308.748 207.496C307.609 208.249 308.003 210.014 309.352 210.222L309.383 210.227C309.307 210.978 309.178 211.723 308.99 212.456C310.791 219.423 306.902 221.961 301.348 222.075C301.225 222.138 301.106 222.201 300.983 222.261C301.546 223.845 301.995 225.47 302.329 227.117C302.627 228.573 302.835 230.044 302.951 231.521C303.096 233.385 303.083 235.259 302.926 237.12L302.935 237.054C303.335 235.004 304.447 233.09 306.063 231.763C308.47 229.786 311.871 229.058 314.468 227.469C315.718 226.704 317.319 227.692 317.101 229.141L317.091 229.211C316.704 229.368 316.327 229.55 315.962 229.755C315.753 229.872 315.549 229.997 315.349 230.129C314.211 230.882 314.604 232.647 315.953 232.856L315.984 232.86C316.006 232.864 316.025 232.867 316.047 232.87C315.384 234.445 314.459 235.906 313.303 237.167C312.176 243.249 307.338 243.826 302.162 242.055H302.159C301.593 244.52 300.766 246.928 299.704 249.222H290.933C290.902 249.125 290.874 249.024 290.845 248.927C291.656 248.977 292.474 248.93 293.272 248.782C292.621 247.984 291.971 247.179 291.32 246.381C291.304 246.365 291.292 246.349 291.279 246.333C290.949 245.925 290.616 245.519 290.286 245.111L290.286 245.11C290.265 243.856 290.416 242.605 290.714 241.392Z" fill="#F2F2F2"/>
<path d="M0.00012207 249.421C0.00012207 249.742 0.258086 250 0.579319 250H320.966C321.288 250 321.546 249.742 321.546 249.421C321.546 249.1 321.288 248.842 320.966 248.842H0.579319C0.258086 248.842 0.00012207 249.1 0.00012207 249.421Z" fill="#CCCCCC"/>
<path d="M96.847 31.8975H81.7766L78.8392 37.7379L64.4817 44.3313L69.592 82.0272L65.6984 106.849H114.335L109.988 78.1336L115.828 43.5782L99.7671 37.2512L96.847 31.8975Z" fill="#E6E6E6"/>
<path d="M147.292 123.242C146.635 121.901 146.335 120.523 146.369 119.316L139.301 106.937L145.289 103.746L151.815 116.647C152.789 117.359 153.694 118.441 154.352 119.782C155.853 122.845 155.49 126.103 153.541 127.058C151.591 128.014 148.794 126.305 147.292 123.242Z" fill="#FFB6B6"/>
<path d="M100.702 41.9171C100.702 41.9171 105.47 37.011 110.819 40.4251C116.168 43.8392 135.681 78.776 135.681 78.776L150.733 108.811L140.108 113.761L127.29 84.9998L100.371 56.031L100.702 41.9171Z" fill="#E6E6E6"/>
<path d="M88.6736 29.0507C96.1892 29.0507 102.282 22.9581 102.282 15.4425C102.282 7.92681 96.1892 1.83418 88.6736 1.83418C81.1579 1.83418 75.0653 7.92681 75.0653 15.4425C75.0653 22.9581 81.1579 29.0507 88.6736 29.0507Z" fill="#FFB6B6"/>
<path d="M84.403 26.3945C84.4659 27.7277 84.4974 28.3943 84.2926 28.4749C83.6761 28.7174 75.7368 24.0287 74.8019 20.9074C74.3659 19.4517 74.7341 19.4226 74.4158 15.2811C74.1114 11.32 73.7701 11.2884 74.1736 10.3084C74.622 9.21922 75.9915 7.87721 78.7304 5.1932C79.766 4.17836 80.2838 3.67093 80.6107 3.40858C81.6014 2.61344 85.292 -0.348751 88.6762 0.0339527C90.0947 0.194373 89.8523 0.760731 95.1516 3.63449C95.608 3.88202 96.2201 4.20877 97.0654 4.58392C99.1213 5.49634 100.397 5.73288 101.068 5.98733C105.137 7.5294 103.943 16.1195 103.594 16.1687C103.466 16.1867 103.432 15.0728 102.764 14.9807C102.163 14.8978 101.78 15.7436 101.234 15.7744C99.7418 15.8585 101.399 14.4303 97.7472 12.8441C96.3277 12.2275 100.277 15.0078 96.5175 14.9626C90.6377 14.8921 94.3982 15.2663 92.1652 16.4392C90.5368 17.2947 83.9858 12.5871 84.2519 14.0913C84.4397 15.1523 85.2096 15.4578 85.0985 16.6464C84.9909 17.798 84.1255 19.0391 83.3621 19.0847C82.6586 19.1267 82.273 18.1394 82.0383 18.2339C81.783 18.3366 82.0634 19.5757 82.6139 20.8486C83.3127 22.4646 83.7298 22.4773 84.0984 23.7202C84.3104 24.435 84.3412 25.0882 84.403 26.3945Z" fill="#2F2E41"/>
<path d="M191.658 119.246L103.976 96.9373C98.3713 95.5113 94.9714 89.791 96.3974 84.186L107.306 41.3125C108.732 35.7075 114.452 32.3077 120.057 33.7337L207.739 56.0424C213.344 57.4684 216.744 63.1887 215.318 68.7937L204.41 111.667C202.984 117.272 197.263 120.672 191.658 119.246Z" fill="white"/>
<path d="M191.658 119.246L103.976 96.9373C101.174 96.2243 98.9225 94.4377 97.3143 92.0688C94.9745 88.6221 94.364 84.2827 95.3912 80.2455L104.538 44.293C105.566 40.2558 108.176 36.7358 111.878 34.8265C114.423 33.5141 117.254 33.0207 120.057 33.7337L207.739 56.0424C213.353 57.4707 216.746 63.1797 215.318 68.7937L204.41 111.667C202.984 117.272 197.263 120.672 191.658 119.246ZM119.817 34.6771C114.724 33.3813 116.055 37.9938 114.759 43.0868C108.437 67.9348 121.513 93.6241 145.328 103.125C158.183 108.253 168.876 112.445 168.876 112.445C186.684 116.976 204.793 106.213 209.324 88.4046L214.374 68.5537C215.67 63.4607 212.592 58.2815 207.499 56.9857L119.817 34.6771Z" fill="#3F3D56"/>
<path d="M160.843 68.4627C160.232 63.4398 155.665 59.8633 150.642 60.4743C145.667 61.0795 142.113 65.5664 142.64 70.5328L142.494 70.5505L144.707 88.74L161.444 86.704C161.973 86.7326 162.511 86.7184 163.055 86.6522C168.078 86.0412 171.655 81.474 171.044 76.4511C170.433 71.4282 165.866 67.8517 160.843 68.4627Z" fill="#EB5757"/>
<path d="M128.76 240.293C128.051 238.466 125.996 237.56 124.169 238.269C122.36 238.971 121.455 240.994 122.127 242.808L122.074 242.828L124.641 249.443L130.728 247.081C130.929 247.041 131.129 246.984 131.327 246.908C133.154 246.199 134.06 244.143 133.351 242.316C132.642 240.49 130.587 239.584 128.76 240.293Z" fill="#E6E6E6"/>
<path d="M265.035 240.293C264.326 238.466 262.271 237.56 260.444 238.269C258.635 238.971 257.73 240.994 258.401 242.808L258.348 242.828L260.916 249.443L267.003 247.081C267.204 247.041 267.404 246.984 267.602 246.908C269.429 246.199 270.335 244.143 269.626 242.316C268.917 240.49 266.862 239.584 265.035 240.293Z" fill="#E6E6E6"/>
<path d="M100.557 61.8362C99.3036 62.6482 97.9708 63.1097 96.7692 63.2194L85.3181 71.7089L81.4379 66.1418L93.4717 58.1294C94.0628 57.0776 95.0289 56.0499 96.2822 55.2379C99.1455 53.3829 102.424 53.3562 103.604 55.1783C104.784 57.0003 103.42 59.9812 100.557 61.8362Z" fill="#FFB6B6"/>
<path d="M73.7364 42.0254C73.7364 42.0254 64.9758 41.0521 63.5158 44.4589C62.0557 47.8658 59.1355 81.9345 59.1355 81.9345L64.0025 90.2083L95.9194 66.0525L89.4559 59.589L75.7771 66.0525L73.7364 42.0254Z" fill="#E6E6E6"/>
<path d="M200.625 53.034C201.666 54.1047 202.862 54.8516 204.009 55.226L213.282 66.0525L218.305 61.4894L208.358 50.9983C208.016 49.8413 207.303 48.6242 206.262 47.5535C203.883 45.1074 200.694 44.3513 199.137 45.8648C197.58 47.3782 198.247 50.588 200.625 53.034Z" fill="#A0616A"/>
<path d="M231.184 39.6938C231.184 39.6938 239.941 40.6959 240.606 44.3424C241.27 47.9888 236.53 81.8523 236.53 81.8523L229.943 88.8344L204.207 58.1773L211.948 53.3156L223.843 62.663L231.184 39.6938Z" fill="#705AFF"/>
<path d="M113.104 79.0114C117.137 79.0114 120.407 75.742 120.407 71.7088C120.407 67.6757 117.137 64.4062 113.104 64.4062C109.071 64.4062 105.802 67.6757 105.802 71.7088C105.802 75.742 109.071 79.0114 113.104 79.0114Z" fill="#E6E6E6"/>
</g>
<defs>
<clipPath id="clip0_194_336">
<rect width="321.545" height="250" fill="white"/>
</clipPath>
</defs>
</svg>
