<svg width="145" height="250" viewBox="0 0 145 250" fill="none" xmlns="http://www.w3.org/2000/svg">
<g clip-path="url(#clip0_194_255)">
<path d="M20.2171 249.434C20.2171 249.748 20.4693 250 20.7833 250H143.942C144.256 250 144.508 249.748 144.508 249.434C144.508 249.12 144.256 248.868 143.942 248.868H20.7833C20.4693 248.868 20.2171 249.12 20.2171 249.434Z" fill="#484565"/>
<path d="M84.9844 0.157019C84.9844 0.157019 74.5594 -2.36953 68.2501 12.8944C62.9924 25.6176 59.2621 32.4122 63.5301 37.0275C65.0574 38.6786 67.2367 39.5683 69.4825 39.6445L93.5109 40.4343C93.5109 40.4343 102.332 17.3004 96.97 8.93571C91.6076 0.566216 84.9844 0.157019 84.9844 0.157019Z" fill="#2F2E41"/>
<path d="M89.9613 38.512L78.4039 42.3138V25.6747H88.8907L89.9613 38.512Z" fill="#F6A6A9"/>
<path d="M81.0922 240.136H70.2628L63.9869 182.288H80.7211L81.0922 240.136Z" fill="#F6A6A9"/>
<path d="M59.7188 249.434C58.5817 249.434 57.5682 249.405 56.8021 249.334C53.9235 249.072 51.1828 246.95 49.803 245.708C49.1844 245.152 48.9846 244.262 49.3081 243.496C49.5413 242.944 50.0028 242.535 50.5738 242.373L58.1725 240.203L70.4769 231.9L70.6149 232.148C70.6672 232.238 71.8758 234.417 72.2802 235.887C72.4325 236.449 72.3944 236.915 72.1613 237.272C71.9995 237.524 71.7759 237.667 71.5903 237.748C71.8139 237.981 72.5134 238.452 74.6593 238.795C77.7996 239.294 78.4562 236.04 78.4848 235.902L78.5038 235.792L78.599 235.73C80.093 234.769 81.0113 234.332 81.3301 234.422C81.53 234.479 81.8583 234.579 82.748 243.439C82.8384 243.715 83.4618 245.756 83.0383 247.702C82.5767 249.824 73.3127 249.091 71.4571 248.925C71.4047 248.929 64.4674 249.424 59.7141 249.424V249.434H59.7188Z" fill="#2F2E41"/>
<path d="M105.549 240.136H94.7242L88.4435 182.288H105.178L105.549 240.136Z" fill="#F6A6A9"/>
<path d="M84.1802 249.434C83.0431 249.434 82.0296 249.405 81.2635 249.334C78.3849 249.072 75.6442 246.95 74.2644 245.708C73.6458 245.152 73.446 244.262 73.7695 243.496C74.0027 242.944 74.4642 242.535 75.0352 242.373L82.6339 240.203L94.9383 231.9L95.0763 232.148C95.1286 232.238 96.3372 234.417 96.7416 235.887C96.8939 236.449 96.8558 236.915 96.6227 237.272C96.4609 237.524 96.2373 237.667 96.0517 237.748C96.2753 237.981 96.9748 238.452 99.1207 238.795C102.261 239.294 102.918 236.04 102.946 235.902L102.965 235.792L103.06 235.73C104.554 234.769 105.473 234.332 105.792 234.422C105.991 234.479 106.32 234.579 107.209 243.439C107.3 243.715 107.923 245.756 107.5 247.702C107.038 249.824 97.7741 249.091 95.9185 248.925C95.8661 248.929 88.9288 249.424 84.1755 249.424V249.434H84.1802Z" fill="#2F2E41"/>
<path d="M108.665 98.0501H56.0599L74.9686 35.819H95.9422L108.665 98.0501Z" fill="#DDDEDF"/>
<path d="M54.6277 132.97C53.9996 136.781 51.4588 139.517 48.9513 139.074C46.4438 138.632 44.9164 135.187 45.5445 131.376C45.7729 129.848 46.3771 128.407 47.305 127.165L50.1694 111.049L57.9679 112.681L54.3137 128.393C54.7942 129.877 54.9037 131.447 54.6324 132.97H54.6277Z" fill="#F6A6A9"/>
<path d="M78.2802 35.8285C78.2802 35.8285 65.2145 35.4859 63.8394 38.9212C62.4643 42.3613 46.3058 124.191 46.3058 124.191H56.9639L78.2802 35.8285Z" fill="#DDDEDF"/>
<path d="M81.0542 29.6049C87.4161 29.6049 92.5735 24.4475 92.5735 18.0855C92.5735 11.7236 87.4161 6.56618 81.0542 6.56618C74.6922 6.56618 69.5348 11.7236 69.5348 18.0855C69.5348 24.4475 74.6922 29.6049 81.0542 29.6049Z" fill="#F6A6A9"/>
<path d="M82.8622 3.95874C82.8622 3.95874 68.0741 25.9554 70.5626 39.6778L61.9599 34.2869C61.9599 34.2869 68.017 6.50908 77.0431 4.35366L82.8622 3.95398V3.95874Z" fill="#2F2E41"/>
<path d="M97.7313 98.0501H63.2113L44.3217 175.574C43.9743 178.847 46.0489 181.902 49.232 182.754C59.5952 185.528 84.461 189.463 122.102 178.51C125.723 177.458 127.779 173.637 126.642 170.04L97.7313 98.0549V98.0501Z" fill="#2F2E41"/>
<path d="M51.1733 46.8578L50.9354 46.6199L50.6975 46.8578C39.1211 35.2908 20.3599 35.3051 8.79296 46.8815C-2.77398 58.4628 -3.00712 77.4571 8.56932 89.024L50.964 131.376L93.3301 88.9717C104.897 77.3905 104.654 58.3961 93.0826 46.8292C81.5062 35.2623 62.745 35.2765 51.1781 46.853L51.1733 46.8578Z" fill="#705AFF"/>
<path d="M82.4816 41.6429L92.0454 36.7373C96.4181 35.1195 101.295 35.6619 105.206 38.2075C117.102 45.9442 140.549 63.002 130.472 71.4333C117.192 82.5482 99.2396 62.8354 99.2396 62.8354L82.4816 41.6429Z" fill="#DDDEDF"/>
<path d="M82.2722 50.0266C78.9463 48.0663 77.3143 44.7071 78.6323 42.5231C79.9503 40.3439 83.7139 40.1679 87.0446 42.1282C88.3864 42.8943 89.5141 43.9791 90.3324 45.2923L104.321 53.7903L99.9819 60.4707L86.6497 51.3827C85.089 51.2923 83.5855 50.826 82.2675 50.0219H82.2722V50.0266Z" fill="#F6A6A9"/>
<path d="M91.7789 57.73L95.7567 48.2281L115.194 54.661L106.5 69.1304L91.7789 57.73Z" fill="#DDDEDF"/>
</g>
<defs>
<clipPath id="clip0_194_255">
<rect width="144.508" height="250" fill="white"/>
</clipPath>
</defs>
</svg>
