<svg width="149" height="150" viewBox="0 0 149 150" fill="none" xmlns="http://www.w3.org/2000/svg">
<g clip-path="url(#clip0_771_3141)">
<path d="M74.3787 150C115.457 150 148.757 148.044 148.757 145.631C148.757 143.219 115.457 141.263 74.3787 141.263C33.3005 141.263 0 143.219 0 145.631C0 148.044 33.3005 150 74.3787 150Z" fill="#E6E6E6"/>
<path d="M84.3177 34.6076H83.5175V12.687C83.5175 9.32217 82.1809 6.09519 79.8016 3.71593C77.4223 1.33666 74.1953 0 70.8306 0H24.389C21.0242 0 17.7972 1.33666 15.418 3.71593C13.0387 6.09519 11.702 9.32217 11.702 12.687V132.944C11.702 136.309 13.0387 139.536 15.418 141.915C17.7972 144.295 21.0242 145.631 24.389 145.631H70.8306C74.1953 145.631 77.4223 144.295 79.8016 141.915C82.1809 139.536 83.5175 136.309 83.5175 132.944V50.2109H84.3177V34.6076Z" fill="#3F3D56"/>
<path d="M80.8172 12.7756V132.856C80.8171 135.369 79.8189 137.779 78.042 139.556C76.2651 141.332 73.8552 142.331 71.3424 142.331H24.678C22.1652 142.331 19.7554 141.332 17.9786 139.556C16.2018 137.779 15.2035 135.369 15.2034 132.856V12.7756C15.2035 10.2627 16.2017 7.85281 17.9786 6.07595C19.7554 4.29909 22.1654 3.30084 24.6782 3.30078H30.3393C30.0611 3.98432 29.9551 4.72576 30.0307 5.45986C30.1063 6.19396 30.3612 6.89824 30.7729 7.51074C31.1845 8.12323 31.7404 8.62517 32.3916 8.9724C33.0428 9.31964 33.7693 9.50152 34.5073 9.50206H61.1133C61.8513 9.50156 62.5778 9.3197 63.2291 8.97248C63.8803 8.62526 64.4362 8.12333 64.8479 7.51083C65.2596 6.89833 65.5145 6.19404 65.5901 5.45992C65.6657 4.7258 65.5597 3.98434 65.2815 3.30078H71.3424C73.8552 3.30084 76.2651 4.29909 78.042 6.07595C79.8189 7.85281 80.8171 10.2627 80.8172 12.7756Z" fill="white"/>
<path d="M36.7603 103.692H35.7789L36.1065 84.5225H36.4342L36.7603 103.692Z" fill="#E6E6E6"/>
<path d="M37.5779 72.4534L39.1621 70.0054C38.6923 68.7077 38.1497 67.4376 37.5369 66.201L36.5126 67.0285L37.3237 65.7751C36.5506 64.2537 35.9425 63.2949 35.9425 63.2949C35.9425 63.2949 32.7659 68.3009 31.7041 73.602L33.7369 76.7436L31.487 74.926C31.4068 75.5434 31.3656 76.1653 31.3636 76.7879C31.3636 83.0657 33.4138 88.1546 35.9429 88.1546C38.472 88.1546 40.5223 83.065 40.5223 76.7879C40.5223 74.8418 40.0819 72.8058 39.4738 70.9222L37.5779 72.4534Z" fill="#CCCCCC"/>
<path d="M62.3088 103.692H61.3273L61.655 84.5225H61.9827L62.3088 103.692Z" fill="#E6E6E6"/>
<path d="M63.1264 72.4534L64.7105 70.0054C64.2407 68.7077 63.6981 67.4376 63.0853 66.201L62.0611 67.0285L62.8721 65.7751C62.0991 64.2537 61.4909 63.2949 61.4909 63.2949C61.4909 63.2949 58.314 68.3013 57.2532 73.602L59.2845 76.7431L57.0346 74.9255C56.9544 75.543 56.9132 76.1649 56.9111 76.7875C56.9111 83.0652 58.9614 88.1542 61.4905 88.1542C64.0196 88.1542 66.0699 83.0646 66.0699 76.7875C66.0699 74.8414 65.6295 72.8053 65.0214 70.9217L63.1264 72.4534Z" fill="#CCCCCC"/>
<path d="M36.0135 40.1486C40.9935 40.1486 45.0306 36.1115 45.0306 31.1314C45.0306 26.1514 40.9935 22.1143 36.0135 22.1143C31.0334 22.1143 26.9963 26.1514 26.9963 31.1314C26.9963 36.1115 31.0334 40.1486 36.0135 40.1486Z" fill="#E6E6E6"/>
<path d="M48.503 100.901H46.4796L47.1541 61.375H47.8284L48.503 100.901Z" fill="#E6E6E6"/>
<path d="M50.1891 36.4908L53.4554 31.4435C52.4868 28.7678 51.368 26.1488 50.1044 23.5991L47.9923 25.3049L49.6646 22.7203C48.07 19.5831 46.8168 17.6064 46.8168 17.6064C46.8168 17.6064 40.2663 27.929 38.0777 38.8584L42.2681 45.3363L37.628 41.5885C37.4627 42.8616 37.3777 44.1439 37.3735 45.4278C37.3735 58.3718 41.6009 68.865 46.8157 68.865C52.0306 68.865 56.258 58.3718 56.258 45.4278C56.258 41.415 55.3502 37.2169 54.0979 33.3332L50.1891 36.4908Z" fill="#CCCCCC"/>
<path d="M80.8171 106.598V133.468C80.8171 138.918 76.5753 143.336 71.3423 143.336H24.678C19.4453 143.336 15.2032 138.918 15.2029 133.468V109.218C23.2935 99.3264 34.9912 93.4148 47.4582 92.917C59.9252 92.4191 72.0232 97.3808 80.8171 106.598Z" fill="#E6E6E6"/>
<path opacity="0.2" d="M48.0611 133.104C55.6865 133.104 61.8682 126.922 61.8682 119.296C61.8682 111.671 55.6865 105.489 48.0611 105.489C40.4356 105.489 34.2539 111.671 34.2539 119.296C34.2539 126.922 40.4356 133.104 48.0611 133.104Z" fill="#27AE60"/>
<path d="M48.0611 130.414C54.2011 130.414 59.1786 125.436 59.1786 119.296C59.1786 113.156 54.2011 108.179 48.0611 108.179C41.9211 108.179 36.9436 113.156 36.9436 119.296C36.9436 125.436 41.9211 130.414 48.0611 130.414Z" fill="#27AE60"/>
<path d="M45.4095 124.05L41.8462 119.468L43.9184 117.857L45.6054 120.026L51.3047 114.01L53.2106 115.815L45.4095 124.05Z" fill="white"/>
<path d="M107.142 102.005C111.123 102.005 114.35 98.7775 114.35 94.7964C114.35 90.8152 111.123 87.5879 107.142 87.5879C103.16 87.5879 99.933 90.8152 99.933 94.7964C99.933 98.7775 103.16 102.005 107.142 102.005Z" fill="#2F2E41"/>
<path d="M110.063 135.264L110.618 137.884L120.987 136.988L120.168 133.122L110.063 135.264Z" fill="#FFB8B8"/>
<path d="M109.255 143.451L107.51 135.217L110.692 134.543L111.762 139.596C111.851 140.014 111.856 140.445 111.778 140.864C111.7 141.284 111.54 141.685 111.307 142.043C111.075 142.401 110.774 142.709 110.421 142.951C110.069 143.193 109.673 143.363 109.255 143.451Z" fill="#2F2E41"/>
<path d="M103.567 135.124L102.399 137.535L92.5478 134.18L94.2704 130.623L103.567 135.124Z" fill="#FFB8B8"/>
<path d="M100.878 138.925L103.129 134.276L106.056 135.694L102.388 143.269C101.612 142.893 101.017 142.224 100.733 141.409C100.45 140.595 100.502 139.701 100.878 138.925Z" fill="#2F2E41"/>
<path d="M84.1558 130.363C84.4931 130.426 84.84 130.414 85.1722 130.328C85.5043 130.243 85.8136 130.085 86.0783 129.867C86.343 129.649 86.5566 129.375 86.7041 129.065C86.8516 128.755 86.9294 128.417 86.932 128.074L103.178 113.095L99.1436 109.971L84.4345 125.686C83.8577 125.719 83.3133 125.963 82.9045 126.372C82.4957 126.78 82.2509 127.324 82.2165 127.901C82.1822 128.477 82.3607 129.047 82.7182 129.501C83.0757 129.954 83.5873 130.261 84.156 130.363L84.1558 130.363Z" fill="#FFB8B8"/>
<path d="M106.237 102.331C109.2 102.331 111.602 99.9287 111.602 96.9657C111.602 94.0026 109.2 91.6006 106.237 91.6006C103.274 91.6006 100.872 94.0026 100.872 96.9657C100.872 99.9287 103.274 102.331 106.237 102.331Z" fill="#FFB8B8"/>
<path d="M111.052 128.502C107.288 128.502 102.756 127.709 99.9595 124.466L99.8965 124.393L99.9621 124.321C99.9839 124.298 102.04 121.947 99.9863 117.755L97.1619 118.623L94.3506 114.912L95.9081 110.24L102.281 105.107C103.195 104.375 104.306 103.934 105.473 103.842C107.584 103.637 109.64 103.052 111.542 102.113C112.412 101.69 113.371 101.481 114.338 101.501L114.463 101.505C114.758 101.513 115.047 101.581 115.314 101.705C115.581 101.828 115.821 102.005 116.018 102.223C116.214 102.442 116.365 102.698 116.46 102.977C116.555 103.256 116.592 103.551 116.569 103.844C116.137 109.443 115.374 122.967 117.616 127.624L117.674 127.744L117.545 127.777C115.414 128.256 113.236 128.499 111.052 128.502L111.052 128.502Z" fill="#705AFF"/>
<path d="M100.698 124.395C100.698 124.395 86.499 123.084 84.9699 127.234C83.4409 131.385 85.1884 133.351 87.8097 134.224C90.4309 135.098 96.7657 136.19 96.7657 136.19L99.6054 132.695L107.032 133.132C107.032 133.132 115.308 137.932 117.596 143.066C118.087 144.176 118.87 145.133 119.861 145.835C120.853 146.536 122.016 146.956 123.227 147.049C125.062 147.177 126.692 146.484 126.692 143.617C126.692 137.064 117.517 127.671 117.517 127.671L100.698 124.395Z" fill="#2F2E41"/>
<path d="M89.8848 130.839C89.8848 130.839 93.5983 129.747 99.4962 132.587L89.8848 130.839Z" fill="#2F2E41"/>
<path d="M100.885 93.5434C102.98 94.8225 105.342 95.6008 107.787 95.8178L107.06 94.946C107.59 95.1418 108.147 95.2524 108.711 95.2737C108.994 95.2819 109.275 95.2237 109.531 95.1039C109.787 94.984 110.011 94.8059 110.186 94.5836C110.329 94.3529 110.413 94.091 110.433 93.8204C110.453 93.5497 110.407 93.2784 110.299 93.0294C110.077 92.5329 109.732 92.1013 109.296 91.7758C108.524 91.1649 107.613 90.7546 106.643 90.5814C105.674 90.4082 104.677 90.4774 103.741 90.783C103.099 90.9747 102.523 91.3435 102.081 91.8472C101.864 92.1009 101.713 92.4045 101.642 92.7309C101.571 93.0573 101.582 93.3962 101.674 93.7173" fill="#2F2E41"/>
<path d="M107.103 89.2555C108.056 87.0419 109.483 85.0642 111.283 83.4616C112.439 82.4349 113.789 81.5518 115.313 81.2853C116.836 81.0188 118.553 81.4753 119.487 82.7075C120.252 83.7152 120.394 85.0651 120.31 86.3268C120.226 87.5885 119.944 88.8389 119.971 90.1024C119.998 91.3923 120.348 92.655 120.987 93.7758C121.626 94.8965 122.535 95.8399 123.632 96.5202C124.728 97.2004 125.977 97.5961 127.265 97.6713C128.553 97.7465 129.84 97.4988 131.008 96.9506C129.692 97.6778 128.667 98.8292 127.447 99.7047C126.227 100.58 124.616 101.181 123.229 100.603C121.761 99.9909 121.088 98.3266 120.562 96.8257L118.218 90.1327C117.82 88.9949 117.401 87.8234 116.588 86.9337C115.775 86.044 114.455 85.5014 113.336 85.9487C112.487 86.2877 111.935 87.0973 111.451 87.871C110.966 88.6447 110.455 89.47 109.638 89.876C108.82 90.2821 107.606 90.0322 107.339 89.1585" fill="#2F2E41"/>
<path d="M108.944 128.521C108.851 128.521 108.759 128.516 108.667 128.506C108.056 128.437 107.495 128.137 107.099 127.667C106.703 127.198 106.501 126.594 106.536 125.981C106.571 125.368 106.84 124.791 107.287 124.369C107.734 123.948 108.326 123.714 108.94 123.715C109.047 123.716 109.154 123.723 109.26 123.739L116.595 115.931L115.829 113.378L119.674 111.654L120.752 114.289C121.113 115.181 121.177 116.166 120.934 117.098C120.691 118.029 120.154 118.858 119.403 119.46L111.33 125.882C111.338 125.961 111.343 126.039 111.343 126.118C111.343 126.456 111.271 126.79 111.133 127.099C110.996 127.408 110.794 127.684 110.542 127.909C110.104 128.305 109.534 128.523 108.944 128.521Z" fill="#FFB8B8"/>
<path d="M114.678 102.551C114.932 102.438 115.207 102.378 115.485 102.373C115.763 102.369 116.039 102.421 116.297 102.526C116.555 102.631 116.788 102.788 116.984 102.985C117.18 103.183 117.334 103.419 117.436 103.677L121.231 113.255L115.333 117.187L114.678 102.551Z" fill="#705AFF"/>
</g>
<defs>
<clipPath id="clip0_771_3141">
<rect width="148.757" height="150" fill="white"/>
</clipPath>
</defs>
</svg>
