<svg width="180" height="140" viewBox="0 0 180 140" fill="none" xmlns="http://www.w3.org/2000/svg">
<g clip-path="url(#clip0_776_4308)">
<path d="M71.0691 37.1555C70.9864 37.3247 70.9173 37.5002 70.8622 37.6803L54.7021 42.5509L51.7099 39.7474L46.8887 43.71L51.7033 49.1879C52.0923 49.6305 52.6143 49.9349 53.191 50.0555C53.7677 50.1761 54.368 50.1064 54.9017 49.8568L72.2959 41.7227C72.9008 42.1234 73.6132 42.3304 74.3385 42.3162C75.0639 42.3021 75.7677 42.0674 76.3564 41.6435C76.9452 41.2195 77.3908 40.6264 77.6342 39.943C77.8776 39.2596 77.9072 38.5182 77.719 37.8176C77.5308 37.117 77.1338 36.4902 76.5807 36.0208C76.0276 35.5513 75.3447 35.2613 74.6228 35.1895C73.9009 35.1176 73.1742 35.2672 72.5394 35.6184C71.9046 35.9696 71.3917 36.5057 71.0691 37.1555Z" fill="#FFB6B6"/>
<path d="M54.1655 42.7484L48.2201 47.6962C48.0509 47.837 47.8534 47.9396 47.641 47.9972C47.4286 48.0547 47.2062 48.0658 46.9892 48.0297C46.7721 47.9936 46.5653 47.9111 46.3829 47.7879C46.2006 47.6647 46.047 47.5036 45.9325 47.3156L41.9215 40.7293C41.2068 39.8597 40.8659 38.7421 40.9736 37.6216C41.0814 36.5011 41.6289 35.469 42.4963 34.7515C43.3636 34.0339 44.4801 33.6895 45.6009 33.7936C46.7218 33.8978 47.7557 34.442 48.476 35.3071L54.2068 40.4296C54.3709 40.5764 54.5014 40.7567 54.5894 40.9584C54.6775 41.1601 54.721 41.3784 54.7171 41.5985C54.7132 41.8185 54.6619 42.0351 54.5667 42.2336C54.4715 42.432 54.3347 42.6076 54.1655 42.7484Z" fill="#3F3D56"/>
<path d="M70.1309 125.129L72.7187 123.48C72.8376 122.033 72.8747 120.58 72.83 119.128L71.4876 119.471L72.8125 118.627C72.7394 116.833 72.5773 115.649 72.5773 115.649C72.5773 115.649 67.3451 119.048 64.0081 123.655L64.5771 127.551L63.2201 124.826C62.8729 125.382 62.5611 125.959 62.2865 126.554C59.5371 132.56 59.2699 138.327 61.6898 139.435C64.1096 140.542 68.3 136.571 71.0494 130.565C71.8788 128.633 72.4071 126.586 72.616 124.494L70.1309 125.129Z" fill="#E6E6E6"/>
<path d="M75.4463 130.926L78.5137 130.853C79.3636 129.675 80.1464 128.451 80.8583 127.185L79.5319 126.785L81.1024 126.747C81.9672 125.173 82.4403 124.076 82.4403 124.076C82.4403 124.076 76.2045 124.281 70.9668 126.5L69.44 130.129L69.6867 127.095C69.1023 127.391 68.5371 127.724 67.9945 128.091C62.5363 131.812 59.3266 136.611 60.8255 138.81C62.3244 141.009 67.9644 139.775 73.4226 136.055C75.1311 134.83 76.6417 133.35 77.9018 131.667L75.4463 130.926Z" fill="#E6E6E6"/>
<path d="M57.3179 136.342L60.6668 136.342L61.923 123.316L57.3174 123.425L57.3179 136.342Z" fill="#FFB6B6"/>
<path d="M56.4629 135.249L63.0579 135.249C64.1726 135.249 65.2418 135.692 66.03 136.48C66.8182 137.268 67.261 138.337 67.2611 139.452V139.588L56.4631 139.589L56.4629 135.249Z" fill="#2F2E41"/>
<path d="M17.8096 126.675L20.006 129.203L30.8016 121.934L27.5598 118.203L17.8096 126.675Z" fill="#FFB6B6"/>
<path d="M18.0745 125.313L22.4002 130.292C23.1312 131.133 23.4982 132.231 23.4201 133.343C23.3421 134.455 22.8256 135.49 21.9842 136.221L21.8811 136.311L14.7988 128.16L18.0745 125.313Z" fill="#2F2E41"/>
<path d="M0.458024 140H91.772C91.8583 140 91.941 139.966 92.002 139.905C92.063 139.844 92.0973 139.761 92.0973 139.675C92.0973 139.589 92.063 139.506 92.002 139.445C91.941 139.384 91.8583 139.35 91.772 139.35H0.458024C0.415234 139.349 0.372837 139.358 0.333268 139.374C0.293699 139.39 0.257735 139.414 0.227433 139.445C0.197132 139.475 0.17309 139.511 0.156686 139.55C0.140282 139.59 0.131836 139.632 0.131836 139.675C0.131836 139.718 0.140282 139.76 0.156686 139.8C0.17309 139.839 0.197132 139.875 0.227433 139.905C0.257735 139.935 0.293699 139.959 0.333268 139.976C0.372837 139.992 0.415234 140 0.458024 140Z" fill="#CACACA"/>
<path d="M49.9598 105.681L57.0057 131.785H62.4688L61.2689 103.236L58.1017 75.4218L46.5977 74.8105L49.9598 105.681Z" fill="#2F2E41"/>
<path d="M37.7336 75.4219C37.7336 75.4219 37.1223 79.3953 39.5675 83.6745C42.0127 87.9536 40.4844 102.319 40.4844 102.319L19.8564 123.044C19.8564 123.044 23.0623 128.605 24.5905 128.3C26.1188 127.994 50.2652 108.432 50.2652 108.432L58.1015 76.6445L37.7336 75.4219Z" fill="#2F2E41"/>
<path d="M49.1081 29.1518C52.9907 29.1518 56.1381 26.0043 56.1381 22.1218C56.1381 18.2392 52.9907 15.0918 49.1081 15.0918C45.2256 15.0918 42.0781 18.2392 42.0781 22.1218C42.0781 26.0043 45.2256 29.1518 49.1081 29.1518Z" fill="#FFB6B6"/>
<path d="M48.8109 33.176C48.8109 33.176 40.6163 30.0738 40.6163 30.9908C40.6163 31.9077 32.5376 39.6609 34.3715 49.7474C36.2054 59.8339 38.3449 64.7243 37.428 70.2261C36.511 75.7278 37.1223 76.9504 37.1223 76.9504C37.1223 76.9504 58.4072 78.7843 58.7129 76.6447C59.0185 74.5052 57.825 71.242 57.825 70.3251C57.825 69.4081 49.3793 35.5357 48.8109 33.176Z" fill="#3F3D56"/>
<path d="M45.9266 26.3458C46.4958 26.0449 47.1568 25.9828 47.7729 25.7958C49.9768 25.1267 51.4531 22.6353 50.9818 20.3808C50.8947 20.0916 50.8556 19.7901 50.866 19.4883C50.9484 18.8206 51.6317 18.3898 52.2868 18.2368C52.9419 18.0838 53.639 18.106 54.2652 17.86C55.232 17.4802 55.8743 16.4866 56.0135 15.4572C56.1135 14.415 55.8815 13.3679 55.3505 12.4656L55.1138 13.1465C54.7529 12.841 54.485 12.4403 54.3406 11.9901C54.0717 12.0353 53.8188 12.1487 53.6063 12.3197C53.3938 12.4906 53.2287 12.7132 53.1268 12.9661C52.747 13.1901 52.6922 12.2703 52.2727 12.1346C52.0882 12.1115 51.9016 12.1575 51.749 12.2637C50.9035 12.6581 49.9212 12.3209 49.0143 12.1023C47.4438 11.7256 45.8067 11.7237 44.2353 12.0967C43.1914 12.3457 42.1581 12.7793 41.411 13.5499C40.8268 14.2132 40.3779 14.9845 40.0898 15.8202C39.2886 17.8366 38.7593 20.0184 39.0238 22.172C39.2441 23.9343 39.9814 25.5919 41.1426 26.9356C41.7476 27.6326 43.7213 30.0643 44.8035 29.6497C46.1633 29.1288 44.3244 27.1929 45.9266 26.3458Z" fill="#2F2E41"/>
<path opacity="0.2" d="M57.8518 87.3255L49.8086 108.414L50.2149 108.569L58.2581 87.4805L57.8518 87.3255Z" fill="black"/>
<path d="M75.2151 33.9951C74.7034 33.9957 74.2129 34.1992 73.8511 34.561C73.4893 34.9228 73.2858 35.4134 73.2852 35.925V57.3791C73.2858 57.8908 73.4893 58.3813 73.8511 58.7431C74.2129 59.1049 74.7034 59.3085 75.2151 59.3091H177.937C178.448 59.3085 178.939 59.1049 179.301 58.7431C179.663 58.3813 179.866 57.8908 179.867 57.3791V35.925C179.866 35.4134 179.663 34.9228 179.301 34.561C178.939 34.1993 178.448 33.9957 177.937 33.9951L75.2151 33.9951Z" fill="#E6E6E6"/>
<path d="M75.9082 35.5C75.6115 35.5003 75.3271 35.6183 75.1173 35.828C74.9074 36.0378 74.7894 36.3222 74.7891 36.6189V56.6852C74.7894 56.9818 74.9075 57.2663 75.1173 57.476C75.3271 57.6858 75.6115 57.8038 75.9082 57.8041H177.242C177.539 57.8038 177.823 57.6858 178.033 57.476C178.242 57.2662 178.36 56.9818 178.361 56.6852V36.6189C178.36 36.3223 178.242 36.0379 178.033 35.8281C177.823 35.6183 177.539 35.5003 177.242 35.5H75.9082Z" fill="white"/>
<path d="M170.88 52.3022C171.361 52.301 171.821 52.1093 172.161 51.769C172.501 51.4287 172.693 50.9675 172.693 50.4866C172.694 50.0056 172.504 49.5439 172.165 49.2027C171.826 48.8615 171.365 48.6685 170.884 48.666C170.883 48.666 170.881 48.666 170.88 48.666H85.1691C84.6882 48.668 84.2277 48.8604 83.8883 49.2011C83.5489 49.5419 83.3584 50.0032 83.3584 50.4841C83.3584 50.965 83.5489 51.4264 83.8883 51.7671C84.2277 52.1079 84.6882 52.3003 85.1691 52.3022H170.88Z" fill="#E6E6E6"/>
<path d="M122.051 44.4038C122.29 44.4041 122.527 44.3573 122.748 44.266C122.969 44.1748 123.169 44.0409 123.338 43.8721C123.507 43.7032 123.642 43.5027 123.733 43.2819C123.825 43.0612 123.872 42.8246 123.872 42.5857C123.872 42.3467 123.825 42.1101 123.733 41.8894C123.642 41.6687 123.507 41.4682 123.338 41.2993C123.169 41.1304 122.969 40.9966 122.748 40.9053C122.527 40.8141 122.29 40.7673 122.051 40.7676H85.1699C84.931 40.7673 84.6943 40.8141 84.4735 40.9053C84.2527 40.9966 84.052 41.1304 83.8829 41.2993C83.7139 41.4682 83.5797 41.6687 83.4882 41.8894C83.3967 42.1101 83.3496 42.3467 83.3496 42.5857C83.3496 42.8246 83.3967 43.0612 83.4882 43.2819C83.5797 43.5027 83.7139 43.7032 83.8829 43.8721C84.052 44.0409 84.2527 44.1748 84.4735 44.266C84.6943 44.3573 84.931 44.4041 85.1699 44.4038H122.051Z" fill="#705AFF"/>
<path d="M90.2281 75.3906C89.866 75.3911 89.5188 75.5351 89.2628 75.7911C89.0068 76.0472 88.8627 76.3943 88.8623 76.7564V91.9392C88.8627 92.3013 89.0068 92.6484 89.2628 92.9044C89.5188 93.1605 89.866 93.3045 90.2281 93.3049H162.923C163.285 93.3045 163.632 93.1605 163.888 92.9044C164.144 92.6484 164.288 92.3013 164.288 91.9392V76.7564C164.288 76.3943 164.144 76.0472 163.888 75.7911C163.632 75.5351 163.285 75.3911 162.923 75.3906H90.2281Z" fill="#E6E6E6"/>
<path d="M90.7197 76.4561C90.5098 76.4563 90.3085 76.5398 90.16 76.6882C90.0115 76.8367 89.928 77.0379 89.9277 77.2479V91.4485C89.928 91.6584 90.0115 91.8597 90.16 92.0082C90.3085 92.1566 90.5098 92.2401 90.7197 92.2403H162.432C162.642 92.2401 162.843 92.1566 162.992 92.0082C163.14 91.8597 163.224 91.6584 163.224 91.4485V77.2479C163.224 77.038 163.14 76.8367 162.992 76.6882C162.843 76.5398 162.642 76.4563 162.432 76.4561H90.7197Z" fill="white"/>
<path d="M157.929 88.3458C158.27 88.346 158.598 88.2108 158.839 87.9699C159.08 87.7289 159.216 87.402 159.217 87.0608C159.217 86.7197 159.082 86.3924 158.841 86.1508C158.601 85.9092 158.274 85.7731 157.933 85.7725C157.931 85.7725 157.93 85.7725 157.929 85.7725H97.273C96.9321 85.773 96.6054 85.9087 96.3645 86.15C96.1236 86.3912 95.9883 86.7182 95.9883 87.0591C95.9883 87.4 96.1236 87.727 96.3645 87.9682C96.6054 88.2095 96.9321 88.3453 97.273 88.3458H157.929Z" fill="#E6E6E6"/>
<path d="M123.373 82.7559C123.542 82.7562 123.71 82.7231 123.866 82.6585C124.023 82.594 124.165 82.4992 124.284 82.3797C124.404 82.2602 124.499 82.1183 124.564 81.9621C124.629 81.8059 124.662 81.6384 124.662 81.4693C124.662 81.3001 124.629 81.1327 124.564 80.9765C124.499 80.8202 124.404 80.6783 124.284 80.5588C124.165 80.4393 124.023 80.3446 123.866 80.28C123.71 80.2155 123.542 80.1824 123.373 80.1826H97.2729C97.1038 80.1824 96.9363 80.2155 96.7799 80.28C96.6236 80.3446 96.4816 80.4393 96.3619 80.5588C96.2422 80.6783 96.1473 80.8202 96.0825 80.9765C96.0177 81.1327 95.9844 81.3001 95.9844 81.4693C95.9844 81.6384 96.0177 81.8059 96.0825 81.9621C96.1473 82.1183 96.2422 82.2602 96.3619 82.3797C96.4816 82.4992 96.6236 82.594 96.7799 82.6585C96.9363 82.7231 97.1038 82.7562 97.2729 82.7559H123.373Z" fill="#E4E4E4"/>
<path d="M90.2281 0C89.866 0.000425075 89.5188 0.144456 89.2628 0.400496C89.0068 0.656536 88.8627 1.00368 88.8623 1.36577V16.5485C88.8627 16.9106 89.0068 17.2578 89.2628 17.5138C89.5188 17.7698 89.866 17.9139 90.2281 17.9143H162.923C163.285 17.9139 163.632 17.7698 163.888 17.5138C164.144 17.2578 164.288 16.9106 164.288 16.5485V1.36577C164.288 1.00368 164.144 0.656536 163.888 0.400496C163.632 0.144456 163.285 0.000425075 162.923 0H90.2281Z" fill="#E6E6E6"/>
<path d="M90.7197 1.06543C90.5098 1.06564 90.3085 1.14913 90.16 1.29758C90.0115 1.44603 89.928 1.64732 89.9277 1.85728V16.0579C89.928 16.2678 90.0115 16.4691 90.16 16.6176C90.3085 16.766 90.5098 16.8495 90.7197 16.8497H162.432C162.642 16.8495 162.843 16.766 162.992 16.6175C163.14 16.4691 163.224 16.2678 163.224 16.0579V1.85728C163.224 1.64735 163.14 1.44607 162.992 1.29762C162.843 1.14916 162.642 1.06566 162.432 1.06543H90.7197Z" fill="white"/>
<path d="M157.929 12.9551C158.27 12.9554 158.598 12.8202 158.839 12.5793C159.08 12.3383 159.216 12.0113 159.217 11.6702C159.217 11.3291 159.082 11.0018 158.841 10.7602C158.601 10.5186 158.274 10.3825 157.933 10.3818C157.931 10.3818 157.93 10.3818 157.929 10.3818H97.273C96.9321 10.3823 96.6054 10.5181 96.3645 10.7593C96.1236 11.0006 95.9883 11.3276 95.9883 11.6685C95.9883 12.0094 96.1236 12.3364 96.3645 12.5776C96.6054 12.8189 96.9321 12.9546 97.273 12.9551H157.929Z" fill="#E6E6E6"/>
<path d="M123.373 7.36528C123.542 7.36553 123.71 7.33243 123.866 7.26788C124.023 7.20333 124.165 7.1086 124.284 6.9891C124.404 6.8696 124.499 6.72767 124.564 6.57145C124.629 6.41522 124.662 6.24776 124.662 6.07864C124.662 5.90951 124.629 5.74205 124.564 5.58582C124.499 5.4296 124.404 5.28768 124.284 5.16818C124.165 5.04868 124.023 4.95394 123.866 4.88939C123.71 4.82484 123.542 4.79175 123.373 4.79199H97.2729C97.1038 4.79175 96.9363 4.82484 96.7799 4.88939C96.6236 4.95394 96.4816 5.04868 96.3619 5.16818C96.2422 5.28768 96.1473 5.4296 96.0825 5.58582C96.0177 5.74205 95.9844 5.90951 95.9844 6.07864C95.9844 6.24776 96.0177 6.41522 96.0825 6.57145C96.1473 6.72767 96.2422 6.8696 96.3619 6.9891C96.4816 7.1086 96.6236 7.20333 96.7799 7.26788C96.9363 7.33243 97.1038 7.36553 97.2729 7.36528H123.373Z" fill="#E4E4E4"/>
<path d="M68.8198 49.4717C68.6839 49.602 68.5584 49.7428 68.4445 49.8928L51.5964 48.8849L49.7562 45.2207L43.8633 47.2752L46.4908 54.0785C46.703 54.6282 47.0878 55.0941 47.5874 55.4064C48.0871 55.7187 48.6745 55.8605 49.2615 55.8105L68.3945 54.1817C68.8238 54.7665 69.421 55.2067 70.1066 55.4438C70.7922 55.681 71.5338 55.7037 72.2327 55.5091C72.9315 55.3145 73.5546 54.9117 74.019 54.3543C74.4834 53.797 74.767 53.1114 74.8323 52.3889C74.8976 51.6664 74.7413 50.9411 74.3843 50.3095C74.0273 49.678 73.4865 49.1701 72.8338 48.8534C72.1811 48.5367 71.4474 48.4262 70.7304 48.5367C70.0134 48.6471 69.347 48.9733 68.8198 49.4717Z" fill="#FFB6B6"/>
<path d="M51.0242 48.8853L43.7362 51.4763C43.5288 51.55 43.308 51.5782 43.0888 51.5589C42.8695 51.5395 42.657 51.4732 42.4657 51.3644C42.2745 51.2555 42.1089 51.1067 41.9803 50.9281C41.8517 50.7495 41.7631 50.5453 41.7206 50.3294L40.2301 42.7633C39.8597 41.7004 39.9257 40.534 40.4137 39.5197C40.9016 38.5054 41.7718 37.7259 42.8334 37.3519C43.8951 36.978 45.0617 37.0401 46.0776 37.5247C47.0936 38.0093 47.876 38.8769 48.2535 39.9373L51.8635 46.7234C51.9668 46.9177 52.027 47.132 52.04 47.3517C52.053 47.5714 52.0185 47.7913 51.9389 47.9965C51.8592 48.2017 51.7363 48.3872 51.5784 48.5406C51.4206 48.694 51.2316 48.8115 51.0242 48.8853Z" fill="#3F3D56"/>
<path d="M76.0675 40.8693C78.6321 40.8693 80.7111 38.7903 80.7111 36.2257C80.7111 33.6611 78.6321 31.582 76.0675 31.582C73.5029 31.582 71.4238 33.6611 71.4238 36.2257C71.4238 38.7903 73.5029 40.8693 76.0675 40.8693Z" fill="#705AFF"/>
</g>
<defs>
<clipPath id="clip0_776_4308">
<rect width="179.733" height="140" fill="white" transform="translate(0.132812)"/>
</clipPath>
</defs>
</svg>
