<svg width="236" height="250" viewBox="0 0 236 250" fill="none" xmlns="http://www.w3.org/2000/svg">
<g clip-path="url(#clip0_755_1828)">
<path d="M194.768 241.919C189.36 241.919 184.197 242.023 179.471 242.211C179.479 242.173 179.483 242.134 179.485 242.095C179.485 240.455 173.853 238.957 164.565 237.814C191.919 236.328 210.255 233.601 210.255 230.482C210.255 225.775 168.506 221.959 117.007 221.959C65.5085 221.959 23.7603 225.775 23.7603 230.482C23.7603 231.36 25.2139 232.206 27.9102 233.003C11.8447 233.549 0.300049 235.054 0.300049 236.825C0.300049 239.056 18.6257 240.865 41.2315 240.865C48.4679 240.865 55.2642 240.679 61.1627 240.354C59.7386 240.908 58.9743 241.492 58.9743 242.095C58.9743 245.685 85.9515 248.595 119.23 248.595C133.056 248.595 145.792 248.092 155.96 247.247C161.407 248.847 176.723 250 194.768 250C217.374 250 235.7 248.191 235.7 245.96C235.7 243.728 217.374 241.919 194.768 241.919Z" fill="#F2F2F2"/>
<path d="M34.0426 218.574C36.3988 227.284 44.4694 232.679 44.4694 232.679C44.4694 232.679 48.7198 223.951 46.3636 215.241C44.0074 206.531 35.9368 201.137 35.9368 201.137C35.9368 201.137 31.6864 209.864 34.0426 218.574Z" fill="#3F3D56"/>
<path d="M37.5049 216.702C43.9704 222.996 44.7601 232.672 44.7601 232.672C44.7601 232.672 35.0672 232.142 28.6017 225.848C22.1361 219.554 21.3464 209.879 21.3464 209.879C21.3464 209.879 31.0394 210.409 37.5049 216.702Z" fill="#705AFF"/>
<path d="M118.907 31.4465C118.907 31.4465 119.649 32.2969 118.378 33.9422C117.107 35.5875 118.133 39.1577 120.549 39.2486C122.964 39.3396 124.135 40.3512 123.553 41.6838C122.971 43.0165 122.271 46.183 124.901 45.7015C127.532 45.22 128.363 46.2672 127.897 47.0721C127.432 47.877 129.07 45.4715 129.07 45.4715C129.07 45.4715 130.536 47.6552 132.335 46.1266C134.135 44.5979 134.85 30.7407 131.182 30.5058C127.514 30.271 118.907 31.4465 118.907 31.4465Z" fill="#2F2E41"/>
<path d="M137.501 97.3451L138.337 103.196H142.099L140.845 96.5093L137.501 97.3451Z" fill="#9F616A"/>
<path d="M142.516 99.6436C142.516 99.6436 147.531 104.241 146.277 104.658C145.024 105.076 140.427 110.091 139.591 110.509C138.843 110.883 130.815 113.435 132.068 110.509C133.322 107.584 136.248 105.912 136.248 105.912L137.083 100.897L142.516 99.6436Z" fill="#F2F2F2"/>
<path opacity="0.1" d="M142.516 99.6436C142.516 99.6436 147.531 104.241 146.277 104.658C145.024 105.076 140.427 110.091 139.591 110.509C138.843 110.883 130.815 113.435 132.068 110.509C133.322 107.584 136.248 105.912 136.248 105.912L137.083 100.897L142.516 99.6436Z" fill="black"/>
<path d="M142.516 92.9568L143.352 98.8078H147.113L145.859 92.121L142.516 92.9568Z" fill="#9F616A"/>
<path d="M126.8 77.4261L132.277 59.3151C132.277 59.3151 123.083 50.9568 129.352 48.4494C135.621 45.9419 137.292 58.4792 137.292 58.4792L135.203 80.2107H126.844L126.8 77.4261Z" fill="#FFB8B8"/>
<path d="M139.591 64.121C139.591 64.121 128.79 77.9745 130.429 80.0329C132.068 82.0913 134.994 94.6286 134.994 94.6286C134.994 94.6286 134.576 99.6436 136.248 99.6436C137.919 99.6436 142.098 98.8077 142.098 97.554C142.098 96.3003 138.337 80.4196 138.337 80.4196L149.203 66.2106L139.591 64.121Z" fill="#705AFF"/>
<path d="M140.427 64.9569L151.292 59.1061C151.292 59.1061 158.815 62.8673 156.725 66.2106C154.636 69.5539 145.024 78.3301 145.024 78.3301C145.024 78.3301 147.949 92.5391 147.531 92.957C147.113 93.3749 142.516 95.0465 141.263 94.6286C140.009 94.2107 133.322 77.9121 134.994 77.0763C136.666 76.2405 142.098 67.4644 142.098 67.4644L140.427 64.9569Z" fill="#705AFF"/>
<path d="M110.755 218.331C110.755 218.331 118.277 222.928 119.113 222.928C119.949 222.928 131.233 225.853 126.218 227.943C121.203 230.032 101.979 227.107 102.397 225.853C102.815 224.599 102.397 217.077 103.232 217.077C104.068 217.077 110.755 218.331 110.755 218.331Z" fill="#2F2E41"/>
<path d="M119.113 224.181C119.113 224.181 126.636 228.778 127.471 228.778C128.307 228.778 139.591 231.704 134.576 233.793C129.561 235.883 110.337 232.957 110.755 231.704C111.173 230.45 110.755 222.928 111.591 222.928C112.427 222.928 119.113 224.181 119.113 224.181Z" fill="#2F2E41"/>
<path d="M111.173 135.584C111.173 135.584 112.426 141.853 114.516 146.45C116.606 151.047 114.098 172.778 112.844 176.121C111.591 179.465 99.4712 219.166 103.232 219.584C106.994 220.002 114.516 219.584 114.516 219.584L126.635 181.554L124.546 130.569L111.173 135.584Z" fill="#575A88"/>
<path opacity="0.1" d="M111.173 135.584C111.173 135.584 112.426 141.853 114.516 146.45C116.606 151.047 114.098 172.778 112.844 176.121C111.591 179.465 99.4712 219.166 103.232 219.584C106.994 220.002 114.516 219.584 114.516 219.584L126.635 181.554L124.546 130.569L111.173 135.584Z" fill="black"/>
<path d="M113.68 136.002C113.68 136.002 115.352 147.286 119.113 149.793C122.874 152.3 121.621 154.808 121.621 154.808L119.949 176.957C119.949 176.957 103.65 217.077 108.665 222.092C113.68 227.107 118.277 225.017 120.367 224.599C122.457 224.181 126.218 215.405 124.128 212.898C122.039 210.39 128.307 195.345 129.979 192.838C131.651 190.33 129.979 186.987 132.069 186.151C134.158 185.316 138.755 179.883 138.755 176.121C138.755 172.36 144.606 132.241 140.845 129.733C137.083 127.226 112.974 134.908 112.974 134.908L113.68 136.002Z" fill="#575A88"/>
<path d="M105.74 77.4942C110.818 77.4942 114.934 73.3779 114.934 68.3002C114.934 63.2224 110.818 59.1061 105.74 59.1061C100.662 59.1061 96.5459 63.2224 96.5459 68.3002C96.5459 73.3779 100.662 77.4942 105.74 77.4942Z" fill="#FFB8B8"/>
<path d="M126.635 42.3896C130.79 42.3896 134.158 39.0217 134.158 34.8672C134.158 30.7127 130.79 27.3448 126.635 27.3448C122.481 27.3448 119.113 30.7127 119.113 34.8672C119.113 39.0217 122.481 42.3896 126.635 42.3896Z" fill="#9F616A"/>
<path d="M112.009 68.3002C112.009 68.3002 117.024 77.4942 119.531 77.4942C122.039 77.4942 109.501 87.1062 109.501 87.1062C109.501 87.1062 105.322 74.9868 104.486 74.5689C103.65 74.151 112.009 68.3002 112.009 68.3002Z" fill="#FFB8B8"/>
<path d="M113.68 76.6584C113.68 76.6584 102.815 80.4196 103.233 81.6733C103.65 82.9271 100.307 85.8525 100.307 87.1062C100.307 88.3599 99.4713 99.6436 104.486 108.838C109.501 118.032 117.442 124.718 113.68 128.897C109.919 133.077 104.068 140.181 110.337 140.181C116.606 140.181 126.636 130.987 135.83 134.33C145.024 137.674 142.934 125.136 142.934 125.136C142.934 125.136 144.188 115.524 141.68 112.599C139.173 109.673 130.397 88.7778 130.397 86.2704C130.397 83.7629 122.039 74.1509 119.949 74.1509C117.859 74.1509 113.68 76.6584 113.68 76.6584Z" fill="#8985A8"/>
<path d="M128.725 39.4643C128.725 39.4643 132.128 45.9345 132.307 47.0875C132.486 48.2404 138.337 39.4643 138.337 39.4643L131.65 34.8672L128.725 39.4643Z" fill="#9F616A"/>
<path d="M129.979 44.4792L137.083 36.9568L145.442 40.718C145.442 40.718 153.237 57.8524 153.727 59.1061C154.218 60.3598 141.263 66.2106 140.009 66.2106C138.755 66.2106 129.979 53.2553 129.979 53.2553C129.979 53.2553 127.889 46.9867 129.979 44.4792Z" fill="#F2F2F2"/>
<path d="M126.635 54.5091V62.0313H131.651L130.001 54.5091H126.635Z" fill="#9F616A"/>
<path d="M129.497 60.1509C128.863 60.1423 128.242 60.3271 127.716 60.6807C127.19 61.0343 126.784 61.5398 126.553 62.1298C126.226 63.0134 126.337 63.9419 127.889 64.33C131.233 65.1658 131.65 64.33 131.65 64.33C131.65 64.33 137.454 63.4942 136.224 61.8225C134.994 60.1509 131.65 60.1509 131.65 60.1509H129.497Z" fill="#9F616A"/>
<path d="M147.531 96.3003C147.531 96.3003 152.546 100.897 151.292 101.315C150.039 101.733 145.442 106.748 144.606 107.166C143.858 107.54 135.83 110.091 137.083 107.166C138.337 104.241 141.262 102.569 141.262 102.569L142.098 97.554L147.531 96.3003Z" fill="#F2F2F2"/>
<path d="M102.464 61.223C103.039 60.886 103.719 60.4662 103.735 59.7997C103.72 59.5548 103.634 59.3196 103.487 59.123C103.34 58.9264 103.139 58.7769 102.909 58.6929C102.445 58.5329 101.954 58.4668 101.465 58.4983C101.277 58.4887 101.089 58.5074 100.906 58.5536C100.43 58.7005 100.156 59.1838 99.7812 59.5118C99.2367 59.9881 98.4868 60.1282 97.7866 60.3097C96.6134 60.6141 95.4884 61.0803 94.4438 61.695C94.2375 61.7993 94.0568 61.9479 93.9147 62.1303C93.7504 62.466 93.6771 62.839 93.7021 63.212C93.6078 64.6299 92.7577 65.8642 92.1231 67.1356C91.4884 68.4071 91.0715 69.991 91.8164 71.2012C92.112 71.5778 92.3879 71.9694 92.643 72.3746C93.1709 73.4746 92.512 74.829 92.8934 75.988C93.0641 76.4443 93.3379 76.8549 93.6935 77.1877C94.4275 77.9269 95.3317 78.4744 96.3268 78.7821C97.2765 79.0745 98.4548 79.2694 98.8267 80.1909C98.9863 80.5861 98.9537 81.0518 99.1788 81.4138C99.4577 81.8623 100.033 82.0071 100.552 82.1027C101.135 82.236 101.735 82.2795 102.331 82.2315C102.629 82.2057 102.919 82.1196 103.182 81.9784C103.446 81.8372 103.678 81.6439 103.865 81.4101C104.034 81.0802 104.242 80.7725 104.486 80.4939C105.092 79.9882 106.011 80.3876 106.788 80.2536C107.103 80.1942 107.394 80.0461 107.628 79.8268C107.861 79.6075 108.028 79.3261 108.107 79.0156C108.128 78.6849 108.219 78.3624 108.375 78.0695C108.857 77.4519 110.127 77.8879 110.446 77.1718C110.653 76.7065 110.22 76.2149 109.801 75.9252C109.118 75.4527 108.354 75.0893 107.742 74.5286C107.129 73.9678 106.676 73.1289 106.868 72.3209C107.155 71.1091 108.737 70.4419 108.79 69.1977C108.82 68.4848 108.308 67.8593 107.734 67.4348C107.161 67.0104 106.496 66.7054 105.984 66.2092C105.609 65.8465 105.326 65.3913 104.919 65.0656C104.182 64.4767 103.175 64.4052 102.236 64.3089C101.733 64.2573 99.7258 64.0248 99.8048 63.2583C99.8704 62.6217 101.953 61.5223 102.464 61.223Z" fill="#2F2E41"/>
<path d="M129.979 44.0613C129.979 44.0613 125.382 45.7329 125.382 47.8225C125.382 49.912 123.292 56.5986 125.382 56.5986C127.471 56.5986 131.65 54.9944 131.65 54.9944L129.979 44.0613Z" fill="#F2F2F2"/>
<path d="M128.725 74.1509C128.725 74.1509 140.845 69.9718 141.263 69.9718C141.68 69.9718 147.531 66.6285 147.113 65.3748L145.442 54.927C145.442 54.927 138.755 41.1359 143.352 41.1359C147.949 41.1359 150.457 52.0016 150.457 52.0016C150.457 52.0016 160.487 70.8076 155.054 74.9868C149.621 79.1659 127.054 86.6883 125.8 85.4346C124.546 84.1808 128.725 74.1509 128.725 74.1509Z" fill="#FFB8B8"/>
<path d="M140.427 46.9867L143.248 49.7051L139.591 53.2553C139.591 53.2553 134.576 51.1658 134.994 52.4195C135.412 53.6732 137.919 57.4345 139.591 57.4345C141.262 57.4345 149.963 52.0016 150.001 50.33C150.039 48.6583 144.606 42.8075 143.352 42.3896C142.098 41.9717 140.427 46.9867 140.427 46.9867Z" fill="#9F616A"/>
<path d="M135.122 44.0736C135.122 44.0736 141.262 49.4941 142.098 49.4941C142.934 49.4941 144.454 41.35 144.454 41.35C144.454 41.35 139.5 38.122 137.665 39.0021C135.83 39.8822 135.122 44.0736 135.122 44.0736Z" fill="#F2F2F2"/>
<path d="M113.68 79.1659C113.68 79.1659 113.68 73.3151 126.218 73.3151H131.65L129.143 87.1062L120.785 89.6137L113.68 79.1659Z" fill="#8985A8"/>
<path d="M141.067 31.8184C139.838 31.8125 138.611 31.7368 137.39 31.5917C136.432 29.276 135.212 27.333 133.892 26.6086C132.955 25.7702 131.509 25.1609 130.375 24.6791C127.591 23.4962 122.956 24.234 122.685 25.5794C117.205 28.1975 118.59 32.7954 118.59 32.7954C119.441 34.5951 121.351 33.7975 122.972 32.9825C123.385 34.2871 124.363 35.3942 125.762 35.4469C128.438 35.5476 129.735 36.6683 129.09 38.1446C128.445 39.6209 127.67 43.1287 130.584 42.5954C133.498 42.062 134.419 43.2221 133.903 44.1137C133.387 45.0054 135.203 42.3405 135.203 42.3405C135.203 42.3405 136.826 44.7597 138.819 43.0662C139.021 42.8721 139.165 42.6259 139.235 42.3549C140.162 42.7538 140.896 42.9053 141.312 42.7188C143.7 41.6506 142.217 39.1424 142.217 39.1424C142.217 39.1424 145.404 38.6535 144.377 38.7345C143.35 38.8156 142.701 37.4844 144.438 35.0851C146.176 32.6859 142.677 31.8728 141.067 31.8184Z" fill="#2F2E41"/>
<path d="M124.899 29.9375L123.709 29.5416L122.522 33.1104L123.711 33.5062L124.899 29.9375Z" fill="#705AFF"/>
<path d="M50.9126 96.7318C34.6536 96.8067 21.4194 97.0469 21.4194 97.0469C21.4194 97.0469 37.1503 76.2098 50.8536 83.9298C64.5569 91.6498 80.2985 96.7756 80.2985 96.7756C80.2985 96.7756 67.1716 96.6568 50.9126 96.7318Z" fill="#F2F2F2"/>
<path d="M167.91 14.5176C151.651 14.5925 138.417 14.8327 138.417 14.8327C138.417 14.8327 154.147 -6.00443 167.851 1.7156C181.554 9.43562 197.296 14.5614 197.296 14.5614C197.296 14.5614 184.169 14.4426 167.91 14.5176Z" fill="#F2F2F2"/>
<path d="M194.925 102.705C211.184 102.78 224.418 103.02 224.418 103.02C224.418 103.02 208.687 82.1826 194.984 89.9026C181.28 97.6226 165.539 102.748 165.539 102.748C165.539 102.748 178.666 102.63 194.925 102.705Z" fill="#F2F2F2"/>
</g>
<defs>
<clipPath id="clip0_755_1828">
<rect width="235.4" height="250" fill="white" transform="translate(0.300049)"/>
</clipPath>
</defs>
</svg>
