<svg width="178" height="140" viewBox="0 0 178 140" fill="none" xmlns="http://www.w3.org/2000/svg">
<g clip-path="url(#clip0_747_7427)">
<path d="M42.8035 75.906C41.385 68.3141 43.6183 59.6772 49.8255 55.0818C49.4737 63.4732 52.1014 71.7185 57.2436 78.359C59.2361 80.9128 61.7181 83.5457 61.641 86.7839C61.593 88.7988 60.5034 90.6758 59.0674 92.0899C57.6313 93.504 55.8624 94.5236 54.1146 95.5272L53.8425 95.9504C48.719 90.1714 44.222 83.4978 42.8035 75.906Z" fill="#F0F0F0"/>
<path d="M49.9378 55.1979C47.3299 61.0344 46.6274 67.5442 47.9299 73.8027C48.1864 75.155 48.6545 76.4584 49.3168 77.6649C50 78.8194 50.9799 79.7699 52.1547 80.4176C53.2379 81.0435 54.4184 81.5583 55.3307 82.4366C55.7909 82.8931 56.1495 83.4418 56.3828 84.0466C56.6162 84.6515 56.719 85.2988 56.6847 85.9462C56.641 87.5614 56.0195 89.0647 55.3607 90.5136C54.6292 92.1224 53.8439 93.7818 53.8913 95.5905C53.8971 95.8096 53.5567 95.8057 53.551 95.5869C53.4684 92.4401 55.7435 89.9129 56.2504 86.8934C56.487 85.4844 56.3003 83.9956 55.3098 82.9035C54.4436 81.9485 53.2267 81.4166 52.1244 80.7923C50.9691 80.1772 49.982 79.2887 49.2493 78.2042C48.5276 77.0353 48.0101 75.7521 47.719 74.4095C47.0153 71.3975 46.7896 68.2935 47.0502 65.2114C47.328 61.6921 48.2058 58.2463 49.6457 55.023C49.7348 54.8236 50.0264 54.9997 49.9378 55.1979Z" fill="white"/>
<path d="M47.3927 71.8122C46.313 71.8882 45.2414 71.5779 44.3694 70.9368C43.4973 70.2956 42.8816 69.3654 42.6321 68.3121C42.5823 68.0989 42.9114 68.0115 42.9612 68.2251C43.1917 69.2063 43.7654 70.0728 44.5787 70.6681C45.392 71.2635 46.3913 71.5485 47.3963 71.4718C47.6147 71.4554 47.6099 71.7959 47.3927 71.8122Z" fill="white"/>
<path d="M51.5648 80.1725C53.0305 78.5151 53.8177 76.366 53.7693 74.154C53.7643 73.9348 54.1047 73.9386 54.1097 74.1575C54.1557 76.4596 53.332 78.6943 51.803 80.4158C51.6571 80.5797 51.4197 80.3356 51.5648 80.1725Z" fill="white"/>
<path d="M47.7286 61.9035C48.1525 61.9611 48.5841 61.9126 48.9846 61.7622C49.3851 61.6118 49.7419 61.3644 50.0232 61.042C50.1669 60.8763 50.4041 61.1205 50.2613 61.2852C49.949 61.6399 49.5545 61.9128 49.1124 62.0799C48.6703 62.247 48.1939 62.3033 47.725 62.2438C47.6804 62.2419 47.6381 62.2231 47.6068 62.1912C47.5756 62.1592 47.5576 62.1166 47.5566 62.0719C47.5573 62.0268 47.5758 61.9838 47.608 61.9523C47.6402 61.9208 47.6836 61.9032 47.7286 61.9035Z" fill="white"/>
<path d="M75.2101 61.3614C75.1233 61.4675 75.0365 61.5735 74.9504 61.6823C73.791 63.1141 72.7498 64.6377 71.8371 66.2381C71.7646 66.3607 71.693 66.4861 71.6241 66.6105C69.4664 70.4897 68.0476 74.7357 67.4399 79.1328C67.1996 80.8827 67.0929 82.6483 67.1206 84.4144C67.1589 86.8535 67.3946 89.495 66.6469 91.7383C66.5716 91.9732 66.4817 92.2032 66.3779 92.427L54.3805 96.2495C54.3489 96.2445 54.318 96.2423 54.2862 96.2373L53.8142 96.4119C53.8064 96.3209 53.8003 96.2264 53.7925 96.1354C53.7877 96.0826 53.7857 96.029 53.7809 95.9762C53.7786 95.9408 53.7764 95.9053 53.7723 95.8734C53.7715 95.8616 53.7708 95.8498 53.7709 95.8407C53.7668 95.8089 53.7663 95.7789 53.7631 95.7497C53.7274 95.2214 53.6944 94.6922 53.667 94.1612C53.6661 94.1585 53.6661 94.1585 53.6679 94.1549C53.462 90.1109 53.5919 86.0142 54.3394 82.0675C54.3619 81.9487 54.3835 81.8273 54.4115 81.7068C54.7583 79.9297 55.2498 78.1838 55.8811 76.4867C56.2297 75.5586 56.6251 74.6487 57.0658 73.7605C58.2088 71.4678 59.7053 69.3692 61.5005 67.5415C65.0796 63.8986 69.784 61.4409 74.8248 61.3636C74.9538 61.3617 75.0802 61.3605 75.2101 61.3614Z" fill="#F0F0F0"/>
<path d="M75.2309 61.5223C69.6347 64.6123 65.1544 69.387 62.4264 75.1683C61.817 76.4025 61.406 77.725 61.2084 79.0871C61.0589 80.4202 61.269 81.7691 61.817 82.9935C62.3051 84.1455 62.9377 85.2673 63.1373 86.5178C63.2299 87.1594 63.1858 87.8134 63.008 88.4368C62.8302 89.0602 62.5226 89.639 62.1054 90.1352C61.098 91.3986 59.6967 92.2246 58.2983 92.9849C56.7457 93.829 55.1196 94.6811 54.0685 96.1538C53.9412 96.3323 53.6717 96.1242 53.7989 95.946C55.6276 93.3838 58.9657 92.7357 61.1884 90.63C62.2255 89.6474 62.9729 88.3464 62.8395 86.878C62.7229 85.5939 62.0715 84.4366 61.5672 83.2745C61.0151 82.0878 60.7619 80.784 60.8298 79.477C60.9574 78.1092 61.3168 76.7731 61.8926 75.5258C63.1443 72.6972 64.8328 70.083 66.8965 67.779C69.2372 65.1363 72.0127 62.9135 75.103 61.2068C75.2943 61.1012 75.421 61.4174 75.2309 61.5223Z" fill="white"/>
<path d="M63.1956 73.2551C62.2877 72.6657 61.619 71.7728 61.3087 70.7358C60.9984 69.6989 61.0668 68.5854 61.5018 67.5942C61.5904 67.394 61.9058 67.5224 61.817 67.7229C61.4103 68.6451 61.3467 69.6823 61.6376 70.6474C61.9285 71.6124 62.5547 72.4416 63.4034 72.9854C63.5876 73.1038 63.3788 73.3728 63.1956 73.2551Z" fill="white"/>
<path d="M61.4923 82.442C63.6605 82.0011 65.5828 80.7591 66.876 78.9638C67.004 78.7858 67.2735 78.9938 67.1456 79.1716C65.7964 81.0373 63.7933 82.3257 61.536 82.7796C61.3208 82.8227 61.2782 82.4849 61.4923 82.442Z" fill="white"/>
<path d="M69.4282 65.5452C69.7319 65.8464 70.1057 66.0675 70.516 66.1886C70.9263 66.3096 71.3603 66.3269 71.7789 66.2388C71.9934 66.193 72.0357 66.5309 71.8226 66.5764C71.3596 66.6715 70.8804 66.6519 70.4268 66.5191C69.9732 66.3864 69.559 66.1445 69.2204 65.8148C69.1859 65.7864 69.1635 65.7459 69.1577 65.7015C69.152 65.6572 69.1633 65.6123 69.1895 65.5761C69.2172 65.5405 69.2577 65.5173 69.3024 65.5115C69.3471 65.5057 69.3923 65.5178 69.4282 65.5452Z" fill="white"/>
<path d="M94.0553 19.8465C94.0955 20.0232 94.1217 20.2028 94.1337 20.3836L108.2 28.4986L111.619 26.5303L115.264 31.302L109.55 35.3747C109.088 35.7038 108.533 35.8742 107.966 35.8603C107.399 35.8465 106.852 35.6493 106.407 35.2982L91.902 23.855C91.2474 24.0973 90.5346 24.1346 89.8583 23.9619C89.1819 23.7892 88.5743 23.4146 88.116 22.8881C87.6577 22.3616 87.3706 21.708 87.2929 21.0144C87.2151 20.3207 87.3504 19.6198 87.6807 19.0049C88.011 18.3899 88.5207 17.8902 89.142 17.572C89.7633 17.2538 90.4668 17.1324 91.1588 17.2237C91.8508 17.3151 92.4986 17.615 93.016 18.0835C93.5334 18.552 93.8959 19.167 94.0553 19.8465Z" fill="#FFB6B6"/>
<path d="M108.395 27.6026C108.439 27.3956 108.528 27.2007 108.655 27.0311C108.782 26.8615 108.944 26.7213 109.13 26.62L115.624 23.0816C116.489 22.4289 117.577 22.1458 118.65 22.2943C119.724 22.4429 120.694 23.0111 121.349 23.8742C122.004 24.7373 122.29 25.825 122.144 26.8986C121.998 27.9723 121.433 28.9443 120.571 29.6015L115.366 34.8892C115.218 35.0401 115.039 35.1572 114.841 35.2325C114.643 35.3079 114.431 35.3397 114.22 35.3258C114.008 35.3119 113.803 35.2526 113.616 35.152C113.43 35.0514 113.267 34.9118 113.14 34.7428L108.659 28.8011C108.531 28.632 108.441 28.4375 108.396 28.2306C108.35 28.0238 108.35 27.8096 108.395 27.6026Z" fill="#3F3D56"/>
<path d="M119.997 7.03143C120.931 4.05355 123.056 1.32234 125.995 0.315654C128.934 -0.691031 133.237 0.842478 135.446 3.04431C139.487 7.07191 140.474 20.9082 137.697 25.2806C137.145 25.2513 135.239 25.2297 134.68 25.2088L133.889 22.5734V25.1828C129.527 25.048 124.985 25.1324 120.44 25.2197C120.033 22.124 119.063 10.0093 119.997 7.03143Z" fill="#2F2E41"/>
<path d="M118.747 132.027H114.768L112.875 116.679L118.748 116.679L118.747 132.027Z" fill="#FFB6B6"/>
<path d="M153.581 129.553L149.731 130.556L144.027 116.182L149.71 114.701L153.581 129.553Z" fill="#FFB6B6"/>
<path d="M131.653 37.7584L132.555 40.1027L132.375 42.4469L114.729 48.5588L115.604 38.2994L117.588 35.9549L131.653 37.7584Z" fill="#FFB6B6"/>
<path d="M126.072 16.6623C129.553 16.6623 132.375 13.8405 132.375 10.3598C132.375 6.87898 129.553 4.05725 126.072 4.05725C122.591 4.05725 119.77 6.87898 119.77 10.3598C119.77 13.8405 122.591 16.6623 126.072 16.6623Z" fill="#FFB7B7"/>
<path d="M121.743 2.15279C122.954 1.41453 124.341 1.01517 125.759 0.996477C127.177 0.97778 128.575 1.34043 129.805 2.04651C131.035 2.75259 132.052 3.77617 132.751 5.01022C133.45 6.24427 133.805 7.64346 133.778 9.06149C130.343 9.93956 126.682 10.3068 122.802 9.27297L121.915 7.10246L121.392 9.27457C120.205 10.1095 119.06 10.108 117.956 9.27006C117.909 7.85603 118.234 6.45447 118.899 5.2055C119.563 3.95652 120.544 2.90388 121.743 2.15279Z" fill="#2F2E41"/>
<path d="M120.527 139.583H117.704L117.2 136.917L115.909 139.583H108.42C108.061 139.583 107.711 139.468 107.422 139.256C107.133 139.043 106.919 138.743 106.813 138.401C106.706 138.058 106.711 137.69 106.828 137.351C106.945 137.011 107.168 136.718 107.463 136.514L113.444 132.384V129.689L119.734 130.064L120.527 139.583Z" fill="#2F2E41"/>
<path d="M157.558 136.324L154.826 137.037L153.666 134.584L153.089 137.489L145.843 139.378C145.495 139.469 145.128 139.446 144.794 139.313C144.461 139.18 144.179 138.944 143.989 138.64C143.799 138.335 143.712 137.977 143.739 137.62C143.767 137.262 143.908 136.922 144.143 136.65L148.888 131.145L148.208 128.537L154.39 127.314L157.558 136.324Z" fill="#2F2E41"/>
<path d="M153.094 119.901L141.43 95.9276L137.768 66.7494C140.293 62.0609 135.604 52.5206 135.604 52.5206V48.5151L117.442 51.9414C113.727 62.0733 111.926 72.8069 112.129 83.5964L112.861 122.382H112.632C112.251 122.382 111.885 122.534 111.616 122.803C111.347 123.073 111.195 123.438 111.195 123.819C111.195 124.2 111.347 124.565 111.616 124.835C111.885 125.104 112.251 125.255 112.632 125.255H119.814C120.195 125.255 120.56 125.104 120.829 124.835C121.099 124.565 121.25 124.2 121.25 123.819C121.25 123.438 121.099 123.073 120.829 122.803C120.56 122.534 120.195 122.382 119.814 122.382H119.629L124.784 73.0397L130.779 97.3891L145.267 119.808C144.897 119.837 144.553 120.008 144.307 120.285C144.061 120.562 143.932 120.924 143.947 121.294C143.962 121.665 144.119 122.015 144.387 122.271C144.655 122.528 145.011 122.671 145.382 122.67H152.564C152.898 122.67 153.222 122.554 153.479 122.341C153.737 122.128 153.912 121.832 153.975 121.504C154.038 121.176 153.984 120.837 153.823 120.544C153.662 120.251 153.404 120.024 153.094 119.901Z" fill="#2F2E41"/>
<path d="M137.244 54.9764C137.185 54.742 137.052 54.5325 136.866 54.3779C136.68 54.2234 136.45 54.1317 136.209 54.116C135.969 51.379 134.388 33.8256 134.327 33.3106L134.325 33.2889L133.867 23.5047C133.85 23.1493 133.703 22.8126 133.454 22.5587C133.205 22.3049 132.871 22.1517 132.516 22.1285L130.097 21.9704C130.064 21.9692 130.032 21.9553 130.009 21.9314C129.986 21.9075 129.973 21.8756 129.973 21.8424C129.973 21.5753 129.921 21.3107 129.818 21.0639C129.716 20.8171 129.566 20.5928 129.377 20.4039C129.189 20.215 128.964 20.0652 128.717 19.9629C128.471 19.8607 128.206 19.8081 127.939 19.8081H120.777C120.313 19.8082 119.865 19.9777 119.517 20.2847C119.169 20.5917 118.945 21.0151 118.888 21.4754C118.884 21.5071 118.869 21.5364 118.846 21.5575C118.822 21.5786 118.791 21.5899 118.759 21.5892L118.758 21.5892C117.944 21.5724 117.151 21.848 116.523 22.3658C115.895 22.8836 115.474 23.6094 115.335 24.4115C114.356 30.1086 112.393 43.0389 113.364 50.2274C113.701 52.7298 113.548 56.4935 113.42 58.5873C113.407 58.7896 113.435 58.9925 113.501 59.1842C113.566 59.3759 113.67 59.5528 113.804 59.7047C113.518 59.787 113.276 59.9771 113.127 60.2347C112.979 60.4924 112.937 60.7975 113.009 61.0858C113.084 61.3813 113.272 61.6352 113.534 61.7915C113.796 61.9478 114.109 61.9937 114.404 61.9192L136.411 56.3715C136.707 56.297 136.96 56.1082 137.117 55.8466C137.273 55.5849 137.319 55.2719 137.244 54.9764Z" fill="#3F3D56"/>
<path d="M100.874 96.1104C100.87 95.4679 100.639 94.8476 100.221 94.3595C99.8031 93.8714 99.2259 93.547 98.5918 93.4439L59.5746 87.0369C59.2005 86.9749 58.8175 86.9919 58.4503 87.0868L49.3064 89.4512L44.0599 90.8093L34.3778 93.3122C33.7933 93.464 33.2757 93.8055 32.9062 94.2831C32.5367 94.7608 32.3361 95.3475 32.3359 95.9514V136.836C32.3388 137.459 32.5542 138.063 32.9465 138.547C33.3388 139.031 33.8845 139.368 34.4936 139.5L74.2353 139.05C74.4219 139.09 74.6123 139.11 74.8031 139.109C75.0812 139.109 75.3577 139.067 75.623 138.984L99.2345 139.572C99.7917 139.398 100.278 139.049 100.621 138.577C100.965 138.104 101.146 137.534 101.14 136.951L100.874 96.1104Z" fill="white"/>
<path d="M100.874 96.1104C100.87 95.4679 100.639 94.8476 100.221 94.3595C99.8031 93.8714 99.2259 93.547 98.5918 93.4439L59.5746 87.0369C59.2005 86.9749 58.8175 86.9919 58.4503 87.0868L49.3064 89.4512L44.0599 90.8093L34.3778 93.3122C33.7933 93.464 33.2757 93.8055 32.9062 94.2831C32.5367 94.7608 32.3361 95.3475 32.3359 95.9514V136.836C32.3388 137.459 32.5542 138.063 32.9465 138.547C33.3388 139.031 33.8845 139.368 34.4936 139.5L74.2353 139.05C74.4219 139.09 74.6123 139.11 74.8031 139.109C75.0812 139.109 75.3577 139.067 75.623 138.984L99.2345 139.572C99.7917 139.398 100.278 139.049 100.621 138.577C100.965 138.104 101.146 137.534 101.14 136.951L100.874 96.1104ZM99.0301 138.922L75.4186 139.484C75.0817 139.589 74.7237 139.606 74.3784 139.534L34.6344 138.834C34.1778 138.735 33.7687 138.483 33.4747 138.119C33.1807 137.756 33.0194 137.303 33.0173 136.836V95.9514C33.0176 95.5328 33.1462 95.1244 33.3858 94.7813C33.6254 94.4381 33.9645 94.1767 34.3573 94.0322C34.4197 94.0088 34.4834 93.9891 34.5481 93.9731L44.7913 91.3249L50.8486 89.7578L58.6207 87.7478C58.7874 87.7033 58.9592 87.6811 59.1317 87.6819C59.2428 87.6818 59.3537 87.691 59.4633 87.7091L98.4805 94.1162C98.7944 94.1677 99.0921 94.2916 99.3499 94.4781C99.6077 94.6646 99.8186 94.9085 99.9659 95.1905C100.113 95.4765 100.191 95.7932 100.193 96.1149L100.459 136.955C100.464 137.393 100.327 137.821 100.07 138.175C99.8127 138.529 99.448 138.791 99.0301 138.922Z" fill="#CCCCCC"/>
<path d="M99.9651 95.1905C99.9386 95.2079 99.9095 95.221 99.8788 95.2291L88.4023 98.3316L84.8297 99.2969L74.6683 102.043C74.6393 102.05 74.6096 102.054 74.5798 102.054C74.5592 102.054 74.5388 102.052 74.5184 102.05L33.5457 94.5795L33.4095 94.5545C33.3207 94.5379 33.2422 94.4867 33.191 94.4123C33.1398 94.3379 33.1202 94.2463 33.1364 94.1574C33.1526 94.0686 33.2033 93.9898 33.2775 93.9382C33.3516 93.8866 33.4432 93.8665 33.5321 93.8823L34.3566 94.0322L74.5661 101.364L83.3239 98.9971L88.2229 97.6729L99.5222 94.6182L99.7016 94.5705C99.7792 94.55 99.8615 94.5575 99.9341 94.5915C100.007 94.6255 100.065 94.684 100.099 94.7567C100.108 94.7741 100.115 94.7923 100.12 94.8112C100.138 94.8826 100.133 94.9582 100.105 95.0266C100.078 95.095 100.028 95.1525 99.9651 95.1905Z" fill="#CCCCCC"/>
<path d="M74.9197 139.188C74.7329 139.188 74.5807 139.038 74.579 140L74.2383 102.866C74.2365 101.528 74.3878 101.375 74.5759 101.373H74.579C74.7657 101.373 74.9179 101.523 74.9197 102.859L75.2603 139.994C75.2621 139.033 75.1109 139.187 74.9228 139.188H74.9197Z" fill="#CCCCCC"/>
<path d="M88.4983 139.619L84.8291 139.658L83.3233 98.9971L44.9012 91.3522C44.8636 91.3455 44.8264 91.3364 44.7899 91.3249C44.4948 91.2409 44.2369 91.0591 44.0586 90.8094L49.3051 89.4512L50.8473 89.7578L87.3048 97.0098C87.4965 97.0476 87.6777 97.1265 87.8361 97.241C87.9945 97.3554 88.1262 97.5028 88.2223 97.6729C88.3359 97.8705 88.4961 139.383 88.4983 139.619Z" fill="#CCCCCC"/>
<path d="M117.889 21.6868C117.885 21.2026 117.711 20.7351 117.396 20.3673C117.081 19.9994 116.646 19.755 116.168 19.6773L86.7629 14.8486C86.4809 14.8019 86.1923 14.8147 85.9156 14.8862L79.0242 16.6681L75.0702 17.6917L67.7732 19.578C67.3327 19.6924 66.9426 19.9498 66.6641 20.3097C66.3857 20.6697 66.2345 21.1119 66.2344 21.567V45.6678C66.2366 46.1376 66.3989 46.5925 66.6945 46.9576C66.9902 47.3226 67.4015 47.5759 67.8605 47.6756L97.8119 54.0484C97.9526 54.0786 98.096 54.0935 98.2399 54.0929C98.4494 54.0932 98.6578 54.0615 98.8578 53.9987L116.653 48.3792C117.073 48.2481 117.439 47.9852 117.698 47.6294C117.957 47.2735 118.094 46.8438 118.089 46.4039L117.889 21.6868Z" fill="white"/>
<path d="M86.4295 16.6184C86.408 16.6184 86.3867 16.6212 86.3659 16.6266L68.2234 21.3184C68.1684 21.3327 68.1197 21.3648 68.0849 21.4097C68.0501 21.4546 68.0313 21.5099 68.0312 21.5667V45.6671C68.0315 45.7258 68.0517 45.7827 68.0886 45.8283C68.1255 45.8739 68.1769 45.9056 68.2343 45.918L98.1857 52.2906C98.2291 52.2998 98.2741 52.2976 98.3164 52.2843L116.112 46.6649C116.164 46.6485 116.21 46.6157 116.242 46.5712C116.274 46.5268 116.291 46.4731 116.291 46.4182L116.091 21.7012C116.091 21.6408 116.069 21.5824 116.03 21.5365C115.99 21.4905 115.936 21.46 115.876 21.4503L86.471 16.6218C86.4572 16.6196 86.4434 16.6185 86.4295 16.6184Z" fill="#705AFF"/>
<path d="M117.889 21.6868C117.885 21.2026 117.711 20.7351 117.396 20.3673C117.081 19.9994 116.646 19.755 116.168 19.6773L86.7629 14.8486C86.4809 14.8019 86.1923 14.8147 85.9156 14.8862L79.0242 16.6681L75.0702 17.6917L67.7732 19.578C67.3327 19.6924 66.9426 19.9498 66.6641 20.3097C66.3857 20.6697 66.2345 21.1119 66.2344 21.567V45.6678C66.2366 46.1376 66.3989 46.5925 66.6945 46.9576C66.9902 47.3226 67.4015 47.5759 67.8605 47.6756L97.8119 54.0484C97.9526 54.0786 98.096 54.0935 98.2399 54.0929C98.4494 54.0932 98.6578 54.0615 98.8578 53.9987L116.653 48.3792C117.073 48.2481 117.439 47.9852 117.698 47.6294C117.957 47.2735 118.094 46.8438 118.089 46.4039L117.889 21.6868ZM116.499 47.8896L98.7038 53.5092C98.4499 53.5882 98.1801 53.6012 97.9198 53.5468L67.9666 47.1741C67.6224 47.0991 67.3142 46.909 67.0926 46.6351C66.871 46.3613 66.7494 46.0201 66.7479 45.6678V21.567C66.7481 21.2516 66.845 20.9438 67.0256 20.6852C67.2062 20.4265 67.4617 20.2295 67.7578 20.1206C67.8048 20.103 67.8528 20.0881 67.9016 20.0761L75.6214 18.0803L80.1865 16.8992L86.044 15.3843C86.1696 15.3508 86.2991 15.3341 86.4291 15.3347C86.5128 15.3346 86.5964 15.3415 86.679 15.3552L116.084 20.184C116.321 20.2228 116.545 20.3162 116.74 20.4567C116.934 20.5972 117.093 20.781 117.204 20.9936C117.315 21.2091 117.374 21.4478 117.375 21.6903L117.575 46.4073C117.579 46.7373 117.476 47.0597 117.282 47.3267C117.088 47.5937 116.814 47.7911 116.499 47.8896Z" fill="#3F3D56"/>
<path d="M117.204 20.9936C117.184 21.0067 117.162 21.0165 117.139 21.0227L108.49 23.3609L105.797 24.0884L98.1391 26.1578C98.1172 26.1632 98.0948 26.166 98.0723 26.1664C98.0568 26.1661 98.0414 26.1649 98.0261 26.1629L67.1469 20.5331L67.0442 20.5143C66.9772 20.5018 66.918 20.4633 66.8794 20.4072C66.8408 20.3511 66.8259 20.282 66.8382 20.215C66.8504 20.148 66.8887 20.0885 66.9446 20.0497C67.0005 20.0108 67.0696 19.9957 67.1366 20.0076L67.758 20.1206L98.062 25.646L104.662 23.8624L108.355 22.8645L116.87 20.5622L117.005 20.5263C117.064 20.5109 117.126 20.5165 117.181 20.5421C117.235 20.5678 117.279 20.6119 117.305 20.6666C117.312 20.6797 117.317 20.6935 117.32 20.7077C117.335 20.7616 117.331 20.8185 117.31 20.87C117.289 20.9216 117.252 20.9649 117.204 20.9936Z" fill="#3F3D56"/>
<path d="M98.3299 54.1528C98.2622 54.1528 98.1973 54.1261 98.1492 54.0784C98.1011 54.0308 98.0738 53.9661 98.0732 53.8984L97.8164 25.912C97.8158 25.8439 97.8423 25.7783 97.89 25.7297C97.9377 25.6812 98.0027 25.6535 98.0708 25.6529H98.0732C98.1409 25.6529 98.2058 25.6796 98.2539 25.7272C98.302 25.7749 98.3293 25.8396 98.3299 25.9073L98.5867 53.8937C98.5873 53.9618 98.5608 54.0273 98.5131 54.0759C98.4654 54.1245 98.4003 54.1522 98.3323 54.1528H98.3299Z" fill="#3F3D56"/>
<path d="M108.49 50.7482L105.797 51.4757L104.662 23.8624L75.7054 18.1008C75.677 18.0958 75.649 18.0889 75.6215 18.0803C75.3991 18.0169 75.2047 17.8799 75.0703 17.6917L79.0244 16.6681L80.1866 16.8992L107.663 22.3647C107.807 22.3932 107.944 22.4527 108.063 22.5389C108.183 22.6252 108.282 22.7363 108.354 22.8645C108.44 23.0134 108.488 50.5702 108.49 50.7482Z" fill="#3F3D56"/>
<path d="M107.283 35.0043C107.421 35.122 107.549 35.2505 107.666 35.3884L123.796 33.5046L125.365 29.8848L131.137 31.5382L128.983 38.2163C128.809 38.7559 128.465 39.2243 128.002 39.5515C127.539 39.8786 126.982 40.0468 126.415 40.0307L107.948 39.5057C107.567 40.0908 107.017 40.5461 106.371 40.8112C105.726 41.0762 105.015 41.1384 104.333 40.9894C103.651 40.8404 103.03 40.4874 102.554 39.9772C102.077 39.467 101.768 38.8238 101.666 38.1333C101.564 37.4428 101.675 36.7376 101.983 36.1115C102.292 35.4854 102.784 34.9681 103.393 34.6284C104.003 34.2888 104.702 34.1428 105.397 34.2099C106.092 34.277 106.749 34.5541 107.283 35.0043Z" fill="#FFB6B6"/>
<path d="M123.419 32.6692C123.332 32.4765 123.287 32.2671 123.287 32.0553C123.288 31.8436 123.334 31.6344 123.423 31.4422L126.522 24.7272C126.826 23.6874 127.531 22.8107 128.48 22.2895C129.43 21.7682 130.548 21.6449 131.589 21.9466C132.629 22.2482 133.508 22.9502 134.032 23.8986C134.555 24.847 134.682 25.9645 134.383 27.0059L133.362 34.355C133.333 34.5648 133.259 34.7657 133.145 34.9443C133.031 35.1229 132.88 35.2748 132.703 35.3897C132.525 35.5047 132.324 35.58 132.115 35.6104C131.905 35.6409 131.691 35.6258 131.488 35.5663L124.346 33.4733C124.143 33.4139 123.955 33.3112 123.795 33.1725C123.635 33.0337 123.507 32.862 123.419 32.6692Z" fill="#3F3D56"/>
<path d="M177.526 139.918H0.475835C0.385286 139.918 0.298533 139.882 0.234597 139.818C0.170662 139.754 0.134766 139.667 0.134766 139.576C0.134766 139.486 0.170662 139.399 0.234597 139.335C0.298533 139.271 0.385286 139.235 0.475835 139.234H177.526C177.617 139.234 177.704 139.27 177.768 139.335C177.832 139.399 177.868 139.486 177.868 139.576C177.868 139.667 177.832 139.754 177.768 139.818C177.704 139.882 177.617 139.918 177.526 139.918Z" fill="#CACACA"/>
<path d="M34.6394 103.572C40.3213 103.572 44.9273 98.9662 44.9273 93.2843C44.9273 87.6025 40.3213 82.9964 34.6394 82.9964C28.9576 82.9964 24.3516 87.6025 24.3516 93.2843C24.3516 98.9662 28.9576 103.572 34.6394 103.572Z" fill="#705AFF"/>
<path d="M33.2361 98.6387C33.0585 98.6387 32.8832 98.5973 32.7244 98.5178C32.5655 98.4384 32.4273 98.323 32.3207 98.1808L29.514 94.4385C29.3319 94.1957 29.2537 93.8905 29.2967 93.5901C29.3396 93.2896 29.5001 93.0185 29.7429 92.8364C29.9857 92.6543 30.2909 92.5762 30.5914 92.6191C30.8918 92.662 31.1629 92.8225 31.345 93.0654L33.1813 95.5135L37.8974 88.4394C37.9805 88.3138 38.0876 88.2059 38.2126 88.1218C38.3375 88.0377 38.4778 87.9791 38.6254 87.9494C38.773 87.9196 38.925 87.9193 39.0728 87.9484C39.2205 87.9775 39.3611 88.0355 39.4864 88.119C39.6117 88.2025 39.7192 88.31 39.8029 88.4352C39.8866 88.5603 39.9448 88.7008 39.9741 88.8485C40.0034 88.9962 40.0033 89.1483 39.9737 89.2959C39.9441 89.4436 39.8857 89.5839 39.8018 89.709L34.1884 98.1291C34.0869 98.2813 33.9503 98.4071 33.7901 98.4957C33.63 98.5843 33.4509 98.6332 33.268 98.6383C33.2574 98.6385 33.2467 98.6387 33.2361 98.6387Z" fill="white"/>
<path d="M78.4439 38.6397C78.4119 38.6396 78.38 38.6361 78.3488 38.629L69.443 36.618C69.3316 36.5927 69.2349 36.5243 69.1739 36.4277C69.113 36.3311 69.0929 36.2143 69.118 36.1029C69.1431 35.9915 69.2114 35.8947 69.3079 35.8336C69.4044 35.7725 69.5212 35.7522 69.6327 35.7772L78.5384 37.7882C78.6418 37.8116 78.733 37.8722 78.7945 37.9585C78.856 38.0449 78.8835 38.1508 78.8718 38.2562C78.8601 38.3616 78.81 38.4589 78.731 38.5296C78.6521 38.6004 78.5499 38.6396 78.4439 38.6397Z" fill="white"/>
<path d="M44.1703 119.577C44.139 119.584 44.1071 119.587 44.0751 119.586L34.9464 119.433C34.8322 119.431 34.7236 119.383 34.6443 119.301C34.5651 119.219 34.5216 119.109 34.5235 118.995C34.5254 118.881 34.5725 118.772 34.6545 118.692C34.7364 118.613 34.8465 118.569 34.9607 118.571L44.0894 118.725C44.1953 118.726 44.297 118.767 44.3748 118.839C44.4526 118.911 44.5011 119.009 44.5111 119.115C44.5211 119.22 44.4919 119.326 44.4291 119.411C44.3662 119.497 44.2741 119.556 44.1703 119.577Z" fill="#E6E6E6"/>
<path d="M47.3305 124.461C47.2992 124.468 47.2672 124.471 47.2352 124.47L38.1065 124.317C37.9924 124.314 37.8838 124.267 37.8045 124.185C37.7252 124.103 37.6818 123.993 37.6837 123.878C37.6855 123.764 37.7326 123.656 37.8146 123.576C37.8966 123.497 38.0067 123.453 38.1208 123.455L47.2495 123.608C47.3555 123.61 47.4571 123.651 47.5349 123.723C47.6127 123.795 47.6613 123.893 47.6713 123.999C47.6813 124.104 47.6521 124.21 47.5892 124.295C47.5264 124.38 47.4342 124.44 47.3305 124.461Z" fill="#E6E6E6"/>
</g>
<defs>
<clipPath id="clip0_747_7427">
<rect width="177.735" height="140" fill="white" transform="translate(0.132812)"/>
</clipPath>
</defs>
</svg>
