<svg width="25" height="24" viewBox="0 0 25 24" fill="none" xmlns="http://www.w3.org/2000/svg">
<path fill-rule="evenodd" clip-rule="evenodd" d="M20.3114 19.8757C20.9604 18.8857 21.2024 18.3797 21.6973 17.2688C18.0455 15.8828 17.4625 10.68 21.0704 8.68906C19.9704 7.30311 18.4195 6.50015 16.9565 6.50015C15.9006 6.50015 15.1746 6.77515 14.5256 7.02814C13.9756 7.23714 13.4806 7.42411 12.8647 7.42411C12.2047 7.42411 11.6217 7.21514 11.0057 6.99515C10.3348 6.75316 9.63078 6.50015 8.75082 6.50015C7.11188 6.50015 5.36295 7.50112 4.25199 9.21705C2.69005 11.637 2.96504 16.1688 5.48395 20.0406C6.38591 21.4266 7.59586 22.9775 9.16881 22.9995C9.82878 23.0105 10.2578 22.8126 10.7307 22.6036C11.2697 22.3616 11.8527 22.0976 12.8757 22.0976C13.8986 22.0866 14.4706 22.3616 15.0096 22.6036C15.4716 22.8126 15.8895 23.0105 16.5385 22.9995C18.1335 22.9775 19.4094 21.2616 20.3114 19.8757Z" fill="#0E0A24"/>
<path fill-rule="evenodd" clip-rule="evenodd" d="M16.7261 1.00037C16.9021 2.21032 16.4071 3.40929 15.7581 4.24526C15.0651 5.14722 13.8552 5.85118 12.6892 5.80718C12.4802 4.64122 13.0192 3.44226 13.6792 2.63929C14.4162 1.75933 15.6591 1.07736 16.7261 1.00037Z" fill="#0E0A24"/>
</svg>
