<svg width="20" height="21" viewBox="0 0 20 21" fill="none" xmlns="http://www.w3.org/2000/svg">
<path d="M11.3477 3.11408C11.5584 2.56704 11.9298 2.09666 12.4131 1.76491C12.8964 1.43316 13.4689 1.25559 14.0551 1.25562" stroke="black" stroke-width="1.5" stroke-linecap="round" stroke-linejoin="round"/>
<path d="M18.6334 14.9348C17.4936 17.7188 15.4245 19.7442 13.6929 19.7442H7.16753C4.62988 19.7442 1.36719 15.394 1.36719 10.6812C1.3672 9.63145 1.67105 8.60415 2.24206 7.72329C2.81308 6.84244 3.62684 6.14569 4.58513 5.71715C5.54342 5.2886 6.60526 5.14659 7.64248 5.30825C8.6797 5.46991 9.64796 5.92833 10.4304 6.62817L10.4302 6.628C10.9842 6.13261 11.6337 5.756 12.3389 5.52142C13.044 5.28684 13.7898 5.19928 14.5301 5.26413C15.2704 5.32898 15.9895 5.54487 16.6432 5.89847C17.2968 6.25207 17.871 6.73588 18.3304 7.32004L18.3303 7.32006C17.6644 7.72278 17.1187 8.2967 16.75 8.98204C16.3813 9.66738 16.2031 10.439 16.234 11.2167C16.2649 11.9943 16.5038 12.7494 16.9257 13.4033C17.3476 14.0572 17.9372 14.586 18.633 14.9346L18.6334 14.9348Z" stroke="black" stroke-width="1.5" stroke-linecap="round" stroke-linejoin="round"/>
</svg>
