<svg width="40" height="17" viewBox="0 0 40 17" fill="none" xmlns="http://www.w3.org/2000/svg">
<g clip-path="url(#clip0_1729_5884)">
<path d="M7.31182 2.5628C6.84307 3.10324 6.09307 3.5295 5.34307 3.4686C5.24932 2.73787 5.61651 1.96147 6.0462 1.48192C6.51495 0.926261 7.33526 0.530447 7.99932 0.5C8.07745 1.26118 7.77276 2.00714 7.31182 2.5628ZM7.99151 3.61323C6.90557 3.55233 5.97589 4.21456 5.46026 4.21456C4.93682 4.21456 4.14776 3.64367 3.28839 3.6589C2.1712 3.67412 1.13214 4.29068 0.561824 5.2726C-0.610051 7.23644 0.257136 10.1441 1.38995 11.7426C1.94464 12.5343 2.6087 13.402 3.4837 13.3716C4.31182 13.3411 4.63995 12.8463 5.63995 12.8463C6.64776 12.8463 6.93682 13.3716 7.81182 13.3563C8.71807 13.3411 9.28839 12.5647 9.84307 11.7731C10.4759 10.8749 10.7337 9.99952 10.7493 9.95385C10.7337 9.93863 8.99932 9.29163 8.9837 7.34301C8.96807 5.71408 10.3509 4.93768 10.4134 4.89201C9.63214 3.76546 8.41339 3.64367 7.99151 3.61323ZM14.2649 1.4058V13.2726H16.1556V9.21551H18.7728C21.1634 9.21551 22.8431 7.61703 22.8431 5.30304C22.8431 2.98906 21.1946 1.4058 18.8353 1.4058H14.2649ZM16.1556 2.95861H18.3353C19.9759 2.95861 20.9134 3.81113 20.9134 5.31066C20.9134 6.81018 19.9759 7.67031 18.3274 7.67031H16.1556V2.95861ZM26.2962 13.3639C27.4837 13.3639 28.5853 12.7778 29.0853 11.8492H29.1243V13.2726H30.8743V7.36584C30.8743 5.65319 29.4681 4.54948 27.304 4.54948C25.2962 4.54948 23.8118 5.66841 23.7571 7.20599H25.4603C25.6009 6.47526 26.2962 5.99572 27.2493 5.99572C28.4056 5.99572 29.054 6.52093 29.054 7.48763V8.14225L26.6946 8.27926C24.4993 8.40866 23.3118 9.28401 23.3118 10.8064C23.3118 12.344 24.5384 13.3639 26.2962 13.3639ZM26.804 11.9558C25.7962 11.9558 25.1556 11.4838 25.1556 10.7607C25.1556 10.0147 25.7728 9.58088 26.9524 9.51237L29.054 9.38297V10.0528C29.054 11.1641 28.0853 11.9558 26.804 11.9558ZM33.2103 16.5C35.054 16.5 35.9212 15.8149 36.679 13.7369L39.9993 4.66365H38.0774L35.8509 11.6741H35.8118L33.5853 4.66365H31.6087L34.8118 13.303L34.6399 13.8283C34.3509 14.7188 33.8821 15.0614 33.0462 15.0614C32.8978 15.0614 32.6087 15.0461 32.4915 15.0309V16.4543C32.6009 16.4848 33.0696 16.5 33.2103 16.5Z" fill="black"/>
</g>
<defs>
<clipPath id="clip0_1729_5884">
<rect width="40" height="16" fill="white" transform="translate(0 0.5)"/>
</clipPath>
</defs>
</svg>
