<svg width="180" height="190" viewBox="0 0 180 190" fill="none" xmlns="http://www.w3.org/2000/svg">
<path d="M179.5 150.077C179.501 150.166 179.468 150.251 179.408 150.317C179.379 150.348 179.345 150.372 179.306 150.389C179.268 150.406 179.226 150.415 179.184 150.415H0.815174C0.729362 150.409 0.649008 150.371 0.590333 150.308C0.531657 150.246 0.499023 150.163 0.499023 150.077C0.499023 149.991 0.531657 149.909 0.590333 149.846C0.649008 149.783 0.729362 149.745 0.815174 149.739H179.184C179.226 149.739 179.268 149.748 179.306 149.765C179.345 149.782 179.379 149.807 179.408 149.838C179.468 149.903 179.501 149.989 179.5 150.077Z" fill="#F2F2F2"/>
<path d="M78.5447 135.668C112.366 135.668 139.784 108.326 139.784 74.5975C139.784 40.8694 112.366 13.5273 78.5447 13.5273C44.7231 13.5273 17.3052 40.8694 17.3052 74.5975C17.3052 108.326 44.7231 135.668 78.5447 135.668Z" fill="#E6E6E6"/>
<path d="M131.239 74.5975C131.246 82.797 129.325 90.8839 125.631 98.2096C121.938 105.535 116.574 111.896 109.971 116.781C109.529 117.111 109.079 117.432 108.626 117.744C99.7961 123.866 89.2992 127.146 78.545 127.146C67.7908 127.146 57.294 123.866 48.4636 117.744C48.0106 117.432 47.5606 117.111 47.1191 116.781C40.5202 111.892 35.16 105.53 31.467 98.2055C27.774 90.8808 25.8506 82.796 25.8506 74.5976C25.8506 66.3991 27.774 58.3144 31.467 50.9897C35.16 43.665 40.5202 37.3034 47.1191 32.4137C47.5606 32.0842 48.0106 31.7632 48.4636 31.4508C57.294 25.3296 67.7908 22.0488 78.545 22.0488C89.2992 22.0488 99.7961 25.3296 108.626 31.4508C109.079 31.7632 109.529 32.0842 109.971 32.4137C116.574 37.2991 121.938 43.6598 125.632 50.9855C129.325 58.3112 131.246 66.3981 131.24 74.5977L131.239 74.5975Z" fill="white"/>
<path d="M78.5449 122.601C105.13 122.601 126.682 101.109 126.682 74.5968C126.682 48.0849 105.13 26.5928 78.5449 26.5928C51.9595 26.5928 30.4077 48.0849 30.4077 74.5968C30.4077 101.109 51.9595 122.601 78.5449 122.601Z" fill="#705AFF"/>
<path d="M78.6876 23.1846C78.2724 23.1854 77.8745 23.3503 77.5809 23.6431C77.2873 23.9359 77.122 24.3327 77.1211 24.7468V31.5638C77.1211 31.9782 77.2861 32.3755 77.5799 32.6685C77.8737 32.9615 78.2722 33.126 78.6876 33.126C79.1031 33.126 79.5016 32.9615 79.7953 32.6685C80.0891 32.3755 80.2542 31.9782 80.2542 31.5638V24.747C80.2533 24.333 80.088 23.9361 79.7944 23.6433C79.5008 23.3505 79.1028 23.1857 78.6876 23.1848V23.1846Z" fill="white"/>
<path d="M109.971 32.4135C109.529 32.084 109.079 31.763 108.626 31.4506C108.355 31.4329 108.083 31.4862 107.838 31.6052C107.593 31.7243 107.384 31.9049 107.231 32.1293L103.383 37.762C103.265 37.9315 103.183 38.1225 103.14 38.3239C103.097 38.5253 103.094 38.7332 103.132 38.9356C103.17 39.1381 103.248 39.331 103.361 39.5034C103.473 39.6758 103.62 39.8242 103.79 39.9401C103.961 40.056 104.153 40.1371 104.355 40.1787C104.557 40.2204 104.766 40.2217 104.969 40.1827C105.171 40.1437 105.364 40.0651 105.537 39.9514C105.709 39.8377 105.857 39.6912 105.972 39.5203L109.82 33.8876C109.966 33.6739 110.057 33.4271 110.083 33.1696C110.11 32.9122 110.071 32.6522 109.971 32.4135Z" fill="white"/>
<path d="M127.454 58.0966C127.298 57.7133 126.995 57.4076 126.613 57.2468C126.231 57.0859 125.8 57.0831 125.416 57.2388L119.081 59.8039C118.7 59.9625 118.397 60.2647 118.239 60.6448C118.08 61.0248 118.078 61.452 118.233 61.8334C118.389 62.2149 118.689 62.5197 119.068 62.6817C119.448 62.8436 119.876 62.8496 120.26 62.6984L126.595 60.1333C126.979 59.9762 127.285 59.6736 127.446 59.2919C127.608 58.9102 127.61 58.4803 127.454 58.0966Z" fill="white"/>
<path d="M53.7072 37.762L49.8591 32.1293C49.7057 31.9049 49.4963 31.7243 49.2515 31.6052C49.0068 31.4862 48.7351 31.4329 48.4633 31.4506C48.0104 31.763 47.5603 32.084 47.1189 32.4135C47.0188 32.6522 46.9802 32.9122 47.0066 33.1696C47.0329 33.4271 47.1234 33.6739 47.2698 33.8876L51.118 39.5203C51.3529 39.8599 51.7131 40.093 52.1198 40.1687C52.5265 40.2444 52.9468 40.1566 53.2888 39.9243C53.6308 39.6921 53.8667 39.3344 53.9451 38.9292C54.0235 38.5241 53.938 38.1045 53.7072 37.762Z" fill="white"/>
<path d="M38.0099 59.8042L31.6753 57.2391C31.2913 57.0879 30.863 57.0939 30.4835 57.2558C30.1039 57.4178 29.8038 57.7226 29.6484 58.1041C29.493 58.4855 29.4949 58.9127 29.6536 59.2927C29.8124 59.6728 30.1151 59.975 30.4961 60.1336L36.8309 62.6987C37.2148 62.85 37.6432 62.844 38.0227 62.682C38.4023 62.52 38.7024 62.2152 38.8578 61.8338C39.0132 61.4523 39.0113 61.0252 38.8526 60.6451C38.6938 60.265 38.3908 59.9628 38.0099 59.8042Z" fill="white"/>
<path d="M78.6876 116.068C78.2724 116.069 77.8745 116.234 77.5809 116.527C77.2873 116.82 77.122 117.217 77.1211 117.631V124.448C77.1211 124.862 77.2861 125.259 77.5799 125.552C77.8737 125.845 78.2722 126.01 78.6876 126.01C79.1031 126.01 79.5016 125.845 79.7953 125.552C80.0891 125.259 80.2542 124.862 80.2542 124.448V117.631C80.2533 117.217 80.088 116.82 79.7944 116.527C79.5008 116.234 79.1028 116.069 78.6876 116.068Z" fill="white"/>
<path d="M109.82 115.307L105.972 109.674C105.857 109.503 105.709 109.357 105.537 109.243C105.364 109.129 105.171 109.051 104.969 109.012C104.766 108.973 104.557 108.974 104.355 109.016C104.153 109.057 103.961 109.138 103.79 109.254C103.62 109.37 103.473 109.519 103.361 109.691C103.248 109.863 103.17 110.056 103.132 110.259C103.094 110.461 103.097 110.669 103.14 110.871C103.183 111.072 103.265 111.263 103.383 111.432L107.231 117.065C107.384 117.29 107.593 117.47 107.838 117.589C108.083 117.708 108.355 117.762 108.626 117.744C109.079 117.432 109.529 117.111 109.971 116.781C110.071 116.542 110.11 116.282 110.083 116.025C110.057 115.768 109.966 115.521 109.82 115.307Z" fill="white"/>
<path d="M126.594 89.061L120.259 86.496C119.875 86.3447 119.447 86.3507 119.067 86.5127C118.688 86.6746 118.388 86.9795 118.232 87.3609C118.077 87.7423 118.079 88.1695 118.238 88.5496C118.396 88.9296 118.699 89.2318 119.08 89.3905L125.415 91.9555C125.799 92.1068 126.227 92.1008 126.607 91.9388C126.986 91.7769 127.286 91.472 127.442 91.0906C127.597 90.7092 127.595 90.282 127.437 89.9019C127.278 89.5219 126.975 89.2197 126.594 89.061H126.594Z" fill="white"/>
<path d="M53.2942 109.262C52.9508 109.029 52.5286 108.941 52.1205 109.019C51.7124 109.096 51.3518 109.332 51.118 109.674L47.2698 115.307C47.1234 115.52 47.0329 115.767 47.0066 116.025C46.9802 116.282 47.0188 116.542 47.1189 116.781C47.5603 117.11 48.0104 117.431 48.4633 117.744C48.7351 117.761 49.0068 117.708 49.2516 117.589C49.4964 117.47 49.7057 117.289 49.8591 117.065L53.7072 111.432C53.823 111.262 53.9042 111.072 53.9461 110.871C53.988 110.67 53.9898 110.463 53.9515 110.262C53.9131 110.06 53.8353 109.868 53.7225 109.696C53.6098 109.525 53.4642 109.377 53.2942 109.262Z" fill="white"/>
<path d="M38.87 87.3534C38.7137 86.9701 38.4112 86.6644 38.0289 86.5036C37.6467 86.3427 37.216 86.3399 36.8316 86.4956L30.4968 89.0607C30.3043 89.1365 30.1288 89.2497 29.9804 89.3936C29.832 89.5375 29.7136 89.7093 29.6322 89.8991C29.5507 90.0888 29.5078 90.2928 29.5059 90.4992C29.504 90.7057 29.5432 90.9104 29.6211 91.1016C29.699 91.2929 29.8141 91.4668 29.9599 91.6134C30.1056 91.76 30.279 91.8764 30.4701 91.9558C30.6612 92.0351 30.8661 92.0759 31.0731 92.0758C31.2801 92.0757 31.4851 92.0347 31.6761 91.9552L38.0109 89.3901C38.3952 89.2332 38.7015 88.9308 38.8628 88.5491C39.024 88.1674 39.0269 87.7375 38.871 87.3536L38.87 87.3534Z" fill="white"/>
<path d="M80.7199 73.8216C80.8643 74.6755 80.6633 75.5517 80.1609 76.2581C79.6586 76.9644 78.8958 77.4433 78.0399 77.5897L50.2406 82.3051C49.3846 82.4494 48.5061 82.249 47.7982 81.7478C47.0903 81.2466 46.6109 80.4856 46.4653 79.6321C46.3198 78.7786 46.5199 77.9024 47.0218 77.196C47.5236 76.4896 48.2862 76.0107 49.1419 75.8647L76.9413 71.1491C77.7976 71.0051 78.6762 71.2055 79.3845 71.7065C80.0929 72.2075 80.5731 72.9681 80.7199 73.8216Z" fill="#090814"/>
<path d="M109.978 104.537C109.579 104.937 109.037 105.163 108.47 105.166C107.904 105.168 107.36 104.946 106.957 104.549L77.0315 74.9397C76.6362 74.5403 76.4148 74.0015 76.4155 73.4403C76.4162 72.8791 76.6389 72.3409 77.0353 71.9425C77.4316 71.5441 77.9696 71.3177 78.5323 71.3126C79.095 71.3074 79.6371 71.5239 80.0407 71.915L109.967 101.524C110.368 101.922 110.595 102.463 110.597 103.028C110.6 103.592 110.377 104.135 109.978 104.537L109.978 104.537Z" fill="#090814"/>
<path d="M78.5447 78.2896C80.5897 78.2896 82.2476 76.6364 82.2476 74.597C82.2476 72.5576 80.5897 70.9043 78.5447 70.9043C76.4996 70.9043 74.8418 72.5576 74.8418 74.597C74.8418 76.6364 76.4996 78.2896 78.5447 78.2896Z" fill="#CCCCCC"/>
<path d="M53.0394 10.5667C47.3555 19.478 38.6833 25.392 27.9881 29.277C27.7768 29.4348 27.5364 29.5496 27.2805 29.6148C27.0247 29.68 26.7585 29.6943 26.4971 29.6569C26.2358 29.6195 25.9844 29.5312 25.7572 29.3968C25.5301 29.2625 25.3318 29.0849 25.1735 28.8742C19.364 21.1388 20.6749 10.0835 28.3431 4.1728C30.1968 2.74626 32.3162 1.70113 34.5782 1.09809C36.8403 0.49506 39.1999 0.346134 41.5201 0.659959C43.8404 0.973785 46.075 1.74411 48.0942 2.92622C50.1135 4.10832 51.8771 5.67866 53.2828 7.54605L53.4436 7.76008C53.6019 7.97082 53.717 8.2106 53.7824 8.46572C53.8477 8.72084 53.8621 8.9863 53.8246 9.24695C53.7871 9.5076 53.6984 9.75832 53.5637 9.98481C53.4291 10.2113 53.251 10.4091 53.0396 10.567L53.0394 10.5667Z" fill="#E6E6E6"/>
<path d="M103.807 7.54584C105.213 5.67851 106.977 4.10822 108.996 2.92616C111.015 1.74409 113.25 0.973788 115.57 0.659964C117.89 0.346141 120.25 0.49505 122.512 1.09805C124.774 1.70104 126.893 2.74611 128.747 4.17259C136.414 10.084 137.726 21.1386 131.916 28.8739C131.758 29.0847 131.56 29.2623 131.333 29.3966C131.105 29.5309 130.854 29.6193 130.593 29.6567C130.331 29.6941 130.065 29.6798 129.809 29.6146C129.553 29.5494 129.313 29.4346 129.102 29.2768C119.173 25.486 111.031 18.9259 104.05 10.5665C103.839 10.4087 103.661 10.2109 103.526 9.98437C103.392 9.75788 103.303 9.50715 103.266 9.24651C103.228 8.98586 103.242 8.7204 103.308 8.46528C103.373 8.21016 103.488 7.97038 103.647 7.75964L103.807 7.54584Z" fill="#E6E6E6"/>
<path d="M101.315 127.506C100.953 127.709 100.687 128.047 100.574 128.445C100.461 128.844 100.511 129.271 100.713 129.633L109.754 145.745C109.958 146.104 110.297 146.368 110.695 146.48C111.094 146.591 111.521 146.54 111.883 146.339C112.244 146.137 112.511 145.801 112.624 145.403C112.738 145.006 112.689 144.58 112.488 144.219L103.447 128.107C103.244 127.746 102.905 127.48 102.505 127.368C102.106 127.255 101.678 127.305 101.315 127.506Z" fill="#E6E6E6"/>
<path d="M53.6421 128.107L44.6008 144.219C44.398 144.581 44.3474 145.008 44.4603 145.407C44.5733 145.805 44.8404 146.143 45.203 146.345C45.5656 146.548 45.9939 146.598 46.3938 146.485C46.7936 146.373 47.1322 146.106 47.3351 145.745L56.3761 129.633C56.4766 129.454 56.5407 129.257 56.5648 129.053C56.5889 128.849 56.5725 128.643 56.5166 128.445C56.4607 128.248 56.3663 128.063 56.2389 127.902C56.1115 127.741 55.9535 127.607 55.774 127.507C55.5944 127.406 55.3969 127.342 55.1925 127.318C54.9882 127.294 54.7812 127.311 54.5832 127.366C54.3852 127.422 54.2002 127.516 54.0386 127.643C53.8771 127.77 53.7425 127.928 53.6421 128.107Z" fill="#E6E6E6"/>
<path d="M111.585 149.87C114.26 149.87 116.428 147.708 116.428 145.041C116.428 142.374 114.26 140.212 111.585 140.212C108.911 140.212 106.743 142.374 106.743 145.041C106.743 147.708 108.911 149.87 111.585 149.87Z" fill="#E6E6E6"/>
<path d="M115.003 26.3092C117.678 26.3092 119.846 24.1472 119.846 21.4803C119.846 18.8133 117.678 16.6514 115.003 16.6514C112.329 16.6514 110.161 18.8133 110.161 21.4803C110.161 24.1472 112.329 26.3092 115.003 26.3092Z" fill="#E6E6E6"/>
<path d="M78.2603 14.9469C80.9346 14.9469 83.1026 12.7849 83.1026 10.118C83.1026 7.45104 80.9346 5.28906 78.2603 5.28906C75.5859 5.28906 73.418 7.45104 73.418 10.118C73.418 12.7849 75.5859 14.9469 78.2603 14.9469Z" fill="#E6E6E6"/>
<path d="M43.2251 25.7408C45.8994 25.7408 48.0674 23.5789 48.0674 20.9119C48.0674 18.245 45.8994 16.083 43.2251 16.083C40.5508 16.083 38.3828 18.245 38.3828 20.9119C38.3828 23.5789 40.5508 25.7408 43.2251 25.7408Z" fill="#E6E6E6"/>
<path d="M46.3584 149.87C49.0327 149.87 51.2007 147.708 51.2007 145.041C51.2007 142.374 49.0327 140.212 46.3584 140.212C43.6841 140.212 41.5161 142.374 41.5161 145.041C41.5161 147.708 43.6841 149.87 46.3584 149.87Z" fill="#E6E6E6"/>
<path d="M132.127 166.269L132.318 166.751H132.127V166.269Z" fill="#2F2E41"/>
<path d="M154.537 94.749H149.227V105.03H154.537V94.749Z" fill="#ED9DA0"/>
<path d="M145.314 90.1498C145.314 91.4594 145.704 92.7396 146.433 93.8285C147.163 94.9174 148.2 95.7661 149.413 96.2673C150.627 96.7684 151.962 96.8996 153.25 96.6441C154.538 96.3886 155.721 95.758 156.649 94.832C157.578 93.906 158.21 92.7262 158.467 91.4418C158.723 90.1573 158.591 88.826 158.089 87.616C157.586 86.4061 156.735 85.372 155.643 84.6444C154.552 83.9167 153.268 83.5284 151.955 83.5283C151.083 83.5283 150.219 83.6995 149.414 84.0323C148.608 84.365 147.876 84.8528 147.259 85.4676C146.643 86.0825 146.154 86.8125 145.82 87.6158C145.486 88.4192 145.314 89.2803 145.314 90.1498Z" fill="#ED9DA0"/>
<path d="M141.6 126.01H154.596V140.307L140.919 138.616L141.6 126.01Z" fill="#ED9DA0"/>
<path d="M140.665 173.986C140.665 173.986 141.218 175.09 141.974 176.416C142.27 176.938 142.6 177.499 142.938 178.04C144.135 179.949 142.938 186.031 142.938 186.031L145.557 186.388L148.175 185.083L148.654 180.67V177.444L145.669 174.114L144.36 172.673L140.665 173.986Z" fill="#ED9DA0"/>
<path d="M127.863 151.681C127.863 151.681 134.202 165.158 133.962 166.351C133.721 167.544 137.669 177.086 137.669 177.086C138.57 177.509 140.225 176.901 141.786 176.094C142.963 175.468 144.1 174.77 145.19 174.005L145.42 173.843L145.559 173.743L135.153 144.999L144.36 138.264L145.041 137.766L149.157 134.736L136.588 137.003C136.588 137.003 136.151 136.948 133.839 138.238C132.728 138.857 131.186 139.784 129.054 141.178C122.485 145.479 127.863 151.681 127.863 151.681Z" fill="#E6E6E6"/>
<g opacity="0.01">
<path d="M127.862 151.681C127.862 151.681 134.202 165.158 133.961 166.351C133.72 167.544 137.668 177.086 137.668 177.086C138.569 177.509 140.224 176.901 141.785 176.094C142.962 175.468 144.099 174.77 145.189 174.005L145.419 173.843L145.558 173.743L135.152 144.999L144.359 138.264L145.04 137.766L149.156 134.736L136.587 137.003C136.587 137.003 136.15 136.948 133.838 138.238C132.727 138.857 131.185 139.784 129.053 141.178C122.484 145.479 127.862 151.681 127.862 151.681Z" fill="#090814"/>
</g>
<path d="M147.122 176.371C147.122 176.371 150.233 175.893 149.154 180.904C149.154 180.904 149.107 186.779 148.675 187.693C148.242 188.607 143.411 189.839 142.576 188.886C141.741 187.933 143.409 182.569 143.409 182.569C143.409 182.569 144.857 183.909 146.363 182.831C147.87 181.753 147.122 176.371 147.122 176.371Z" fill="#090814"/>
<path d="M149.277 175.417C149.616 175.739 149.893 176.122 150.091 176.545C150.339 177.024 150.496 177.545 150.555 178.08C150.586 178.487 150.652 178.892 150.719 179.295C151.017 180.995 149.873 186.032 149.873 186.032L154.419 186.748L156.092 184.959L156.45 181.024C156.004 179.675 155.762 178.267 155.733 176.846C155.733 175.82 155.209 174.903 154.686 174.235C154.331 173.789 153.924 173.386 153.473 173.036C153.473 173.036 148.319 174.581 149.277 175.417Z" fill="#ED9DA0"/>
<path d="M134.565 148.103C134.565 148.103 137.553 153.71 139.47 158.361C140.727 161.416 143.324 168.691 144.969 173.323L145.21 174.008C145.933 176.057 146.414 177.444 146.414 177.444C146.733 177.446 147.05 177.399 147.354 177.306C147.637 177.23 147.954 177.128 148.292 177.002L148.671 176.858C149.048 176.712 149.457 176.542 149.847 176.365C151.748 175.519 153.775 174.417 154.509 174.015L154.787 173.861C153.384 171.057 152.337 168.089 151.669 165.027C150.593 160.019 146.885 152.754 146.885 152.754L146.405 150.368L155.376 149.174C162.135 145.806 158.851 139.165 156.921 136.217C156.592 135.705 156.237 135.211 155.856 134.736L148.678 136.303C148.678 136.303 147.547 136.663 145.033 137.773L143.878 138.296C142.469 138.94 140.736 139.771 138.641 140.836C131.577 144.398 134.565 148.103 134.565 148.103Z" fill="#E6E6E6"/>
<path d="M149.919 185.675C149.663 186.105 149.541 186.6 149.567 187.1C149.593 187.599 149.767 188.079 150.067 188.48C150.366 188.881 150.778 189.185 151.25 189.353C151.722 189.521 152.234 189.546 152.72 189.424C154.189 189.061 155.93 188.44 156.454 187.462C157.41 185.673 156.933 178.278 156.933 178.278L155.676 176.429C155.676 176.429 155.84 179.504 154.802 181.853C153.764 184.203 150.642 181.618 150.642 181.618L149.919 185.675Z" fill="#090814"/>
<path d="M107.787 101.821C107.978 102.119 108.232 102.372 108.532 102.561C108.831 102.751 109.169 102.872 109.52 102.918C109.872 102.963 110.229 102.931 110.567 102.824C110.905 102.717 111.215 102.537 111.476 102.297L119.075 106.357L118.667 101.909L111.514 98.7352C111.081 98.3263 110.512 98.0899 109.916 98.0706C109.32 98.0513 108.738 98.2505 108.279 98.6305C107.82 99.0105 107.517 99.545 107.427 100.133C107.336 100.721 107.465 101.321 107.789 101.821H107.787Z" fill="#ED9DA0"/>
<path d="M113.323 103.373L116.301 99.2744L130.645 106.037L148.495 102.697C149.377 102.532 150.285 102.562 151.154 102.786C152.023 103.01 152.832 103.423 153.524 103.994C154.215 104.565 154.772 105.281 155.154 106.09C155.537 106.9 155.736 107.784 155.738 108.679C155.739 110.296 155.097 111.848 153.953 112.993C152.808 114.139 151.255 114.785 149.634 114.789L129.178 114.827L113.323 103.373Z" fill="#705AFF"/>
<path d="M157.05 139.89C156.847 139.889 156.647 139.84 156.468 139.746L141.345 129.201L141.136 128.35L140.744 125.66L139.565 118.907C139.533 118.84 139.468 118.729 139.393 118.604C138.628 117.311 136.3 113.376 140.744 107.957L148.546 98.8851L155.243 98.5977L155.32 98.6937C157.11 100.935 158.318 103.583 158.836 106.403C159.353 109.222 159.164 112.125 158.285 114.853L157.587 127.413L158.335 129.949C158.773 131.44 158.7 133.033 158.13 134.478L158.301 138.586C158.308 138.754 158.281 138.922 158.221 139.079C158.161 139.237 158.07 139.381 157.953 139.503C157.836 139.624 157.696 139.721 157.541 139.788C157.386 139.854 157.219 139.889 157.05 139.89Z" fill="#705AFF"/>
<path d="M141.463 149.394C141.768 149.214 142.03 148.969 142.231 148.678C142.431 148.386 142.565 148.054 142.623 147.705C142.68 147.356 142.661 146.999 142.565 146.658C142.469 146.317 142.3 146.002 142.069 145.734L146.402 138.304L141.929 138.555L138.5 145.573C138.074 145.991 137.817 146.549 137.776 147.143C137.736 147.737 137.915 148.325 138.28 148.796C138.645 149.267 139.171 149.588 139.757 149.698C140.344 149.809 140.951 149.701 141.463 149.395V149.394Z" fill="#ED9DA0"/>
<path d="M143.165 144.784L139.161 141.674L146.437 127.613L143.711 109.708C143.576 108.823 143.638 107.919 143.893 107.06C144.148 106.202 144.589 105.41 145.185 104.741C145.782 104.072 146.518 103.542 147.343 103.188C148.168 102.835 149.061 102.667 149.958 102.697C151.579 102.752 153.111 103.445 154.219 104.626C155.327 105.806 155.921 107.377 155.869 108.993L155.196 129.381L143.165 144.784Z" fill="#705AFF"/>
<path d="M148.639 86.3097C147.823 87.6294 148.575 89.3673 149.58 90.55C150.585 91.7328 151.88 92.7709 152.329 94.2551C152.731 95.5869 152.365 97.0208 151.892 98.3281C151.419 99.6354 150.831 100.939 150.782 102.328C150.733 103.717 150.253 102.694 151.565 103.163C152.911 103.644 154.503 102.888 155.8 103.49C157.489 104.274 157.924 108.061 159.765 108.342C160.899 108.515 161.897 106.461 162.213 105.362C162.529 104.263 162.302 103.09 162.073 101.97C161.445 98.901 161.957 98.3882 161.33 95.3189L159.764 87.6574C159.453 86.1326 159.083 84.5017 157.934 83.4488C156.53 82.1623 154.413 82.132 152.508 82.2091C150.757 82.2792 148.936 82.3993 147.412 83.2605C145.889 84.1218 145.257 85.9907 145.783 87.6567C146.275 86.4842 147.261 85.7898 148.466 86.2034" fill="#090814"/>
</svg>
