<svg width="12" height="12" viewBox="0 0 12 12" fill="none" xmlns="http://www.w3.org/2000/svg">
<g clip-path="url(#clip0_1582_3048)">
<path d="M2.25163 1.87451C2.25134 1.87451 2.25101 1.87451 2.25072 1.87451C2.14858 1.87451 2.0525 1.91433 1.97996 1.98669C1.90661 2.05986 1.86621 2.15728 1.86621 2.26099V8.0561C1.86621 8.26861 2.03978 8.44192 2.25316 8.44246C3.15272 8.44461 4.65986 8.6321 5.69957 9.72014V3.65539C5.69957 3.58335 5.68117 3.51568 5.64644 3.45968C4.79309 2.08542 3.15323 1.87662 2.25163 1.87451Z" fill="#219653"/>
<path d="M10.1331 8.05607V2.26092C10.1331 2.15722 10.0927 2.0598 10.0194 1.98663C9.94684 1.91427 9.85069 1.87445 9.74865 1.87445C9.74833 1.87445 9.748 1.87445 9.74771 1.87445C8.84614 1.8766 7.20628 2.0854 6.3529 3.45966C6.31817 3.51566 6.2998 3.58333 6.2998 3.65537V9.72008C7.33952 8.63204 8.84665 8.44455 9.74622 8.4424C9.95956 8.44185 10.1331 8.26855 10.1331 8.05607Z" fill="#219653"/>
<path d="M11.0128 3.21094H10.7326V8.05608C10.7326 8.59867 10.2905 9.0411 9.74712 9.04245C8.9841 9.04427 7.72598 9.19347 6.83496 10.0368C8.37598 9.65947 10.0005 9.90474 10.9263 10.1157C11.0419 10.1421 11.1614 10.1149 11.254 10.041C11.3463 9.9674 11.3992 9.85732 11.3992 9.73918V3.59734C11.3993 3.38428 11.2259 3.21094 11.0128 3.21094Z" fill="#219653"/>
<path d="M1.26623 8.05608V3.21094H0.986011C0.772992 3.21094 0.599609 3.38428 0.599609 3.59734V9.73907C0.599609 9.85725 0.652555 9.96729 0.744846 10.0409C0.837392 10.1147 0.956738 10.142 1.07252 10.1156C1.99834 9.9046 3.62289 9.65936 5.16384 10.0367C4.27286 9.19339 3.01474 9.04423 2.25172 9.04241C1.70834 9.0411 1.26623 8.59867 1.26623 8.05608Z" fill="#219653"/>
</g>
<defs>
<clipPath id="clip0_1582_3048">
<rect width="10.8" height="10.8" fill="white" transform="translate(0.599609 0.599976)"/>
</clipPath>
</defs>
</svg>
