<svg width="19" height="18" viewBox="0 0 19 18" fill="none" xmlns="http://www.w3.org/2000/svg">
<g clip-path="url(#clip0_1541_3918)">
<path d="M17.2847 3.05775C17.0738 2.80458 16.8097 2.60096 16.5112 2.46136C16.2126 2.32176 15.887 2.2496 15.5575 2.25H3.4315L3.4 1.98675C3.33554 1.43956 3.07254 0.935049 2.66087 0.568858C2.2492 0.202667 1.71747 0.000256345 1.1665 0L1 0C0.801088 0 0.610322 0.0790176 0.46967 0.21967C0.329018 0.360322 0.25 0.551088 0.25 0.75C0.25 0.948912 0.329018 1.13968 0.46967 1.28033C0.610322 1.42098 0.801088 1.5 1 1.5H1.1665C1.3502 1.50002 1.5275 1.56747 1.66478 1.68954C1.80206 1.81161 1.88976 1.97981 1.91125 2.16225L2.94325 10.9373C3.05039 11.8498 3.48886 12.6913 4.17543 13.302C4.862 13.9127 5.74889 14.25 6.66775 14.25H14.5C14.6989 14.25 14.8897 14.171 15.0303 14.0303C15.171 13.8897 15.25 13.6989 15.25 13.5C15.25 13.3011 15.171 13.1103 15.0303 12.9697C14.8897 12.829 14.6989 12.75 14.5 12.75H6.66775C6.20354 12.7487 5.7511 12.6038 5.37245 12.3353C4.9938 12.0668 4.70748 11.6877 4.55275 11.25H13.4928C14.372 11.2501 15.2233 10.9412 15.8979 10.3773C16.5725 9.81348 17.0275 9.03052 17.1835 8.16525L17.7723 4.89975C17.831 4.57576 17.8178 4.2428 17.7336 3.92448C17.6493 3.60616 17.4961 3.31026 17.2847 3.05775ZM16.3 4.6335L15.7105 7.899C15.6168 8.41875 15.3434 8.88899 14.9379 9.2274C14.5324 9.5658 14.0209 9.7508 13.4928 9.75H4.31425L3.6085 3.75H15.5575C15.6677 3.74934 15.7766 3.77297 15.8767 3.81919C15.9767 3.86542 16.0653 3.93311 16.1361 4.01746C16.207 4.1018 16.2585 4.20073 16.2868 4.3072C16.3151 4.41368 16.3196 4.52508 16.3 4.6335Z" fill="#A3A2AC"/>
<path d="M5.5 18.0005C6.32842 18.0005 6.99999 17.3289 6.99999 16.5005C6.99999 15.6721 6.32842 15.0005 5.5 15.0005C4.67157 15.0005 4 15.6721 4 16.5005C4 17.3289 4.67157 18.0005 5.5 18.0005Z" fill="#A3A2AC"/>
<path d="M13 18.0005C13.8284 18.0005 14.5 17.3289 14.5 16.5005C14.5 15.6721 13.8284 15.0005 13 15.0005C12.1716 15.0005 11.5 15.6721 11.5 16.5005C11.5 17.3289 12.1716 18.0005 13 18.0005Z" fill="#A3A2AC"/>
</g>
<defs>
<clipPath id="clip0_1541_3918">
<rect width="18" height="18" fill="white" transform="translate(0.25)"/>
</clipPath>
</defs>
</svg>
