<svg width="18" height="18" viewBox="0 0 18 18" fill="none" xmlns="http://www.w3.org/2000/svg">
<g clip-path="url(#clip0_763_4142)">
<path d="M14.25 0.749878H3.75C2.7558 0.751069 1.80267 1.14654 1.09966 1.84954C0.396661 2.55255 0.00119089 3.50568 0 4.49988L0 13.4999C0.00119089 14.4941 0.396661 15.4472 1.09966 16.1502C1.80267 16.8532 2.7558 17.2487 3.75 17.2499H14.25C15.2442 17.2487 16.1973 16.8532 16.9003 16.1502C17.6033 15.4472 17.9988 14.4941 18 13.4999V4.49988C17.9988 3.50568 17.6033 2.55255 16.9003 1.84954C16.1973 1.14654 15.2442 0.751069 14.25 0.749878ZM3.75 2.24988H14.25C14.6991 2.25076 15.1376 2.38601 15.5092 2.63823C15.8808 2.89045 16.1684 3.24809 16.335 3.66513L10.5915 9.40938C10.1688 9.83036 9.59656 10.0667 9 10.0667C8.40344 10.0667 7.83118 9.83036 7.4085 9.40938L1.665 3.66513C1.83161 3.24809 2.11921 2.89045 2.49079 2.63823C2.86236 2.38601 3.30091 2.25076 3.75 2.24988ZM14.25 15.7499H3.75C3.15326 15.7499 2.58097 15.5128 2.15901 15.0909C1.73705 14.6689 1.5 14.0966 1.5 13.4999V5.62488L6.348 10.4699C7.05197 11.1721 8.00569 11.5664 9 11.5664C9.99431 11.5664 10.948 11.1721 11.652 10.4699L16.5 5.62488V13.4999C16.5 14.0966 16.2629 14.6689 15.841 15.0909C15.419 15.5128 14.8467 15.7499 14.25 15.7499Z" fill="#705AFF"/>
</g>
<defs>
<clipPath id="clip0_763_4142">
<rect width="18" height="18" fill="white"/>
</clipPath>
</defs>
</svg>
