<svg width="19" height="18" viewBox="0 0 19 18" fill="none" xmlns="http://www.w3.org/2000/svg">
<path d="M16.25 3H13.925C13.7509 2.15356 13.2904 1.39301 12.6209 0.846539C11.9515 0.300068 11.1142 0.00109089 10.25 0L8.75 0C7.88585 0.00109089 7.04849 0.300068 6.37906 0.846539C5.70964 1.39301 5.24907 2.15356 5.075 3H2.75C2.55109 3 2.36032 3.07902 2.21967 3.21967C2.07902 3.36032 2 3.55109 2 3.75C2 3.94891 2.07902 4.13968 2.21967 4.28033C2.36032 4.42098 2.55109 4.5 2.75 4.5H3.5V14.25C3.50119 15.2442 3.89666 16.1973 4.59966 16.9003C5.30267 17.6033 6.2558 17.9988 7.25 18H11.75C12.7442 17.9988 13.6973 17.6033 14.4003 16.9003C15.1033 16.1973 15.4988 15.2442 15.5 14.25V4.5H16.25C16.4489 4.5 16.6397 4.42098 16.7803 4.28033C16.921 4.13968 17 3.94891 17 3.75C17 3.55109 16.921 3.36032 16.7803 3.21967C16.6397 3.07902 16.4489 3 16.25 3ZM8.75 1.5H10.25C10.7152 1.50057 11.1688 1.64503 11.5487 1.91358C11.9286 2.18213 12.2161 2.56162 12.3717 3H6.62825C6.78394 2.56162 7.07143 2.18213 7.45129 1.91358C7.83115 1.64503 8.28479 1.50057 8.75 1.5ZM14 14.25C14 14.8467 13.7629 15.419 13.341 15.841C12.919 16.2629 12.3467 16.5 11.75 16.5H7.25C6.65326 16.5 6.08097 16.2629 5.65901 15.841C5.23705 15.419 5 14.8467 5 14.25V4.5H14V14.25Z" fill="#EB5757"/>
<path d="M8 13.4995C8.19891 13.4995 8.38968 13.4205 8.53033 13.2798C8.67098 13.1392 8.75 12.9484 8.75 12.7495V8.24951C8.75 8.0506 8.67098 7.85983 8.53033 7.71918C8.38968 7.57853 8.19891 7.49951 8 7.49951C7.80109 7.49951 7.61032 7.57853 7.46967 7.71918C7.32902 7.85983 7.25 8.0506 7.25 8.24951V12.7495C7.25 12.9484 7.32902 13.1392 7.46967 13.2798C7.61032 13.4205 7.80109 13.4995 8 13.4995Z" fill="#EB5757"/>
<path d="M11 13.4995C11.1989 13.4995 11.3897 13.4205 11.5303 13.2798C11.671 13.1392 11.75 12.9484 11.75 12.7495V8.24951C11.75 8.0506 11.671 7.85983 11.5303 7.71918C11.3897 7.57853 11.1989 7.49951 11 7.49951C10.8011 7.49951 10.6103 7.57853 10.4697 7.71918C10.329 7.85983 10.25 8.0506 10.25 8.24951V12.7495C10.25 12.9484 10.329 13.1392 10.4697 13.2798C10.6103 13.4205 10.8011 13.4995 11 13.4995Z" fill="#EB5757"/>
</svg>
