<svg width="21" height="16" viewBox="0 0 21 16" fill="none" xmlns="http://www.w3.org/2000/svg">
<path d="M2.6999 0.799988C1.70615 0.799988 0.899902 1.60624 0.899902 2.59999C0.899902 3.16624 1.16615 3.69874 1.6199 4.03999L9.4199 9.88999C10.0612 10.37 10.9387 10.37 11.5799 9.88999L19.3799 4.03999C19.8337 3.69874 20.0999 3.16624 20.0999 2.59999C20.0999 1.60624 19.2937 0.799988 18.2999 0.799988H2.6999ZM0.899902 5.74999V12.8C0.899902 14.1237 1.97615 15.2 3.2999 15.2H17.6999C19.0237 15.2 20.0999 14.1237 20.0999 12.8V5.74999L12.6599 11.33C11.3812 12.29 9.61865 12.29 8.3399 11.33L0.899902 5.74999Z" fill="#0E0A24"/>
</svg>
