<svg width="18" height="18" viewBox="0 0 18 18" fill="none" xmlns="http://www.w3.org/2000/svg">
<g clip-path="url(#clip0_1150_12819)">
<path d="M2.74759 15.4736C1.888 14.6434 1.20236 13.6503 0.730681 12.5522C0.259 11.4542 0.0107242 10.2732 0.000339811 9.0782C-0.0100445 7.88319 0.217671 6.69807 0.670199 5.59201C1.12273 4.48594 1.791 3.48107 2.63604 2.63604C3.48107 1.791 4.48594 1.12273 5.59201 0.670199C6.69807 0.217671 7.88319 -0.0100445 9.0782 0.000339811C10.2732 0.0107242 11.4542 0.259 12.5522 0.730681C13.6503 1.20236 14.6434 1.888 15.4736 2.74759C17.113 4.44501 18.0202 6.71843 17.9997 9.0782C17.9792 11.438 17.0326 13.6953 15.364 15.364C13.6953 17.0326 11.438 17.9792 9.0782 17.9997C6.71843 18.0202 4.44501 17.113 2.74759 15.4736ZM9.11059 4.61059C8.61354 4.61059 8.21059 5.01354 8.21059 5.51059V9.11059C8.21059 9.60765 8.61354 10.0106 9.11059 10.0106C9.60765 10.0106 10.0106 9.60765 10.0106 9.11059V5.51059C10.0106 5.01354 9.60765 4.61059 9.11059 4.61059ZM9.11059 11.8106C8.61354 11.8106 8.21059 12.2135 8.21059 12.7106C8.21059 13.2076 8.61354 13.6106 9.11059 13.6106C9.60765 13.6106 10.0106 13.2076 10.0106 12.7106C10.0106 12.2135 9.60765 11.8106 9.11059 11.8106Z" fill="#F2994A"/>
</g>
<defs>
<clipPath id="clip0_1150_12819">
<rect width="18" height="18" fill="white"/>
</clipPath>
</defs>
</svg>
