<svg width="18" height="18" viewBox="0 0 18 18" fill="none" xmlns="http://www.w3.org/2000/svg">
<path fill-rule="evenodd" clip-rule="evenodd" d="M8.99961 7.68086C7.80529 7.68086 6.83711 8.64904 6.83711 9.84336C6.83711 11.0377 7.80529 12.0059 8.99961 12.0059C10.1939 12.0059 11.1621 11.0377 11.1621 9.84336C11.1621 8.64904 10.1939 7.68086 8.99961 7.68086ZM5.53711 9.84336C5.53711 7.93107 7.08732 6.38086 8.99961 6.38086C10.9119 6.38086 12.4621 7.93107 12.4621 9.84336C12.4621 11.7556 10.9119 13.3059 8.99961 13.3059C7.08732 13.3059 5.53711 11.7556 5.53711 9.84336Z" fill="#705AFF"/>
<path fill-rule="evenodd" clip-rule="evenodd" d="M15.3772 9.18182C14.8818 8.93413 14.3353 8.8054 13.7814 8.80586C13.4224 8.80616 13.1312 8.51539 13.1309 8.1564C13.1306 7.79742 13.4213 7.50616 13.7803 7.50586C14.5364 7.50523 15.2822 7.68094 15.9585 8.01901C16.6348 8.35709 17.223 8.84823 17.6762 9.4534C17.8914 9.74074 17.8329 10.1481 17.5456 10.3633C17.2583 10.5785 16.8509 10.52 16.6357 10.2327C16.3036 9.78933 15.8727 9.42951 15.3772 9.18182Z" fill="#705AFF"/>
<path fill-rule="evenodd" clip-rule="evenodd" d="M4.21806 8.80586C3.66409 8.8054 3.11764 8.93414 2.62214 9.18185C2.12664 9.42957 1.69574 9.78943 1.36368 10.2328C1.14849 10.5202 0.741113 10.5787 0.453771 10.3635C0.166428 10.1483 0.107933 9.74093 0.323119 9.45359C0.776362 8.84836 1.36451 8.35718 2.04083 8.01907C2.71715 7.68095 3.46301 7.50523 4.21914 7.50586C4.57812 7.50616 4.8689 7.79742 4.8686 8.1564C4.8683 8.51539 4.57704 8.80616 4.21806 8.80586Z" fill="#705AFF"/>
<path fill-rule="evenodd" clip-rule="evenodd" d="M9.00046 13.3059C8.27822 13.3059 7.57053 13.5089 6.95817 13.8919C6.34581 14.2748 5.85345 14.8222 5.5373 15.4716C5.38016 15.7943 4.99111 15.9286 4.66835 15.7715C4.34559 15.6143 4.21132 15.2253 4.36847 14.9025C4.79132 14.034 5.44985 13.3018 6.26889 12.7896C7.08792 12.2775 8.03446 12.0059 9.00046 12.0059C9.96645 12.0059 10.913 12.2774 11.732 12.7896C12.5511 13.3018 13.2096 14.034 13.6325 14.9025C13.7896 15.2253 13.6553 15.6143 13.3326 15.7714C13.0098 15.9286 12.6208 15.7943 12.4636 15.4716C12.1475 14.8222 11.6551 14.2748 11.0428 13.8919C10.4304 13.5089 9.7227 13.3059 9.00046 13.3059Z" fill="#705AFF"/>
<path fill-rule="evenodd" clip-rule="evenodd" d="M4.61592 4.35604C4.32186 4.28061 4.0124 4.29039 3.7237 4.38425C3.43499 4.4781 3.17894 4.65216 2.98545 4.88609C2.79196 5.12002 2.66902 5.40417 2.63097 5.70536C2.59293 6.00654 2.64136 6.31234 2.7706 6.58703C2.89985 6.86173 3.10458 7.09399 3.36088 7.25668C3.61718 7.41938 3.91448 7.5058 4.21806 7.50586C4.57705 7.50593 4.86801 7.797 4.86794 8.15598C4.86787 8.51497 4.5768 8.80593 4.21782 8.80586C3.66758 8.80576 3.12872 8.64912 2.66417 8.35423C2.19963 8.05934 1.82856 7.63837 1.5943 7.14049C1.36005 6.64261 1.27227 6.08835 1.34122 5.54245C1.41017 4.99654 1.63301 4.48152 1.98371 4.05753C2.33441 3.63353 2.7985 3.31805 3.32178 3.14794C3.84506 2.97782 4.40595 2.96009 4.93893 3.09681C5.47192 3.23353 5.95501 3.51906 6.33179 3.92005C6.70857 4.32105 6.9635 4.82097 7.0668 5.36142C7.13419 5.71403 6.90299 6.0545 6.55038 6.1219C6.19778 6.18929 5.85731 5.95808 5.78991 5.60548C5.73292 5.3073 5.59227 5.03148 5.38439 4.81024C5.17651 4.589 4.90998 4.43147 4.61592 4.35604Z" fill="#705AFF"/>
<path fill-rule="evenodd" clip-rule="evenodd" d="M14.2749 4.38424C13.9862 4.29038 13.6767 4.28061 13.3826 4.35607C13.0885 4.43153 12.8219 4.58911 12.614 4.81041C12.4061 5.03171 12.2655 5.30758 12.2085 5.60582C12.1411 5.95843 11.8007 6.18968 11.4481 6.12233C11.0955 6.05498 10.8642 5.71453 10.9316 5.36192C11.0348 4.82139 11.2897 4.32139 11.6665 3.92031C12.0433 3.51923 12.5264 3.23363 13.0595 3.09686C13.5925 2.96009 14.1535 2.9778 14.6768 3.14791C15.2002 3.31803 15.6643 3.63353 16.0151 4.05757C16.3658 4.48162 16.5887 4.9967 16.6576 5.54267C16.7266 6.08864 16.6388 6.64295 16.4044 7.14088C16.1701 7.63881 15.799 8.05981 15.3344 8.35469C14.8698 8.64958 14.3308 8.80619 13.7805 8.80624C13.4215 8.80627 13.1305 8.51528 13.1305 8.15629C13.1304 7.79731 13.4214 7.50627 13.7804 7.50624C14.084 7.50621 14.3814 7.4198 14.6378 7.2571C14.8941 7.09439 15.0989 6.86211 15.2282 6.58737C15.3574 6.31264 15.4059 6.00679 15.3679 5.70555C15.3298 5.40431 15.2068 5.12011 15.0133 4.88615C14.8198 4.65218 14.5637 4.4781 14.2749 4.38424Z" fill="#705AFF"/>
</svg>
