<svg width="12" height="12" viewBox="0 0 12 12" fill="none" xmlns="http://www.w3.org/2000/svg">
<g clip-path="url(#clip0_1582_3058)">
<path d="M1.04961 1.04999C0.801081 1.04999 0.599609 1.25146 0.599609 1.49999C0.599609 1.74852 0.801081 1.94999 1.04961 1.94999H1.85029C1.91581 1.94999 1.97967 1.9706 2.03282 2.00891C2.08597 2.04722 2.12572 2.10129 2.14643 2.16345L3.63008 6.61522C3.69596 6.81288 3.70434 7.02569 3.65381 7.22782L3.53164 7.71737C3.35239 8.43439 3.91052 9.14999 4.64961 9.14999H10.0496C10.2981 9.14999 10.4996 8.94852 10.4996 8.69999C10.4996 8.45146 10.2981 8.24999 10.0496 8.24999H4.64961C4.47439 8.24999 4.3619 8.10621 4.40439 7.93622L4.49652 7.56825C4.51214 7.5059 4.54813 7.45056 4.5988 7.41101C4.64947 7.37147 4.7119 7.34999 4.77617 7.34999H9.59961C9.79337 7.35009 9.96544 7.22617 10.0268 7.04237L11.2265 3.44237C11.3237 3.15087 11.1066 2.84985 10.7993 2.84999H3.54922C3.4837 2.84999 3.41984 2.82937 3.36669 2.79106C3.31354 2.75275 3.27379 2.69869 3.25307 2.63653L2.82676 1.35761C2.76544 1.17381 2.59337 1.04989 2.39961 1.04999H1.04961ZM4.19961 9.59999C3.70255 9.59999 3.29961 10.0029 3.29961 10.5C3.29961 10.997 3.70255 11.4 4.19961 11.4C4.69667 11.4 5.09961 10.997 5.09961 10.5C5.09961 10.0029 4.69667 9.59999 4.19961 9.59999ZM9.59961 9.59999C9.10255 9.59999 8.69961 10.0029 8.69961 10.5C8.69961 10.997 9.10255 11.4 9.59961 11.4C10.0967 11.4 10.4996 10.997 10.4996 10.5C10.4996 10.0029 10.0967 9.59999 9.59961 9.59999Z" fill="#2F80ED"/>
</g>
<defs>
<clipPath id="clip0_1582_3058">
<rect width="10.8" height="10.8" fill="white" transform="translate(0.599609 0.599976)"/>
</clipPath>
</defs>
</svg>
