<svg width="32" height="33" viewBox="0 0 32 33" fill="none" xmlns="http://www.w3.org/2000/svg">
<g clip-path="url(#clip0_772_5126)">
<path d="M25.3333 0.5H6.66667C4.89921 0.502117 3.20474 1.20518 1.95496 2.45496C0.705176 3.70474 0.00211714 5.39921 0 7.16667L0 25.8333C0.00211714 27.6008 0.705176 29.2953 1.95496 30.545C3.20474 31.7948 4.89921 32.4979 6.66667 32.5H25.3333C27.1008 32.4979 28.7953 31.7948 30.045 30.545C31.2948 29.2953 31.9979 27.6008 32 25.8333V7.16667C31.9979 5.39921 31.2948 3.70474 30.045 2.45496C28.7953 1.20518 27.1008 0.502117 25.3333 0.5V0.5ZM6.66667 3.16667H25.3333C26.3942 3.16667 27.4116 3.58809 28.1618 4.33824C28.9119 5.08839 29.3333 6.1058 29.3333 7.16667V25.8333C29.331 26.4273 29.1943 27.0131 28.9333 27.5467L16.716 15.3293C16.0969 14.7101 15.3619 14.2189 14.553 13.8837C13.744 13.5486 12.877 13.3761 12.0013 13.3761C11.1257 13.3761 10.2587 13.5486 9.44971 13.8837C8.64075 14.2189 7.90575 14.7101 7.28667 15.3293L2.66667 19.948V7.16667C2.66667 6.1058 3.08809 5.08839 3.83824 4.33824C4.58839 3.58809 5.6058 3.16667 6.66667 3.16667ZM6.66667 29.8333C5.6058 29.8333 4.58839 29.4119 3.83824 28.6618C3.08809 27.9116 2.66667 26.8942 2.66667 25.8333V23.7187L9.17067 17.2147C9.54213 16.843 9.9832 16.5481 10.4687 16.3469C10.9541 16.1457 11.4745 16.0422 12 16.0422C12.5255 16.0422 13.0459 16.1457 13.5313 16.3469C14.0168 16.5481 14.4579 16.843 14.8293 17.2147L27.0467 29.4333C26.5131 29.6943 25.9273 29.831 25.3333 29.8333H6.66667Z" fill="#A3A2AC"/>
<path d="M21.3337 14.4994C22.2566 14.4994 23.1589 14.2257 23.9263 13.7129C24.6938 13.2001 25.2919 12.4713 25.6451 11.6185C25.9983 10.7658 26.0907 9.82751 25.9107 8.92226C25.7306 8.01702 25.2861 7.1855 24.6335 6.53285C23.9808 5.88021 23.1493 5.43575 22.2441 5.25569C21.3388 5.07562 20.4005 5.16804 19.5478 5.52125C18.6951 5.87446 17.9662 6.47259 17.4535 7.24002C16.9407 8.00745 16.667 8.90971 16.667 9.83268C16.667 11.0704 17.1587 12.2573 18.0338 13.1325C18.909 14.0077 20.096 14.4994 21.3337 14.4994ZM21.3337 7.83268C21.7292 7.83268 22.1159 7.94998 22.4448 8.16975C22.7737 8.38951 23.03 8.70187 23.1814 9.06732C23.3328 9.43277 23.3724 9.8349 23.2952 10.2229C23.2181 10.6108 23.0276 10.9672 22.7479 11.2469C22.4682 11.5266 22.1118 11.7171 21.7238 11.7943C21.3359 11.8714 20.9337 11.8318 20.5683 11.6804C20.2028 11.5291 19.8905 11.2727 19.6707 10.9438C19.451 10.6149 19.3337 10.2282 19.3337 9.83268C19.3337 9.30225 19.5444 8.79354 19.9194 8.41847C20.2945 8.0434 20.8032 7.83268 21.3337 7.83268Z" fill="#A3A2AC"/>
</g>
<defs>
<clipPath id="clip0_772_5126">
<rect width="32" height="32" fill="white" transform="translate(0 0.5)"/>
</clipPath>
</defs>
</svg>
