<svg width="163" height="28" viewBox="0 0 163 28" fill="none" xmlns="http://www.w3.org/2000/svg">
<path d="M156.303 21.9625C154.653 21.9625 153.212 21.5738 151.979 20.7962C150.765 19.9997 149.931 18.9282 149.476 17.5818L152.264 16.2448C152.662 17.1171 153.212 17.7999 153.914 18.2929C154.634 18.786 155.431 19.0325 156.303 19.0325C156.986 19.0325 157.526 18.8808 157.924 18.5774C158.323 18.274 158.522 17.8757 158.522 17.3826C158.522 17.0792 158.437 16.8327 158.266 16.643C158.114 16.4344 157.896 16.2637 157.612 16.131C157.346 15.9793 157.052 15.856 156.73 15.7612L154.198 15.05C152.889 14.6707 151.894 14.0923 151.211 13.3148C150.547 12.5372 150.215 11.6174 150.215 10.5554C150.215 9.60721 150.453 8.78226 150.927 8.08057C151.42 7.35993 152.093 6.80047 152.946 6.40222C153.819 6.00397 154.814 5.80484 155.933 5.80484C157.393 5.80484 158.683 6.15568 159.802 6.85737C160.921 7.55905 161.717 8.5452 162.191 9.81582L159.347 11.1528C159.081 10.4511 158.636 9.89168 158.01 9.47446C157.384 9.05724 156.682 8.84863 155.905 8.84863C155.279 8.84863 154.786 8.99087 154.426 9.27533C154.065 9.5598 153.885 9.92961 153.885 10.3848C153.885 10.6692 153.961 10.9158 154.113 11.1244C154.264 11.333 154.473 11.5037 154.738 11.6364C155.023 11.7692 155.345 11.8924 155.706 12.0062L158.181 12.7458C159.451 13.1251 160.428 13.6941 161.111 14.4526C161.812 15.2112 162.163 16.1405 162.163 17.2404C162.163 18.1697 161.917 18.9946 161.423 19.7153C160.93 20.4169 160.248 20.9669 159.375 21.3652C158.503 21.7634 157.479 21.9625 156.303 21.9625Z" fill="black"/>
<path d="M138.499 21.9625C137.001 21.9625 135.664 21.6117 134.488 20.91C133.312 20.1894 132.383 19.2127 131.7 17.98C131.018 16.7473 130.676 15.3819 130.676 13.8837C130.676 12.3665 131.018 11.0011 131.7 9.78735C132.383 8.57363 133.312 7.60644 134.488 6.88579C135.683 6.16514 137.01 5.80482 138.471 5.80482C139.646 5.80482 140.689 6.04187 141.6 6.51598C142.529 6.97113 143.259 7.61592 143.79 8.45036L143.221 9.21842V0.0870361H146.948V21.6212H143.42V18.6343L143.819 19.3739C143.288 20.2083 142.548 20.8531 141.6 21.3083C140.651 21.7444 139.618 21.9625 138.499 21.9625ZM138.897 18.5489C139.751 18.5489 140.5 18.3498 141.145 17.9515C141.789 17.5533 142.292 17.0033 142.652 16.3016C143.031 15.6 143.221 14.794 143.221 13.8837C143.221 12.9923 143.031 12.1958 142.652 11.4942C142.292 10.7735 141.789 10.2141 141.145 9.8158C140.5 9.41754 139.751 9.21842 138.897 9.21842C138.063 9.21842 137.314 9.42703 136.65 9.84424C135.986 10.2425 135.465 10.7925 135.085 11.4942C134.725 12.1769 134.545 12.9734 134.545 13.8837C134.545 14.794 134.725 15.6 135.085 16.3016C135.465 17.0033 135.986 17.5533 136.65 17.9515C137.314 18.3498 138.063 18.5489 138.897 18.5489Z" fill="black"/>
<path d="M121.223 21.9625C119.63 21.9625 118.236 21.6022 117.042 20.8816C115.847 20.1609 114.918 19.1843 114.254 17.9516C113.59 16.7189 113.258 15.3534 113.258 13.8552C113.258 12.3002 113.59 10.9252 114.254 9.73048C114.937 8.51676 115.856 7.55905 117.013 6.85737C118.189 6.15568 119.498 5.80484 120.939 5.80484C122.153 5.80484 123.215 6.00397 124.125 6.40222C125.054 6.80047 125.841 7.35044 126.486 8.05213C127.131 8.75381 127.624 9.5598 127.965 10.4701C128.307 11.3614 128.477 12.3286 128.477 13.3717C128.477 13.6372 128.458 13.9121 128.42 14.1966C128.401 14.4811 128.354 14.7276 128.278 14.9362H116.331V12.0916H126.173L124.409 13.4285C124.58 12.5562 124.533 11.7786 124.267 11.0959C124.021 10.4132 123.603 9.87271 123.016 9.47446C122.447 9.07621 121.754 8.87708 120.939 8.87708C120.161 8.87708 119.469 9.07621 118.862 9.47446C118.255 9.85375 117.791 10.4227 117.468 11.1813C117.165 11.9209 117.051 12.8217 117.127 13.8837C117.051 14.8319 117.174 15.6758 117.497 16.4154C117.838 17.1361 118.331 17.6955 118.976 18.0938C119.64 18.4921 120.398 18.6912 121.252 18.6912C122.105 18.6912 122.826 18.511 123.414 18.1507C124.021 17.7904 124.495 17.3068 124.836 16.6999L127.851 18.1791C127.548 18.9188 127.074 19.573 126.429 20.142C125.784 20.7109 125.016 21.1566 124.125 21.479C123.253 21.8014 122.285 21.9625 121.223 21.9625Z" fill="black"/>
<path d="M103.805 21.9625C102.212 21.9625 100.818 21.6022 99.6236 20.8816C98.4288 20.1609 97.4995 19.1843 96.8358 17.9516C96.172 16.7189 95.8402 15.3534 95.8402 13.8552C95.8402 12.3002 96.172 10.9252 96.8358 9.73048C97.5185 8.51676 98.4383 7.55905 99.5951 6.85737C100.771 6.15568 102.079 5.80484 103.521 5.80484C104.734 5.80484 105.796 6.00397 106.707 6.40222C107.636 6.80047 108.423 7.35044 109.068 8.05213C109.713 8.75381 110.206 9.5598 110.547 10.4701C110.888 11.3614 111.059 12.3286 111.059 13.3717C111.059 13.6372 111.04 13.9121 111.002 14.1966C110.983 14.4811 110.936 14.7276 110.86 14.9362H98.9124V12.0916H108.755L106.991 13.4285C107.162 12.5562 107.115 11.7786 106.849 11.0959C106.602 10.4132 106.185 9.87271 105.597 9.47446C105.028 9.07621 104.336 8.87708 103.521 8.87708C102.743 8.87708 102.051 9.07621 101.444 9.47446C100.837 9.85375 100.373 10.4227 100.05 11.1813C99.7468 11.9209 99.6331 12.8217 99.7089 13.8837C99.6331 14.8319 99.7563 15.6758 100.079 16.4154C100.42 17.1361 100.913 17.6955 101.558 18.0938C102.222 18.4921 102.98 18.6912 103.834 18.6912C104.687 18.6912 105.408 18.511 105.996 18.1507C106.602 17.7904 107.077 17.3068 107.418 16.6999L110.433 18.1791C110.13 18.9188 109.656 19.573 109.011 20.142C108.366 20.7109 107.598 21.1566 106.707 21.479C105.834 21.8014 104.867 21.9625 103.805 21.9625Z" fill="black"/>
<path d="M75.7216 21.6212V0.428406H82.6342C84.872 0.428406 86.8158 0.883553 88.4657 1.79385C90.1346 2.68518 91.4242 3.92735 92.3345 5.52036C93.2448 7.09441 93.6999 8.92448 93.6999 11.0106C93.6999 13.0777 93.2448 14.9172 92.3345 16.5292C91.4242 18.1222 90.1346 19.3739 88.4657 20.2842C86.8158 21.1755 84.872 21.6212 82.6342 21.6212H75.7216ZM79.5904 18.2076H82.7195C84.1608 18.2076 85.403 17.9136 86.446 17.3257C87.508 16.7189 88.333 15.8844 88.9209 14.8224C89.5088 13.7414 89.8027 12.4708 89.8027 11.0106C89.8027 9.53134 89.5088 8.26072 88.9209 7.19871C88.333 6.1367 87.508 5.31175 86.446 4.72385C85.403 4.13596 84.1608 3.84201 82.7195 3.84201H79.5904V18.2076Z" fill="black"/>
<path d="M63.4932 21.9625C61.995 21.9625 60.658 21.6117 59.4822 20.91C58.3064 20.1894 57.3772 19.2127 56.6944 17.98C56.0117 16.7473 55.6704 15.3819 55.6704 13.8837C55.6704 12.3665 56.0117 11.0011 56.6944 9.78735C57.3772 8.57363 58.3064 7.60644 59.4822 6.88579C60.677 6.16514 62.0045 5.80482 63.4647 5.80482C64.6405 5.80482 65.6836 6.04187 66.5939 6.51598C67.5231 6.97113 68.2533 7.61592 68.7843 8.45036L68.2153 9.21842V0.0870361H71.9419V21.6212H68.4145V18.6343L68.8127 19.3739C68.2817 20.2083 67.5421 20.8531 66.5939 21.3083C65.6457 21.7444 64.6121 21.9625 63.4932 21.9625ZM63.8914 18.5489C64.7448 18.5489 65.4939 18.3498 66.1387 17.9515C66.7835 17.5533 67.2861 17.0033 67.6464 16.3016C68.0257 15.6 68.2153 14.794 68.2153 13.8837C68.2153 12.9923 68.0257 12.1958 67.6464 11.4942C67.2861 10.7735 66.7835 10.2141 66.1387 9.8158C65.4939 9.41754 64.7448 9.21842 63.8914 9.21842C63.057 9.21842 62.3079 9.42703 61.6442 9.84424C60.9804 10.2425 60.4589 10.7925 60.0796 11.4942C59.7193 12.1769 59.5391 12.9734 59.5391 13.8837C59.5391 14.794 59.7193 15.6 60.0796 16.3016C60.4589 17.0033 60.9804 17.5533 61.6442 17.9515C62.3079 18.3498 63.057 18.5489 63.8914 18.5489Z" fill="black"/>
<path d="M45.3061 21.9625C43.7889 21.9625 42.4045 21.6117 41.1528 20.91C39.9202 20.2083 38.934 19.2506 38.1944 18.0369C37.4737 16.8232 37.1134 15.4388 37.1134 13.8837C37.1134 12.3286 37.4737 10.9442 38.1944 9.73048C38.934 8.51676 39.9202 7.55905 41.1528 6.85737C42.3855 6.15568 43.7699 5.80484 45.3061 5.80484C46.8232 5.80484 48.1981 6.15568 49.4308 6.85737C50.6635 7.55905 51.6402 8.51676 52.3608 9.73048C53.1004 10.9252 53.4703 12.3096 53.4703 13.8837C53.4703 15.4388 53.1004 16.8232 52.3608 18.0369C51.6212 19.2506 50.6351 20.2083 49.4024 20.91C48.1697 21.6117 46.8042 21.9625 45.3061 21.9625ZM45.3061 18.5489C46.1405 18.5489 46.8706 18.3498 47.4965 17.9516C48.1412 17.5533 48.6438 17.0033 49.0041 16.3017C49.3834 15.581 49.5731 14.775 49.5731 13.8837C49.5731 12.9734 49.3834 12.1769 49.0041 11.4942C48.6438 10.7925 48.1412 10.2425 47.4965 9.84427C46.8706 9.42705 46.1405 9.21844 45.3061 9.21844C44.4527 9.21844 43.7036 9.42705 43.0588 9.84427C42.414 10.2425 41.9019 10.7925 41.5226 11.4942C41.1623 12.1769 40.9822 12.9734 40.9822 13.8837C40.9822 14.775 41.1623 15.581 41.5226 16.3017C41.9019 17.0033 42.414 17.5533 43.0588 17.9516C43.7036 18.3498 44.4527 18.5489 45.3061 18.5489Z" fill="black"/>
<path d="M26.7491 21.9625C25.232 21.9625 23.8476 21.6117 22.5959 20.91C21.3632 20.2083 20.3771 19.2506 19.6375 18.0369C18.9168 16.8232 18.5565 15.4388 18.5565 13.8837C18.5565 12.3286 18.9168 10.9442 19.6375 9.73048C20.3771 8.51676 21.3632 7.55905 22.5959 6.85737C23.8286 6.15568 25.213 5.80484 26.7491 5.80484C28.2663 5.80484 29.6412 6.15568 30.8739 6.85737C32.1066 7.55905 33.0832 8.51676 33.8039 9.73048C34.5435 10.9252 34.9133 12.3096 34.9133 13.8837C34.9133 15.4388 34.5435 16.8232 33.8039 18.0369C33.0643 19.2506 32.0781 20.2083 30.8454 20.91C29.6128 21.6117 28.2473 21.9625 26.7491 21.9625ZM26.7491 18.5489C27.5836 18.5489 28.3137 18.3498 28.9395 17.9516C29.5843 17.5533 30.0869 17.0033 30.4472 16.3017C30.8265 15.581 31.0161 14.775 31.0161 13.8837C31.0161 12.9734 30.8265 12.1769 30.4472 11.4942C30.0869 10.7925 29.5843 10.2425 28.9395 9.84427C28.3137 9.42705 27.5836 9.21844 26.7491 9.21844C25.8957 9.21844 25.1466 9.42705 24.5018 9.84427C23.857 10.2425 23.345 10.7925 22.9657 11.4942C22.6054 12.1769 22.4252 12.9734 22.4252 13.8837C22.4252 14.775 22.6054 15.581 22.9657 16.3017C23.345 17.0033 23.857 17.5533 24.5018 17.9516C25.1466 18.3498 25.8957 18.5489 26.7491 18.5489Z" fill="black"/>
<path d="M8.13498 27.8795C6.97815 27.8795 5.90666 27.6898 4.92051 27.3105C3.93436 26.9312 3.08096 26.4002 2.36031 25.7175C1.65863 25.0538 1.14659 24.2667 0.82419 23.3564L4.29468 22.0479C4.52226 22.7685 4.96792 23.347 5.63168 23.7831C6.3144 24.2383 7.14883 24.4659 8.13498 24.4659C8.89356 24.4659 9.55732 24.3236 10.1263 24.0392C10.7141 23.7547 11.1693 23.3375 11.4917 22.7875C11.8141 22.2565 11.9753 21.6117 11.9753 20.8531V17.3257L12.6865 18.1791C12.1554 19.1084 11.4443 19.8101 10.5529 20.2842C9.66162 20.7583 8.64702 20.9954 7.50916 20.9954C6.06786 20.9954 4.77828 20.6635 3.64041 19.9997C2.50254 19.336 1.61121 18.4257 0.966424 17.2688C0.321633 16.112 -0.000762939 14.813 -0.000762939 13.3717C-0.000762939 11.9114 0.321633 10.6123 0.966424 9.47446C1.61121 8.33659 2.49306 7.44527 3.61196 6.80047C4.73087 6.13672 6.00148 5.80484 7.42382 5.80484C8.58065 5.80484 9.59525 6.05138 10.4676 6.54445C11.3589 7.01857 12.0986 7.71077 12.6865 8.62106L12.1744 9.5598V6.1462H15.7018V20.8531C15.7018 22.1996 15.3699 23.4038 14.7062 24.4659C14.0614 25.5279 13.17 26.3623 12.0322 26.9692C10.9133 27.576 9.61421 27.8795 8.13498 27.8795ZM7.9643 17.5533C8.76081 17.5533 9.45301 17.3826 10.0409 17.0413C10.6478 16.681 11.1219 16.1879 11.4632 15.562C11.8046 14.9362 11.9753 14.2156 11.9753 13.4001C11.9753 12.6036 11.7951 11.8924 11.4348 11.2666C11.0934 10.6218 10.6193 10.1193 10.0125 9.75893C9.42457 9.3986 8.74185 9.21844 7.9643 9.21844C7.18676 9.21844 6.48508 9.3986 5.85925 9.75893C5.23342 10.1193 4.74035 10.6218 4.38002 11.2666C4.03866 11.8924 3.86798 12.6036 3.86798 13.4001C3.86798 14.1966 4.03866 14.9078 4.38002 15.5336C4.74035 16.1594 5.22394 16.6525 5.8308 17.0128C6.45663 17.3732 7.1678 17.5533 7.9643 17.5533Z" fill="black"/>
</svg>
