<svg width="20" height="21" viewBox="0 0 20 21" fill="none" xmlns="http://www.w3.org/2000/svg">
    <path fill-rule="evenodd" clip-rule="evenodd" d="M17.091 10.7022C17.091 10.1916 17.0451 9.7007 16.96 9.22943H10.179V12.0145H14.0539C13.887 12.9145 13.3797 13.6771 12.6171 14.1876V15.9942H14.944C16.3055 14.7407 17.091 12.8949 17.091 10.7022Z" fill="#4285F4"/>
    <path fill-rule="evenodd" clip-rule="evenodd" d="M10.1789 17.7385C12.1229 17.7385 13.7528 17.0938 14.944 15.9941L12.6171 14.1876C11.9724 14.6196 11.1477 14.8749 10.1789 14.8749C8.30366 14.8749 6.71639 13.6083 6.15021 11.9065H3.74475V13.772C4.92948 16.1251 7.36439 17.7385 10.1789 17.7385Z" fill="#34A853"/>
    <path fill-rule="evenodd" clip-rule="evenodd" d="M6.15028 11.9065C6.00628 11.4745 5.92446 11.0131 5.92446 10.5385C5.92446 10.064 6.00628 9.60252 6.15028 9.17052V7.30507H3.74482C3.25719 8.27707 2.979 9.3767 2.979 10.5385C2.979 11.7003 3.25719 12.8 3.74482 13.772L6.15028 11.9065Z" fill="#FBBC05"/>
    <path fill-rule="evenodd" clip-rule="evenodd" d="M10.1789 6.20215C11.236 6.20215 12.1851 6.56542 12.9313 7.27888L14.9964 5.21379C13.7495 4.05197 12.1197 3.33851 10.1789 3.33851C7.36439 3.33851 4.92948 4.95197 3.74475 7.30506L6.15021 9.17051C6.71639 7.4687 8.30366 6.20215 10.1789 6.20215Z" fill="#EA4335"/>
</svg>
