<svg width="19" height="18" viewBox="0 0 19 18" fill="none" xmlns="http://www.w3.org/2000/svg">
<g clip-path="url(#clip0_1541_2926)">
<path d="M18.0908 6.80168L12.402 1.11218C11.6979 0.410172 10.7443 0.0159607 9.75001 0.0159607C8.75576 0.0159607 7.80208 0.410172 7.09801 1.11218L1.40926 6.80168C1.19958 7.01002 1.03334 7.2579 0.920171 7.53097C0.807005 7.80403 0.749167 8.09685 0.750009 8.39243V15.7552C0.750009 16.3519 0.987062 16.9242 1.40902 17.3462C1.83098 17.7681 2.40327 18.0052 3.00001 18.0052H16.5C17.0967 18.0052 17.669 17.7681 18.091 17.3462C18.513 16.9242 18.75 16.3519 18.75 15.7552V8.39243C18.7509 8.09685 18.693 7.80403 18.5798 7.53097C18.4667 7.2579 18.3004 7.01002 18.0908 6.80168ZM12 16.5052H7.50001V13.5547C7.50001 12.9579 7.73706 12.3856 8.15902 11.9637C8.58098 11.5417 9.15327 11.3047 9.75001 11.3047C10.3467 11.3047 10.919 11.5417 11.341 11.9637C11.763 12.3856 12 12.9579 12 13.5547V16.5052ZM17.25 15.7552C17.25 15.9541 17.171 16.1449 17.0303 16.2855C16.8897 16.4262 16.6989 16.5052 16.5 16.5052H13.5V13.5547C13.5 12.5601 13.1049 11.6063 12.4017 10.903C11.6984 10.1998 10.7446 9.80468 9.75001 9.80468C8.75545 9.80468 7.80162 10.1998 7.09836 10.903C6.3951 11.6063 6.00001 12.5601 6.00001 13.5547V16.5052H3.00001C2.8011 16.5052 2.61033 16.4262 2.46968 16.2855C2.32903 16.1449 2.25001 15.9541 2.25001 15.7552V8.39243C2.2507 8.19366 2.32965 8.00317 2.46976 7.86218L8.15851 2.17493C8.58128 1.75413 9.15351 1.51789 9.75001 1.51789C10.3465 1.51789 10.9187 1.75413 11.3415 2.17493L17.0303 7.86443C17.1698 8.00487 17.2487 8.19444 17.25 8.39243V15.7552Z" fill="#A3A2AC"/>
</g>
<defs>
<clipPath id="clip0_1541_2926">
<rect width="18" height="18" fill="white" transform="translate(0.75)"/>
</clipPath>
</defs>
</svg>
