<svg width="19" height="18" viewBox="0 0 19 18" fill="none" xmlns="http://www.w3.org/2000/svg">
<g clip-path="url(#clip0_2155_193)">
<path d="M7.5 10.5H12C12.1989 10.5 12.3897 10.421 12.5303 10.2803C12.671 10.1397 12.75 9.94892 12.75 9.75C12.75 9.55109 12.671 9.36032 12.5303 9.21967C12.3897 9.07902 12.1989 9 12 9H7.5C7.30109 9 7.11032 9.07902 6.96967 9.21967C6.82902 9.36032 6.75 9.55109 6.75 9.75C6.75 9.94892 6.82902 10.1397 6.96967 10.2803C7.11032 10.421 7.30109 10.5 7.5 10.5Z" fill="#A3A2AC"/>
<path d="M15 0H4.5C3.5058 0.00119089 2.55267 0.396661 1.84966 1.09966C1.14666 1.80267 0.751191 2.7558 0.75 3.75L0.75 4.5C0.750218 4.81631 0.817126 5.12901 0.946357 5.41772C1.07559 5.70642 1.26424 5.96463 1.5 6.1755V14.25C1.50119 15.2442 1.89666 16.1973 2.59966 16.9003C3.30267 17.6033 4.2558 17.9988 5.25 18H14.25C15.2442 17.9988 16.1973 17.6033 16.9003 16.9003C17.6033 16.1973 17.9988 15.2442 18 14.25V6.1755C18.2358 5.96463 18.4244 5.70642 18.5536 5.41772C18.6829 5.12901 18.7498 4.81631 18.75 4.5V3.75C18.7488 2.7558 18.3533 1.80267 17.6503 1.09966C16.9473 0.396661 15.9942 0.00119089 15 0V0ZM2.25 3.75C2.25 3.15326 2.48705 2.58097 2.90901 2.15901C3.33097 1.73705 3.90326 1.5 4.5 1.5H15C15.5967 1.5 16.169 1.73705 16.591 2.15901C17.0129 2.58097 17.25 3.15326 17.25 3.75V4.5C17.25 4.69891 17.171 4.88968 17.0303 5.03033C16.8897 5.17098 16.6989 5.25 16.5 5.25H3C2.80109 5.25 2.61032 5.17098 2.46967 5.03033C2.32902 4.88968 2.25 4.69891 2.25 4.5V3.75ZM16.5 14.25C16.5 14.8467 16.2629 15.419 15.841 15.841C15.419 16.2629 14.8467 16.5 14.25 16.5H5.25C4.65326 16.5 4.08097 16.2629 3.65901 15.841C3.23705 15.419 3 14.8467 3 14.25V6.75H16.5V14.25Z" fill="#A3A2AC"/>
</g>
<defs>
<clipPath id="clip0_2155_193">
<rect width="18" height="18" fill="white" transform="translate(0.75)"/>
</clipPath>
</defs>
</svg>
