<svg width="64" height="95" viewBox="0 0 64 95" fill="none" xmlns="http://www.w3.org/2000/svg">
<path d="M32.0868 41.7755C37.6623 41.7755 42.1821 37.2383 42.1821 31.6413C42.1821 26.0443 37.6623 21.5071 32.0868 21.5071C26.5114 21.5071 21.9916 26.0443 21.9916 31.6413C21.9916 37.2383 26.5114 41.7755 32.0868 41.7755Z" fill="#F26639"/>
<path d="M63.6069 62.4621V32.7512H52.3899V62.4621C52.3899 73.6902 43.2881 82.827 32.1032 82.827C24.3956 82.827 17.6654 78.4838 14.2362 72.0976H2.08981C6.15996 84.8378 18.066 94.0873 32.0872 94.0873C49.2011 94.0873 63.1582 80.3015 63.5588 63.2181H63.5909V62.4621H63.6069Z" fill="#705AFF"/>
<path d="M52.39 31.6413C52.39 42.8693 43.2882 52.0223 32.1033 52.0223C20.9183 52.0223 11.8166 42.8854 11.8166 31.6413C11.8166 20.3971 20.9183 11.2602 32.1033 11.2602V0C14.717 0 0.583572 14.1879 0.583572 31.6413C0.583572 49.0946 14.717 63.2825 32.0872 63.2825C49.4575 63.2825 63.5909 49.0946 63.5909 31.6413H52.3739H52.39Z" fill="#F26639"/>
</svg>
