<svg width="18" height="18" viewBox="0 0 18 18" fill="none" xmlns="http://www.w3.org/2000/svg">
<g clip-path="url(#clip0_799_4859)">
<path d="M6.75 1.5H11.25C11.4489 1.5 11.6397 1.57902 11.7803 1.71967C11.921 1.86032 12 2.05109 12 2.25V4.5H6V2.25C6 2.05109 6.07902 1.86032 6.21967 1.71967C6.36032 1.57902 6.55109 1.5 6.75 1.5ZM4.5 2.25V4.5H3C2.20435 4.5 1.44129 4.81607 0.878679 5.37868C0.31607 5.94129 0 6.70435 0 7.5V15C0 15.7956 0.31607 16.5587 0.878679 17.1213C1.44129 17.6839 2.20435 18 3 18H15C15.7956 18 16.5587 17.6839 17.1213 17.1213C17.6839 16.5587 18 15.7956 18 15V7.5C18 6.70435 17.6839 5.94129 17.1213 5.37868C16.5587 4.81607 15.7956 4.5 15 4.5H13.5V2.25C13.5 1.65326 13.2629 1.08097 12.841 0.65901C12.419 0.237053 11.8467 0 11.25 0H6.75C6.15326 0 5.58097 0.237053 5.15901 0.65901C4.73705 1.08097 4.5 1.65326 4.5 2.25ZM9.75 9V10.5H11.25C11.4489 10.5 11.6397 10.579 11.7803 10.7197C11.921 10.8603 12 11.0511 12 11.25C12 11.4489 11.921 11.6397 11.7803 11.7803C11.6397 11.921 11.4489 12 11.25 12H9.75V13.5C9.75 13.6989 9.67098 13.8897 9.53033 14.0303C9.38968 14.171 9.19891 14.25 9 14.25C8.80109 14.25 8.61032 14.171 8.46967 14.0303C8.32902 13.8897 8.25 13.6989 8.25 13.5V12H6.75C6.55109 12 6.36032 11.921 6.21967 11.7803C6.07902 11.6397 6 11.4489 6 11.25C6 11.0511 6.07902 10.8603 6.21967 10.7197C6.36032 10.579 6.55109 10.5 6.75 10.5H8.25V9C8.25 8.80109 8.32902 8.61032 8.46967 8.46967C8.61032 8.32902 8.80109 8.25 9 8.25C9.19891 8.25 9.38968 8.32902 9.53033 8.46967C9.67098 8.61032 9.75 8.80109 9.75 9Z" fill="#EB5757"/>
</g>
<defs>
<clipPath id="clip0_799_4859">
<rect width="18" height="18" fill="white"/>
</clipPath>
</defs>
</svg>
