<svg width="18" height="18" viewBox="0 0 18 18" fill="none" xmlns="http://www.w3.org/2000/svg">
<g clip-path="url(#clip0_763_4115)">
<path d="M16.9171 10.2465L15.4921 5.11945C15.0744 3.61745 14.1666 2.29817 12.9131 1.3713C11.6595 0.444441 10.1321 -0.0368093 8.57369 0.00405082C7.01523 0.0449109 5.51515 0.605536 4.31189 1.59681C3.10863 2.58809 2.27124 3.95313 1.93284 5.47495L0.829591 10.4362C0.707727 10.9844 0.710545 11.553 0.837835 12.0999C0.965126 12.6469 1.21364 13.1583 1.56503 13.5964C1.91642 14.0344 2.36171 14.388 2.86802 14.6309C3.37434 14.8739 3.92876 15 4.49034 15H5.32584C5.49798 15.8477 5.95789 16.6098 6.62765 17.1572C7.29741 17.7047 8.13582 18.0037 9.00084 18.0037C9.86586 18.0037 10.7043 17.7047 11.374 17.1572C12.0438 16.6098 12.5037 15.8477 12.6758 15H13.3043C13.8824 15 14.4527 14.8664 14.9707 14.6095C15.4886 14.3527 15.9401 13.9796 16.29 13.5193C16.6398 13.0591 16.8785 12.5242 16.9874 11.9565C17.0964 11.3887 17.0725 10.8035 16.9178 10.2465H16.9171ZM9.00084 16.5C8.53715 16.498 8.08537 16.3529 7.70732 16.0844C7.32926 15.8159 7.0434 15.4371 6.88884 15H11.1128C10.9583 15.4371 10.6724 15.8159 10.2944 16.0844C9.91631 16.3529 9.46454 16.498 9.00084 16.5ZM15.0953 12.6112C14.8863 12.8885 14.6156 13.1131 14.3045 13.2674C13.9935 13.4217 13.6508 13.5013 13.3036 13.5H4.49034C4.15343 13.4999 3.82083 13.4242 3.5171 13.2784C3.21336 13.1326 2.94624 12.9205 2.73546 12.6576C2.52468 12.3948 2.37561 12.088 2.29926 11.7598C2.22291 11.4317 2.22123 11.0906 2.29434 10.7617L3.39684 5.7997C3.66261 4.60436 4.32032 3.53215 5.26543 2.75354C6.21054 1.97492 7.38881 1.53458 8.61292 1.50251C9.83703 1.47044 11.0367 1.84849 12.0213 2.57655C13.0059 3.30462 13.7189 4.34091 14.0468 5.5207L15.4718 10.6477C15.566 10.9817 15.581 11.3331 15.5156 11.6739C15.4503 12.0148 15.3064 12.3357 15.0953 12.6112Z" fill="#705AFF"/>
</g>
<defs>
<clipPath id="clip0_763_4115">
<rect width="18" height="18" fill="white"/>
</clipPath>
</defs>
</svg>
