<svg width="19" height="18" viewBox="0 0 19 18" fill="none" xmlns="http://www.w3.org/2000/svg">
<g clip-path="url(#clip0_1541_3924)">
<path d="M15.7118 4.15232L13.0988 1.53782C12.6122 1.04893 12.0336 0.66132 11.3964 0.397417C10.7592 0.133513 10.076 -0.00145273 9.38625 0.000322462H6C5.0058 0.00151336 4.05267 0.396984 3.34966 1.09999C2.64666 1.80299 2.25119 2.75613 2.25 3.75032V14.2503C2.25119 15.2445 2.64666 16.1977 3.34966 16.9007C4.05267 17.6037 5.0058 17.9991 6 18.0003H13.5C14.4942 17.9991 15.4473 17.6037 16.1503 16.9007C16.8533 16.1977 17.2488 15.2445 17.25 14.2503V7.86407C17.2519 7.17439 17.1169 6.49119 16.8528 5.85405C16.5888 5.21692 16.2009 4.6385 15.7118 4.15232ZM14.6512 5.21282C14.8803 5.44843 15.0772 5.71321 15.237 6.00032H12C11.8011 6.00032 11.6103 5.9213 11.4697 5.78065C11.329 5.64 11.25 5.44923 11.25 5.25032V2.01332C11.5372 2.17302 11.8022 2.36969 12.0382 2.59832L14.6512 5.21282ZM15.75 14.2503C15.75 14.8471 15.5129 15.4194 15.091 15.8413C14.669 16.2633 14.0967 16.5003 13.5 16.5003H6C5.40326 16.5003 4.83097 16.2633 4.40901 15.8413C3.98705 15.4194 3.75 14.8471 3.75 14.2503V3.75032C3.75 3.15359 3.98705 2.58129 4.40901 2.15933C4.83097 1.73738 5.40326 1.50032 6 1.50032H9.38625C9.50925 1.50032 9.6285 1.52432 9.75 1.53557V5.25032C9.75 5.84706 9.98705 6.41936 10.409 6.84131C10.831 7.26327 11.4033 7.50032 12 7.50032H15.7147C15.726 7.62182 15.75 7.74032 15.75 7.86407V14.2503Z" fill="#A3A2AC"/>
</g>
<defs>
<clipPath id="clip0_1541_3924">
<rect width="18" height="18" fill="white" transform="translate(0.75)"/>
</clipPath>
</defs>
</svg>
