<svg width="18" height="18" viewBox="0 0 18 18" fill="none" xmlns="http://www.w3.org/2000/svg">
<g clip-path="url(#clip0_763_4128)">
<path d="M9 11.2501C8.80109 11.2501 8.61032 11.1711 8.46967 11.0304C8.32902 10.8898 8.25 10.699 8.25 10.5001V4.50012C8.25 4.30121 8.32902 4.11044 8.46967 3.96979C8.61032 3.82914 8.80109 3.75012 9 3.75012C9.19892 3.75012 9.38968 3.82914 9.53033 3.96979C9.67099 4.11044 9.75 4.30121 9.75 4.50012V10.5001C9.75 10.699 9.67099 10.8898 9.53033 11.0304C9.38968 11.1711 9.19892 11.2501 9 11.2501ZM9.59475 17.8201C11.2148 17.1691 16.5 14.6094 16.5 9.03237V5.15412C16.5008 4.36588 16.2529 3.59747 15.7916 2.95835C15.3302 2.31924 14.6789 1.842 13.9305 1.59462L9.23625 0.0383674C9.083 -0.0133588 8.91701 -0.0133588 8.76375 0.0383674L4.0695 1.59462C3.32109 1.842 2.66981 2.31924 2.20845 2.95835C1.74709 3.59747 1.49917 4.36588 1.5 5.15412V9.03237C1.5 13.9539 6.75375 16.9644 8.36475 17.7699C8.56851 17.8671 8.78127 17.9442 9 18.0001C9.20337 17.9585 9.40246 17.8983 9.59475 17.8201ZM13.458 3.01812C13.9069 3.16693 14.2975 3.4534 14.5743 3.83684C14.8511 4.22028 15.0001 4.6812 15 5.15412V9.03237C15 13.6696 10.4348 15.8656 9.03525 16.4281C7.61925 15.7201 3 13.0944 3 9.03237V5.15412C2.99994 4.6812 3.14889 4.22028 3.4257 3.83684C3.70251 3.4534 4.09311 3.16693 4.542 3.01812L9 1.54062L13.458 3.01812ZM9 12.7501C8.85167 12.7501 8.70666 12.7941 8.58332 12.8765C8.45999 12.9589 8.36386 13.0761 8.30709 13.2131C8.25033 13.3502 8.23547 13.501 8.26441 13.6464C8.29335 13.7919 8.36478 13.9256 8.46967 14.0304C8.57456 14.1353 8.7082 14.2068 8.85368 14.2357C8.99917 14.2646 9.14997 14.2498 9.28702 14.193C9.42406 14.1363 9.54119 14.0401 9.6236 13.9168C9.70602 13.7935 9.75 13.6485 9.75 13.5001C9.75 13.3012 9.67099 13.1104 9.53033 12.9698C9.38968 12.8291 9.19892 12.7501 9 12.7501Z" fill="#705AFF"/>
</g>
<defs>
<clipPath id="clip0_763_4128">
<rect width="18" height="18" fill="white"/>
</clipPath>
</defs>
</svg>
