<svg width="19" height="18" viewBox="0 0 19 18" fill="none" xmlns="http://www.w3.org/2000/svg">
<g clip-path="url(#clip0_1541_3928)">
<path d="M9.25 8.99994C10.14 8.99994 11.01 8.73602 11.7501 8.24155C12.4901 7.74709 13.0669 7.04428 13.4075 6.22202C13.7481 5.39975 13.8372 4.49495 13.6635 3.62203C13.4899 2.74912 13.0613 1.9473 12.432 1.31796C11.8026 0.688624 11.0008 0.260041 10.1279 0.0864072C9.25499 -0.0872263 8.35019 0.00188875 7.52792 0.342483C6.70566 0.683077 6.00285 1.25985 5.50839 1.99987C5.01392 2.7399 4.75 3.60993 4.75 4.49994C4.75119 5.69305 5.22568 6.83695 6.06934 7.68061C6.91299 8.52426 8.05689 8.99875 9.25 8.99994ZM9.25 1.49994C9.84334 1.49994 10.4234 1.67589 10.9167 2.00553C11.4101 2.33518 11.7946 2.80371 12.0216 3.35189C12.2487 3.90007 12.3081 4.50327 12.1924 5.08521C12.0766 5.66715 11.7909 6.2017 11.3713 6.62126C10.9518 7.04082 10.4172 7.32654 9.83527 7.4423C9.25333 7.55805 8.65013 7.49864 8.10195 7.27158C7.55377 7.04452 7.08524 6.66 6.75559 6.16665C6.42595 5.6733 6.25 5.09329 6.25 4.49994C6.25 3.70429 6.56607 2.94123 7.12868 2.37862C7.69129 1.81601 8.45435 1.49994 9.25 1.49994Z" fill="#A3A2AC"/>
<path d="M9.25 10.5005C7.4604 10.5025 5.74466 11.2143 4.47922 12.4797C3.21378 13.7452 2.50199 15.4609 2.5 17.2505C2.5 17.4494 2.57902 17.6402 2.71967 17.7808C2.86032 17.9215 3.05109 18.0005 3.25 18.0005C3.44891 18.0005 3.63968 17.9215 3.78033 17.7808C3.92098 17.6402 4 17.4494 4 17.2505C4 15.8581 4.55312 14.5227 5.53769 13.5382C6.52226 12.5536 7.85761 12.0005 9.25 12.0005C10.6424 12.0005 11.9777 12.5536 12.9623 13.5382C13.9469 14.5227 14.5 15.8581 14.5 17.2505C14.5 17.4494 14.579 17.6402 14.7197 17.7808C14.8603 17.9215 15.0511 18.0005 15.25 18.0005C15.4489 18.0005 15.6397 17.9215 15.7803 17.7808C15.921 17.6402 16 17.4494 16 17.2505C15.998 15.4609 15.2862 13.7452 14.0208 12.4797C12.7553 11.2143 11.0396 10.5025 9.25 10.5005Z" fill="#A3A2AC"/>
</g>
<defs>
<clipPath id="clip0_1541_3928">
<rect width="18" height="18" fill="white" transform="translate(0.25)"/>
</clipPath>
</defs>
</svg>
