<svg width="18" height="18" viewBox="0 0 18 18" fill="none" xmlns="http://www.w3.org/2000/svg">
<g clip-path="url(#clip0_763_4135)">
<path d="M17.1222 6.87839L14.2129 3.96914C14.0715 3.83252 13.882 3.75693 13.6854 3.75863C13.4887 3.76034 13.3006 3.83922 13.1616 3.97828C13.0225 4.11733 12.9436 4.30544 12.9419 4.50209C12.9402 4.69874 13.0158 4.88819 13.1524 5.02964L16.0617 7.93889C16.1481 8.02704 16.2237 8.12524 16.2867 8.23139C16.2754 8.23139 16.2664 8.22539 16.2552 8.22539L4.49219 8.24939C4.29328 8.24939 4.10251 8.32841 3.96186 8.46906C3.82121 8.60971 3.74219 8.80048 3.74219 8.99939C3.74219 9.1983 3.82121 9.38907 3.96186 9.52972C4.10251 9.67037 4.29328 9.74939 4.49219 9.74939L16.2507 9.72539C16.2717 9.72539 16.2889 9.71489 16.3092 9.71339C16.2427 9.84026 16.1583 9.95694 16.0587 10.0599L13.1494 12.9691C13.0778 13.0383 13.0207 13.1211 12.9814 13.2126C12.9421 13.3041 12.9214 13.4025 12.9205 13.5021C12.9196 13.6017 12.9386 13.7004 12.9763 13.7926C13.014 13.8848 13.0697 13.9685 13.1401 14.0389C13.2106 14.1094 13.2943 14.165 13.3865 14.2028C13.4786 14.2405 13.5774 14.2594 13.677 14.2586C13.7766 14.2577 13.875 14.237 13.9665 14.1977C14.058 14.1584 14.1408 14.1013 14.2099 14.0296L17.1192 11.1204C17.6816 10.5578 17.9975 9.79488 17.9975 8.99939C17.9975 8.2039 17.6816 7.44097 17.1192 6.87839H17.1222Z" fill="#705AFF"/>
<path d="M5.25 16.5H3.75C3.15326 16.5 2.58097 16.2629 2.15901 15.841C1.73705 15.419 1.5 14.8467 1.5 14.25V3.75C1.5 3.15326 1.73705 2.58097 2.15901 2.15901C2.58097 1.73705 3.15326 1.5 3.75 1.5H5.25C5.44891 1.5 5.63968 1.42098 5.78033 1.28033C5.92098 1.13968 6 0.948912 6 0.75C6 0.551088 5.92098 0.360322 5.78033 0.21967C5.63968 0.0790176 5.44891 0 5.25 0L3.75 0C2.7558 0.00119089 1.80267 0.396661 1.09966 1.09966C0.396661 1.80267 0.00119089 2.7558 0 3.75L0 14.25C0.00119089 15.2442 0.396661 16.1973 1.09966 16.9003C1.80267 17.6033 2.7558 17.9988 3.75 18H5.25C5.44891 18 5.63968 17.921 5.78033 17.7803C5.92098 17.6397 6 17.4489 6 17.25C6 17.0511 5.92098 16.8603 5.78033 16.7197C5.63968 16.579 5.44891 16.5 5.25 16.5Z" fill="#705AFF"/>
</g>
<defs>
<clipPath id="clip0_763_4135">
<rect width="18" height="18" fill="white"/>
</clipPath>
</defs>
</svg>
