<svg width="18" height="18" viewBox="0 0 18 18" fill="none" xmlns="http://www.w3.org/2000/svg">
<path d="M15.7505 9.31776V8.24976C15.7505 6.45954 15.0394 4.74266 13.7735 3.47679C12.5076 2.21091 10.7907 1.49976 9.00051 1.49976C7.2103 1.49976 5.49341 2.21091 4.22754 3.47679C2.96167 4.74266 2.25051 6.45954 2.25051 8.24976V9.31776C1.46388 9.66413 0.820113 10.2702 0.426978 11.0346C0.0338442 11.7989 -0.084792 12.6751 0.0909304 13.5164C0.266653 14.3578 0.726068 15.1133 1.39226 15.6563C2.05846 16.1994 2.891 16.4972 3.75051 16.4998C4.14834 16.4998 4.52987 16.3417 4.81117 16.0604C5.09248 15.7791 5.25051 15.3976 5.25051 14.9998V10.4998C5.25051 10.1019 5.09248 9.7204 4.81117 9.4391C4.52987 9.15779 4.14834 8.99976 3.75051 8.99976V8.24976C3.75051 6.85737 4.30364 5.52201 5.2882 4.53744C6.27277 3.55288 7.60813 2.99976 9.00051 2.99976C10.3929 2.99976 11.7283 3.55288 12.7128 4.53744C13.6974 5.52201 14.2505 6.85737 14.2505 8.24976V8.99976C13.8527 8.99976 13.4712 9.15779 13.1899 9.4391C12.9085 9.7204 12.7505 10.1019 12.7505 10.4998V14.9998H10.5005C10.3016 14.9998 10.1108 15.0788 9.97018 15.2194C9.82953 15.3601 9.75051 15.5508 9.75051 15.7498C9.75051 15.9487 9.82953 16.1394 9.97018 16.2801C10.1108 16.4207 10.3016 16.4998 10.5005 16.4998H14.2505C15.11 16.4972 15.9426 16.1994 16.6088 15.6563C17.275 15.1133 17.7344 14.3578 17.9101 13.5164C18.0858 12.6751 17.9672 11.7989 17.574 11.0346C17.1809 10.2702 16.5371 9.66413 15.7505 9.31776ZM3.75051 14.9998C3.15377 14.9998 2.58148 14.7627 2.15952 14.3407C1.73757 13.9188 1.50051 13.3465 1.50051 12.7498C1.50051 12.153 1.73757 11.5807 2.15952 11.1588C2.58148 10.7368 3.15377 10.4998 3.75051 10.4998V14.9998ZM14.2505 14.9998V10.4998C14.8472 10.4998 15.4195 10.7368 15.8415 11.1588C16.2635 11.5807 16.5005 12.153 16.5005 12.7498C16.5005 13.3465 16.2635 13.9188 15.8415 14.3407C15.4195 14.7627 14.8472 14.9998 14.2505 14.9998Z" fill="#705AFF"/>
</svg>
